<svg xmlns="http://www.w3.org/2000/svg" viewBox="0 0 592.9519 86.51386">
  <defs>
    <style>
      .cls-1 {
        fill: #1d1d1b;
      }

      .cls-2 {
        fill: #e72f6f;
      }
    </style>
  </defs>
  <g id="Layer_2" data-name="Layer 2">
    <g id="Layer_1-2" data-name="Layer 1">
      <path class="cls-1" d="M38.00179,58.44009V69.9332a.35892.35892,0,0,1-.27219.35031,27.34122,27.34122,0,0,1-8.02911.99386c-13.12851,0-21.30626-6.34844-21.30626-20.0141V29.34263a.35574.35574,0,0,0-.35574-.35574H.35574A.35574.35574,0,0,1,0,28.63115V17.076a.35574.35574,0,0,1,.35574-.35574H8.03849a.35574.35574,0,0,0,.35574-.35574V6.129A.35574.35574,0,0,1,8.75,5.77327H22.566a.35574.35574,0,0,1,.35574.35574V16.36453a.35574.35574,0,0,0,.35574.35574H37.63074a.35574.35574,0,0,1,.35574.35574V28.63115a.35574.35574,0,0,1-.35574.35574H23.27752a.35574.35574,0,0,0-.35574.35574V49.97247c0,6.132,3.22834,8.286,9.90016,8.286a43.8976,43.8976,0,0,0,4.78645-.17262A.36376.36376,0,0,1,38.00179,58.44009Z"/>
      <path class="cls-1" d="M95.44277,36.95086V69.56863a.418.418,0,0,1-.41795.41794H81.44141a.41794.41794,0,0,1-.41794-.41794v-30.572c0-6.24291-3.982-10.33178-9.90017-10.33178S61.008,32.862,61.008,38.99665v30.572a.41794.41794,0,0,1-.41795.41794H46.89977a.41794.41794,0,0,1-.41795-.41794V.71613a.418.418,0,0,1,.41795-.41795H60.59006a.418.418,0,0,1,.41795.418V20.29219a.40484.40484,0,0,0,.68625.29559A20.47273,20.47273,0,0,1,75.6438,15.53771C87.80353,15.53771,95.44277,24.14573,95.44277,36.95086Z"/>
      <path class="cls-1" d="M234.86159,43.4045c0,16.03347-10.76069,27.97807-25.82539,27.97807a21.53507,21.53507,0,0,1-14.96758-5.4898.561.561,0,0,0-.959.395l0,19.65579a.57034.57034,0,0,1-.57034.57034H179.15377a.57034.57034,0,0,1-.57034-.57034V17.39581a.57034.57034,0,0,1,.57034-.57034h12.2016a.57034.57034,0,0,1,.57034.57034v5.6815a.13724.13724,0,0,0,.25027.08135c3.68573-4.8445,9.70731-7.51575,16.86022-7.51575C224.1009,15.64291,234.86159,27.371,234.86159,43.4045Zm-14.74132.10824c0-9.03828-6.13466-14.74267-13.7739-14.74267-6.67182,0-13.45188,4.41089-13.45188,14.63443,0,10.11529,6.67182,14.74268,13.45188,14.74268C213.87872,58.14718,220.12027,52.551,220.12027,43.51274Z"/>
      <path class="cls-1" d="M241.60946,46.63284V17.24547a.42.42,0,0,1,.42-.42H255.717a.42.42,0,0,1,.42.42V47.8181c0,6.2402,4.4109,10.22083,10.1153,10.22083,5.48791,0,9.8988-3.98063,9.8988-10.22083V17.24547a.42.42,0,0,1,.42-.42h13.68754a.42.42,0,0,1,.42.42V46.63284c0,15.0647-10.54556,24.74973-24.42635,24.74973C252.155,71.38257,241.60946,61.69754,241.60946,46.63284Z"/>
      <path class="cls-1" d="M342.40385,57.72H318.44653a.387.387,0,0,1-.31981-.60481l19.16062-28.12825,5.58567-8.20041.13023-.42253V17.46951a.74934.74934,0,0,0-.74958-.74924h-42.621a.74924.74924,0,0,0-.74924.74924v10.768a.74952.74952,0,0,0,.74924.74941l-.00034-.00017.00068.00017h21.57985a.36807.36807,0,0,1,.30338.57648L296.55251,65.9021a.81846.81846,0,0,0-.13665.44075h-.00711v2.89448a.74935.74935,0,0,0,.74959.74924h45.2658a.79423.79423,0,0,0,.79424-.79423V58.53448A.81453.81453,0,0,0,342.40385,57.72Z"/>
      <path class="cls-1" d="M394.57754,57.72H370.67225a.41446.41446,0,0,1-.34255-.6478L389.461,28.98689l5.58567-8.20041.13023-.42253V17.46951a.74934.74934,0,0,0-.74958-.74924h-42.621a.74925.74925,0,0,0-.74925.74924v10.768a.74952.74952,0,0,0,.74925.74941l-.00034-.00017.00067.00017h21.51441a.40251.40251,0,0,1,.33177.63042L348.72621,65.9021a.81856.81856,0,0,0-.13666.44075h-.0071v2.89448a.74934.74934,0,0,0,.74958.74924h45.26581a.79423.79423,0,0,0,.79423-.79423V58.53448A.81453.81453,0,0,0,394.57754,57.72Z"/>
      <path class="cls-1" d="M405.03713,0H417.9638a.79975.79975,0,0,1,.79976.79976V69.292a.79975.79975,0,0,1-.79976.79976H405.03713a.79976.79976,0,0,1-.79976-.79976V.79976A.79976.79976,0,0,1,405.03713,0Z"/>
      <path class="cls-1" d="M477.48369,48.354l-35.62008-.00011a.81172.81172,0,0,0-.7739,1.04174c2.00134,6.12406,7.315,9.50381,14.65622,9.50381a23.179,23.179,0,0,0,14.186-4.8786.751.751,0,0,1,1.09319.20484l5.22182,8.57947a.835.835,0,0,1-.18426,1.07635,32.31061,32.31061,0,0,1-20.747,7.50105c-17.37405,0-29.85336-12.8571-29.1322-29.21377a27.56868,27.56868,0,0,1,27.849-26.52575c14.95292.00428,25.06415,10.97846,25.06415,24.74959a37.04032,37.04032,0,0,1-.83095,7.34645A.786.786,0,0,1,477.48369,48.354Zm-35.673-10.221h22.34249a.80853.80853,0,0,0,.80444-.85447c-.51769-6.26009-5.60022-9.90757-11.47127-9.90757-5.8237,0-10.57926,3.68486-12.42735,9.7674A.78488.78488,0,0,0,441.8107,38.13307Z"/>
      <path class="cls-1" d="M153.89038,48.36016l-35.62007-.00011a.81172.81172,0,0,0-.7739,1.04174c2.00133,6.12406,7.315,9.50381,14.65622,9.50381a23.179,23.179,0,0,0,14.186-4.8786.751.751,0,0,1,1.09319.20484l5.22182,8.57947a.835.835,0,0,1-.18426,1.07635,32.31062,32.31062,0,0,1-20.747,7.50105c-17.374,0-29.85335-12.8571-29.13219-29.21377a27.56868,27.56868,0,0,1,27.849-26.52575c14.95292.00428,25.06415,10.97846,25.06415,24.74959a37.04032,37.04032,0,0,1-.831,7.34645A.786.786,0,0,1,153.89038,48.36016Zm-35.673-10.221h22.3425a.80854.80854,0,0,0,.80444-.85447c-.51769-6.26009-5.60022-9.90757-11.47127-9.90757-5.82371,0-10.57927,3.68486-12.42735,9.7674A.78488.78488,0,0,0,118.21739,38.13921Z"/>
      <path class="cls-1" d="M523.39505,60.56637l6.38618-7.70167a.75669.75669,0,0,1,1.11528-.047c4.16536,4.06968,8.92456,6.62029,14.36829,6.62029,3.65861,0,6.78142-1.399,6.78142-4.41089,0-2.47606-2.26228-3.44483-5.48792-4.84387l-5.70439-2.36511c-9.03964-3.66131-14.52755-7.85572-14.52755-16.25,0-10.22353,8.286-15.92523,19.58519-15.92523,7.49934,0,13.89066,2.41887,18.68311,7.45295a.79422.79422,0,0,1,.03506,1.03985l-6.38391,7.79338a.75319.75319,0,0,1-1.08426.07775,17.35732,17.35732,0,0,0-11.35824-4.52757c-3.44212,0-5.70169,1.18255-5.70169,3.76685,0,2.04309,1.72106,3.1201,5.59345,4.73292l5.16589,2.154c9.57678,3.87239,14.95916,7.96126,14.95916,16.24725,0,10.97583-9.14923,17.00225-20.7691,17.00225-9.21536,0-16.90216-3.872-21.67141-9.8306A.78512.78512,0,0,1,523.39505,60.56637Z"/>
      <path class="cls-1" d="M519.78036,16.62184a15.89053,15.89053,0,0,0-4.00749-.44312,18.31721,18.31721,0,0,0-14.37655,6.67267.14474.14474,0,0,1-.25923-.08982V17.7588a.93333.93333,0,0,0-.93333-.93333h-11.476a.933.933,0,0,0-.933.933V69.15861a.93316.93316,0,0,0,.93316.93316h12.65987a.93316.93316,0,0,0,.93316-.93316V43.51274c0-9.57678,5.91953-13.88214,14.31241-13.88214h2.43614l.00372.00152h.67517l.00372-.00152a.75762.75762,0,0,0,.755-.7572V17.54509A.95464.95464,0,0,0,519.78036,16.62184Z"/>
      <path class="cls-2" d="M572.9378,61.37552a9.87994,9.87994,0,0,1,10.11529-10.007A10.00763,10.00763,0,1,1,572.9378,61.37552Z"/>
    </g>
  </g>
</svg>
