<svg width="208" height="16" viewBox="0 0 208 16" fill="none" xmlns="http://www.w3.org/2000/svg">
<path d="M0.5984 8.73408C0.5984 11.9804 3.00696 14.1795 5.81944 14.1795C7.86896 14.1795 8.93112 12.9827 8.93112 12.9827H8.96104C8.96104 12.9827 8.94608 13.1024 8.94608 13.237V13.4914C8.94608 13.7906 9.15552 14 9.55944 14H9.93344C10.3374 14 10.5468 13.7906 10.5468 13.3717V9.03328C10.5468 8.6144 10.3374 8.40496 9.93344 8.40496H7.80912C7.4052 8.40496 7.1808 8.6144 7.1808 9.03328V9.4372C7.1808 9.84112 7.4052 10.0655 7.80912 10.0655H8.8264V11.2474C8.8264 11.2474 7.91384 12.4142 6.1336 12.4142C4.15888 12.4142 2.58808 10.8734 2.58808 8.64432C2.58808 6.63968 3.87464 4.96416 6.19344 4.96416C7.3304 4.96416 8.09336 5.35312 8.55712 5.6224C8.93112 5.83184 9.2004 5.80192 9.4248 5.45784L9.69408 5.03896C9.91848 4.69488 9.88856 4.4256 9.55944 4.17128C9.11064 3.85712 7.83904 3.19888 6.08872 3.19888C2.9172 3.19888 0.5984 5.56256 0.5984 8.73408ZM12.7422 10.1852C12.7422 12.5339 14.6122 14.1795 16.931 14.1795C19.2498 14.1795 21.1348 12.5339 21.1348 10.1852C21.1348 7.85144 19.2498 6.19088 16.931 6.19088C14.6122 6.19088 12.7422 7.85144 12.7422 10.1852ZM14.672 10.1852C14.672 8.77896 15.6893 7.80656 16.931 7.80656C18.1727 7.80656 19.2049 8.77896 19.2049 10.1852C19.2049 11.6064 18.1727 12.5638 16.931 12.5638C15.6893 12.5638 14.672 11.6064 14.672 10.1852ZM23.0484 10.1852C23.0484 12.5339 24.9184 14.1795 27.2372 14.1795C29.556 14.1795 31.4409 12.5339 31.4409 10.1852C31.4409 7.85144 29.556 6.19088 27.2372 6.19088C24.9184 6.19088 23.0484 7.85144 23.0484 10.1852ZM24.9782 10.1852C24.9782 8.77896 25.9955 7.80656 27.2372 7.80656C28.4789 7.80656 29.5111 8.77896 29.5111 10.1852C29.5111 11.6064 28.4789 12.5638 27.2372 12.5638C25.9955 12.5638 24.9782 11.6064 24.9782 10.1852ZM33.3845 10.1852C33.3845 12.5489 34.7159 14.1795 36.7804 14.1795C38.5307 14.1795 39.174 12.863 39.174 12.863H39.2039C39.2039 12.863 39.174 12.9827 39.174 13.1323V13.4315C39.174 13.8055 39.3834 14 39.7873 14H40.3409C40.7448 14 40.9542 13.7906 40.9542 13.3717V4.00672C40.9542 3.6028 40.7448 3.3784 40.3409 3.3784H39.6826C39.2787 3.3784 39.0693 3.6028 39.0693 4.00672V6.84912C39.0693 7.08848 39.0992 7.28296 39.0992 7.28296H39.0693C39.0693 7.28296 38.5157 6.19088 36.8402 6.19088C34.8206 6.19088 33.3845 7.76168 33.3845 10.1852ZM35.2993 10.1852C35.2993 8.67424 36.182 7.82152 37.2142 7.82152C38.5008 7.82152 39.1141 8.9884 39.1141 10.1702C39.1141 11.8607 38.1866 12.5788 37.1993 12.5788C36.0773 12.5788 35.2993 11.6363 35.2993 10.1852ZM122.527 13.3717C122.527 13.7906 122.736 14 123.14 14H123.798C124.202 14 124.426 13.7906 124.426 13.3717V7.98608H125.444C125.848 7.98608 126.057 7.77664 126.057 7.35776V7.10344C126.057 6.69952 125.848 6.47512 125.444 6.47512H124.426V6.19088C124.426 5.08384 125.174 4.97912 125.638 4.9492C126.057 4.91928 126.282 4.73976 126.282 4.33584V3.94688C126.282 3.528 126.072 3.31856 125.668 3.31856H125.444C124.666 3.31856 122.527 3.69256 122.527 6.11608V6.47512H122.153C121.749 6.47512 121.539 6.69952 121.539 7.10344V7.35776C121.539 7.77664 121.749 7.98608 122.153 7.98608H122.527V13.3717ZM128.177 13.3717C128.177 13.7906 128.387 14 128.791 14H129.449C129.853 14 130.062 13.7906 130.062 13.3717V10.9182C130.062 9.52696 130.736 8.15064 132.127 8.15064C132.531 8.15064 132.77 7.92624 132.77 7.52232V6.93888C132.77 6.52 132.621 6.31056 132.202 6.31056C131.125 6.31056 130.287 7.32784 129.988 8.2404H129.958C129.958 8.2404 130.003 8.00104 130.003 7.7168V6.99872C130.003 6.5948 129.778 6.3704 129.374 6.3704H128.791C128.387 6.3704 128.177 6.5948 128.177 6.99872V13.3717ZM134.031 10.1852C134.031 12.5339 135.901 14.1795 138.22 14.1795C140.539 14.1795 142.424 12.5339 142.424 10.1852C142.424 7.85144 140.539 6.19088 138.22 6.19088C135.901 6.19088 134.031 7.85144 134.031 10.1852ZM135.961 10.1852C135.961 8.77896 136.978 7.80656 138.22 7.80656C139.462 7.80656 140.494 8.77896 140.494 10.1852C140.494 11.6064 139.462 12.5638 138.22 12.5638C136.978 12.5638 135.961 11.6064 135.961 10.1852ZM144.816 13.3717C144.816 13.7906 145.026 14 145.429 14H146.088C146.492 14 146.701 13.7906 146.701 13.3717V10.5742C146.701 9.30256 147.329 7.92624 148.676 7.92624C149.573 7.92624 149.693 8.62936 149.693 9.45216V13.3717C149.693 13.7906 149.917 14 150.321 14H150.98C151.384 14 151.593 13.7906 151.593 13.3717V10.5742C151.593 9.24272 152.251 7.92624 153.538 7.92624C154.42 7.92624 154.585 8.58448 154.585 9.45216V13.3717C154.585 13.7906 154.794 14 155.213 14H155.857C156.26 14 156.485 13.7906 156.485 13.3717V9.09312C156.485 7.08848 155.572 6.19088 153.987 6.19088C152.79 6.19088 151.787 6.9688 151.384 7.76168H151.354C151.039 6.72944 150.276 6.19088 149.125 6.19088C147.928 6.19088 147 7.05856 146.626 7.80656H146.596C146.596 7.80656 146.626 7.62704 146.626 7.46248V6.99872C146.626 6.5948 146.417 6.3704 146.013 6.3704H145.429C145.026 6.3704 144.816 6.5948 144.816 6.99872V13.3717ZM164.281 13.3717C164.281 13.7906 164.49 14 164.894 14H168.111C170.085 14 171.776 13.0426 171.776 10.9182C171.776 9.84112 171.222 8.764 170.07 8.41992V8.39C170.878 7.95616 171.357 7.10344 171.357 6.11608C171.357 4.36576 169.981 3.3784 168.066 3.3784H164.894C164.49 3.3784 164.281 3.6028 164.281 4.00672V13.3717ZM166.196 7.7168V5.03896H168.036C168.933 5.03896 169.382 5.59248 169.382 6.35544C169.382 7.1184 168.919 7.7168 168.081 7.7168H166.196ZM166.196 12.3394V9.27264H168.26C169.233 9.27264 169.801 9.91592 169.801 10.7986C169.801 11.6962 169.248 12.3394 168.26 12.3394H166.196ZM173.868 10.1852C173.868 12.3544 175.439 14.1795 177.967 14.1795C179.164 14.1795 180.062 13.7307 180.555 13.4166C180.885 13.2221 180.944 12.9229 180.765 12.5788L180.585 12.2796C180.391 11.9355 180.122 11.8906 179.748 12.0702C179.389 12.2946 178.805 12.5638 178.102 12.5638C176.95 12.5638 175.933 11.8458 175.813 10.4694H180.466C180.84 10.4694 181.124 10.1553 181.124 9.82616C181.124 7.73176 179.912 6.19088 177.743 6.19088C175.454 6.19088 173.868 7.83648 173.868 10.1852ZM175.858 9.31752C176.038 8.30024 176.726 7.62704 177.698 7.62704C178.566 7.62704 179.209 8.25536 179.239 9.31752H175.858ZM183.499 13.3717C183.499 13.7906 183.708 14 184.112 14H184.77C185.174 14 185.384 13.7906 185.384 13.3717V10.9182C185.384 9.52696 186.057 8.15064 187.448 8.15064C187.852 8.15064 188.091 7.92624 188.091 7.52232V6.93888C188.091 6.52 187.942 6.31056 187.523 6.31056C186.446 6.31056 185.608 7.32784 185.309 8.2404H185.279C185.279 8.2404 185.324 8.00104 185.324 7.7168V6.99872C185.324 6.5948 185.099 6.3704 184.696 6.3704H184.112C183.708 6.3704 183.499 6.5948 183.499 6.99872V13.3717ZM190.094 11.6214C190.094 13.8055 191.395 14.0748 192.413 14.0748C192.861 14.0748 193.041 13.8205 193.041 13.4315V12.9229C193.041 12.5788 192.846 12.4142 192.577 12.3843C192.293 12.3544 191.979 12.2198 191.979 11.4718V4.00672C191.979 3.6028 191.769 3.3784 191.365 3.3784H190.707C190.303 3.3784 190.094 3.6028 190.094 4.00672V11.6214ZM195.9 5.06888H196.559C196.963 5.06888 197.187 4.85944 197.187 4.45552V4.00672C197.187 3.6028 196.963 3.3784 196.559 3.3784H195.9C195.496 3.3784 195.287 3.6028 195.287 4.00672V4.45552C195.287 4.85944 195.496 5.06888 195.9 5.06888ZM195.287 13.3717C195.287 13.7906 195.496 14 195.9 14H196.559C196.963 14 197.172 13.7906 197.172 13.3717V6.99872C197.172 6.5948 196.963 6.3704 196.559 6.3704H195.9C195.496 6.3704 195.287 6.5948 195.287 6.99872V13.3717ZM200.056 13.3717C200.056 13.7906 200.266 14 200.67 14H201.328C201.732 14 201.941 13.7906 201.941 13.3717V10.4246C201.941 9.04824 202.794 7.92624 204.14 7.92624C205.098 7.92624 205.337 8.55456 205.337 9.48208V13.3717C205.337 13.7906 205.562 14 205.965 14H206.609C207.028 14 207.237 13.7906 207.237 13.3717V9.09312C207.237 7.07352 206.265 6.19088 204.574 6.19088C203.033 6.19088 202.196 7.16328 201.866 7.80656H201.836C201.836 7.80656 201.866 7.62704 201.866 7.46248V6.99872C201.866 6.5948 201.657 6.3704 201.253 6.3704H200.67C200.266 6.3704 200.056 6.5948 200.056 6.99872V13.3717Z" fill="#E5005B"/>
<path d="M49.1508 9.158L55.1268 11.912V9.68L51.6528 8.222L55.1268 6.782V4.55L49.1508 7.286V9.158ZM66.4633 9.59H63.8353V10.202C63.8353 11.012 63.3313 11.768 62.3773 11.768C61.4233 11.768 60.9913 11.012 60.9913 10.22L61.0093 4.982C61.0093 4.208 61.4593 3.434 62.3953 3.434C63.2953 3.434 63.7993 4.244 63.7993 5.108V5.558H66.4453V5.144C66.4453 2.876 64.9333 0.932 62.3953 0.932C59.8573 0.932 58.3633 2.84 58.3633 4.982V10.22C58.3633 12.38 59.8213 14.252 62.3773 14.252C64.9693 14.252 66.4633 12.38 66.4633 10.202V9.59ZM72.1477 3.92C69.8077 3.92 68.4397 5.522 68.4397 7.52V10.634C68.4397 12.632 69.8077 14.234 72.1477 14.234C74.4877 14.234 75.8557 12.632 75.8557 10.634V7.52C75.8557 5.522 74.4877 3.92 72.1477 3.92ZM73.4617 7.556V10.598C73.4617 11.336 72.9937 11.966 72.1477 11.966C71.3017 11.966 70.8337 11.336 70.8337 10.598V7.556C70.8337 6.818 71.3017 6.188 72.1477 6.188C72.9937 6.188 73.4617 6.818 73.4617 7.556ZM83.1962 1.22V4.55C82.7462 4.154 82.1702 3.92 81.4322 3.92C79.8842 3.92 78.2822 5 78.2822 7.538V10.634C78.2822 13.154 79.8842 14.234 81.5222 14.234C82.4042 14.234 83.0522 13.856 83.5022 13.208V14H85.5902V1.22H83.1962ZM83.1962 10.562C83.1962 11.354 82.7642 11.966 81.9542 11.966C81.1442 11.966 80.6762 11.336 80.6762 10.598V7.574C80.6762 6.818 81.1442 6.188 81.9542 6.188C82.7642 6.188 83.1962 6.818 83.1962 7.592V10.562ZM93.3447 10.724V10.742C93.3447 11.426 92.8407 11.966 91.9947 11.966C91.1307 11.966 90.6807 11.372 90.6807 10.598V9.896H95.6487V7.556C95.6487 5.522 94.2807 3.92 91.9407 3.92C89.6547 3.92 88.2867 5.522 88.2867 7.52V10.634C88.2867 12.668 89.6727 14.234 91.9947 14.234C94.3347 14.234 95.7207 12.722 95.7207 10.778V10.724H93.3447ZM91.9407 6.188C92.8047 6.188 93.2547 6.818 93.2547 7.592V7.808H90.6807V7.556C90.6807 6.818 91.1127 6.188 91.9407 6.188ZM104.123 0.0319996L96.9232 15.53H99.5692L106.769 0.0319996H104.123ZM114.938 9.158V7.286L108.962 4.55V6.782L112.436 8.222L108.962 9.68V11.912L114.938 9.158Z" fill="black"/>
</svg>
