<svg width="831" height="111" viewBox="0 0 831 111" fill="none" xmlns="http://www.w3.org/2000/svg">
<path fill-rule="evenodd" clip-rule="evenodd" d="M257.81 33.4723H239.045C236.293 33.4723 234.918 32.0968 234.918 29.4443V26.6927C234.918 24.0402 236.293 22.5664 239.045 22.5664H289.152C291.804 22.5664 293.18 24.0402 293.18 26.6927V29.4443C293.18 32.0968 291.804 33.4723 289.152 33.4723H270.386V88.2C270.386 90.9517 269.011 92.3273 266.26 92.3273H261.838C259.186 92.3273 257.81 90.9517 257.81 88.2V33.4723Z" fill="black"/>
<path fill-rule="evenodd" clip-rule="evenodd" d="M301.925 26.6929C301.925 24.0405 303.399 22.5667 306.051 22.5667H310.276C313.027 22.5667 314.402 24.0405 314.402 26.6929V46.9337C314.402 49.3901 314.108 51.1587 314.108 51.1587H314.304C316.761 46.3441 323.049 41.0383 331.695 41.0383C342.797 41.0383 349.183 46.8354 349.183 60.0995V88.2003C349.183 90.952 347.709 92.3275 345.056 92.3275H340.832C338.081 92.3275 336.705 90.952 336.705 88.2003V62.6542C336.705 56.5628 335.134 52.4355 328.846 52.4355C320.101 52.4355 314.402 59.5105 314.402 69.0408V88.2003C314.402 90.952 313.027 92.3275 310.276 92.3275H306.051C303.399 92.3275 301.925 90.952 301.925 88.2003V26.6929Z" fill="black"/>
<path fill-rule="evenodd" clip-rule="evenodd" d="M394.969 61.5731C394.772 54.5974 390.548 50.4702 384.849 50.4702C378.463 50.4702 373.943 54.8917 372.764 61.5731H394.969ZM385.144 41.0381C399.39 41.0381 407.348 51.1585 407.348 64.9138C407.348 67.0755 405.481 69.1389 403.025 69.1389H372.469C373.255 78.1784 379.936 82.8942 387.502 82.8942C392.119 82.8942 395.951 81.1261 398.309 79.6523C400.766 78.4727 402.534 78.768 403.811 81.0279L404.99 82.993C406.169 85.2524 405.776 87.2175 403.615 88.4953C400.372 90.5582 394.478 93.5059 386.618 93.5059C370.013 93.5059 359.697 81.5191 359.697 67.2725C359.697 51.8458 370.111 41.0381 385.144 41.0381Z" fill="black"/>
<path fill-rule="evenodd" clip-rule="evenodd" d="M471.211 57.2503C478.677 57.2503 482.902 52.534 482.902 45.2636C482.902 38.0909 478.677 33.4728 471.407 33.4728H459.322V57.2503H471.211ZM446.746 26.6932C446.746 24.0402 448.122 22.5664 450.774 22.5664H473.569C486.635 22.5664 495.773 31.7042 495.773 45.2636C495.773 58.8224 486.635 68.255 473.569 68.255H459.322V88.2005C459.322 90.9522 457.947 92.3273 455.294 92.3273H450.774C448.122 92.3273 446.746 90.9522 446.746 88.2005V26.6932Z" fill="black"/>
<path fill-rule="evenodd" clip-rule="evenodd" d="M505.499 46.344C505.499 43.6911 506.973 42.2173 509.625 42.2173H513.85C516.601 42.2173 517.976 43.6911 517.976 46.344V71.8902C517.976 77.9816 519.549 82.1088 525.738 82.1088C534.777 82.1088 539.788 74.1501 539.788 65.2087V46.344C539.788 43.6911 541.164 42.2173 543.914 42.2173H548.139C550.792 42.2173 552.265 43.6911 552.265 46.344V88.2002C552.265 90.9519 550.792 92.3274 548.139 92.3274H544.307C541.655 92.3274 540.279 90.9519 540.279 88.2002V85.2525C540.279 84.0739 540.475 82.9931 540.475 82.9931H540.279C537.921 88.1019 531.437 93.506 522.889 93.506C512.18 93.506 505.499 88.1019 505.499 74.4448V46.344Z" fill="black"/>
<path fill-rule="evenodd" clip-rule="evenodd" d="M563.073 88.0042C563.073 85.9408 563.564 84.9582 564.842 83.3861L585.573 57.447C587.931 54.5976 589.797 52.8285 589.797 52.8285V52.6324C589.797 52.6324 588.422 52.8285 585.18 52.8285H568.182C565.431 52.8285 564.056 51.3546 564.056 48.7022V46.344C564.056 43.6911 565.431 42.2173 568.182 42.2173H602.57C605.222 42.2173 606.696 43.3964 606.696 45.558V46.5406C606.696 48.6039 606.205 49.5865 604.928 51.1586L584.197 77.196C581.937 80.0454 579.874 81.8135 579.874 81.8135V82.0105C579.874 82.0105 581.348 81.7158 584.59 81.7158H603.257C606.008 81.7158 607.384 83.1896 607.384 85.8425V88.2002C607.384 90.9518 606.008 92.3274 603.257 92.3274H567.2C564.547 92.3274 563.073 91.1479 563.073 88.9867V88.0042Z" fill="black"/>
<path fill-rule="evenodd" clip-rule="evenodd" d="M615.146 88.0042C615.146 85.9408 615.637 84.9582 616.915 83.3861L637.645 57.447C640.003 54.5976 641.869 52.8285 641.869 52.8285V52.6324C641.869 52.6324 640.494 52.8285 637.252 52.8285H620.255C617.504 52.8285 616.128 51.3546 616.128 48.7022V46.344C616.128 43.6911 617.504 42.2173 620.255 42.2173H654.642C657.295 42.2173 658.768 43.3964 658.768 45.558V46.5406C658.768 48.6039 658.277 49.5865 657 51.1586L636.269 77.196C634.009 80.0454 631.946 81.8135 631.946 81.8135V82.0105C631.946 82.0105 633.42 81.7158 636.662 81.7158H655.33C658.081 81.7158 659.456 83.1896 659.456 85.8425V88.2002C659.456 90.9518 658.081 92.3274 655.33 92.3274H619.272C616.619 92.3274 615.146 91.1479 615.146 88.9867V88.0042Z" fill="black"/>
<path fill-rule="evenodd" clip-rule="evenodd" d="M670.559 26.6929C670.559 24.0405 671.935 22.5667 674.587 22.5667H678.91C681.563 22.5667 682.938 24.0405 682.938 26.6929V75.7223C682.938 80.6351 685.002 81.5194 686.868 81.7159C688.637 81.9119 689.914 82.9932 689.914 85.2526V88.5933C689.914 91.148 688.735 92.8188 685.788 92.8188C679.106 92.8188 670.559 91.0497 670.559 76.7048V26.6929Z" fill="black"/>
<path fill-rule="evenodd" clip-rule="evenodd" d="M732.259 61.5731C732.063 54.5974 727.838 50.4702 722.139 50.4702C715.753 50.4702 711.234 54.8917 710.055 61.5731H732.259ZM722.434 41.0381C736.68 41.0381 744.639 51.1585 744.639 64.9138C744.639 67.0755 742.772 69.1389 740.316 69.1389H709.76C710.546 78.1784 717.227 82.8942 724.792 82.8942C729.41 82.8942 733.242 81.1261 735.6 79.6523C738.056 78.4727 739.824 78.768 741.101 81.0279L742.281 82.993C743.46 85.2524 743.067 87.2175 740.906 88.4953C737.663 90.5582 731.768 93.5059 723.908 93.5059C707.304 93.5059 696.987 81.5191 696.987 67.2725C696.987 51.8458 707.402 41.0381 722.434 41.0381Z" fill="black"/>
<path fill-rule="evenodd" clip-rule="evenodd" d="M755.642 46.344C755.642 43.6911 757.017 42.2172 759.67 42.2172H763.502C766.154 42.2172 767.628 43.6911 767.628 46.344V51.0603C767.628 52.9267 767.333 54.4993 767.333 54.4993H767.53C769.495 48.5051 774.997 41.8242 782.071 41.8242C784.822 41.8242 785.804 43.1998 785.804 45.951V49.783C785.804 52.4354 784.232 53.9092 781.58 53.9092C772.442 53.9092 768.021 62.9488 768.021 72.0866V88.2001C768.021 90.9518 766.645 92.3274 763.993 92.3274H759.67C757.017 92.3274 755.642 90.9518 755.642 88.2001V46.344Z" fill="black"/>
<path fill-rule="evenodd" clip-rule="evenodd" d="M794.255 82.7965L795.433 81.0278C796.907 78.9645 798.578 78.7684 801.034 80.0453C803.392 81.3231 807.125 83.4842 812.234 83.4842C816.557 83.4842 819.21 81.5191 819.21 78.3754C819.21 70.2197 794.352 73.2661 794.352 56.0718C794.352 46.2462 802.999 41.0386 813.511 41.0386C820.192 41.0386 824.81 43.1997 827.463 44.6736C829.722 45.8531 830.017 47.9165 828.937 50.1764L827.954 51.9445C826.775 54.3027 824.908 54.5979 822.452 53.5166C820.291 52.5341 817.048 51.0602 812.922 51.0602C808.599 51.0602 806.143 52.8288 806.143 55.973C806.143 64.2265 831 60.9846 831 78.0802C831 86.9232 823.533 93.5064 811.939 93.5064C803.883 93.5064 798.282 90.4609 795.237 88.3971C792.977 87.1202 792.781 84.9581 794.255 82.7965Z" fill="black"/>
<path fill-rule="evenodd" clip-rule="evenodd" d="M22.0663 22.0678C24.0475 20.0864 26.0263 18.276 27.9992 16.6072C62.9053 -12.9203 95.8616 4.71817 101.817 10.674C108.109 16.9663 108.109 27.1687 101.817 33.4615L33.459 101.822C27.167 108.115 16.9656 108.115 10.6731 101.822C4.71762 95.8665 -12.9194 62.9089 16.6065 28.001C18.2753 26.028 20.085 24.0486 22.0663 22.0678ZM164.911 82.9965C163.242 84.969 161.432 86.9484 159.451 88.9297C157.47 90.911 155.491 92.7209 153.518 94.3898C118.612 123.917 85.6556 106.279 79.7001 100.323C73.4081 94.0307 73.4081 83.8287 79.7001 77.5359L148.058 9.17469C154.35 2.88187 164.552 2.88187 170.844 9.17469C176.8 15.1305 194.437 48.0886 164.911 82.9965Z" fill="#E5005B"/>
</svg>
