<svg width="76" height="84" viewBox="0 0 76 84" fill="none" xmlns="http://www.w3.org/2000/svg"><path fill-rule="evenodd" clip-rule="evenodd" d="M.575725 72.7003C-.638172 65.8184-.596965 27.8043 7.48 6.08708c3.3118-8.90343 18.7472-9.03006 13.6571 6.29622C17.058 24.6642 4.16769 62.5527 8.21863 66.4082c4.71147 4.481 13.02477-23.5335 17.03957-31.7416 4.0625-8.3074 11.7938-22.1731 17.3839-29.04284 5.3375-6.56058 19.4878-.15212 15.9639 9.11644-3.1504 8.2901-12.1412 15.4412-19.0293 24.1567-13.2324 16.7408-25.2444 31.9003-19.7062 31.4664 5.5365-.4334 36.0483-35.1666 45.3902-38.5902 6.8662-2.5186 14.8737 5.2934 8.2808 13.2317C63.1944 57.47 37.7676 74.0427 22.9207 80.1115 3.8844 87.8937 2.43679 83.2635.575725 72.7003z" fill="#00615D"/></svg>