<svg width="200" height="291" viewBox="0 0 200 291" fill="none" xmlns="http://www.w3.org/2000/svg">
<g clip-path="url(#clip0)">
<path d="M134.283 166.173C127.474 124.985 94.8534 112.834 94.5367 112.676C93.9033 112.36 93.1115 112.676 92.6364 113.307C92.1614 113.938 92.3197 114.727 92.7948 115.201C103.88 127.983 103.563 135.874 103.404 142.975C103.246 148.025 103.088 152.759 107.68 157.651C110.53 160.808 113.856 160.808 117.181 160.808C118.765 160.808 120.348 160.808 122.09 161.281C125.099 162.07 130.166 166.015 131.75 167.436C132.066 167.751 132.383 167.909 132.858 167.909C133.175 167.909 133.333 167.909 133.65 167.751C133.967 167.593 134.283 166.962 134.283 166.173Z" fill="#A9DEDA"/>
<path d="M76.8011 180.849C76.1677 180.849 75.5343 180.691 75.0592 180.534C70.7837 178.64 66.1914 168.856 64.7663 161.281C63.6578 154.968 64.4495 150.234 67.2999 147.551C72.2088 142.817 76.4844 145.658 78.543 147.078C78.8597 147.394 79.3347 147.709 79.6514 147.867C79.9682 147.709 80.6016 147.236 80.9183 146.92C83.1352 145.184 88.3609 141.239 93.5865 147.236C98.6538 153.075 94.3783 163.49 88.6776 171.381C85.9856 175.01 81.0766 180.849 76.8011 180.849ZM73.0006 151.181C72.6839 151.181 72.3672 151.497 71.7338 151.97C70.7837 152.917 70.3086 155.284 70.6253 158.44C71.4171 165.226 75.2176 172.643 77.1178 174.379C79.8098 172.959 86.619 165.384 89.1526 157.651C89.6277 155.915 90.4195 152.759 89.1526 151.339C88.0442 149.919 87.7275 149.761 85.0355 151.97C83.2936 153.233 81.235 154.968 78.543 154.179C77.2761 153.706 76.1677 153.075 75.2176 152.286C73.9507 151.497 73.4757 151.181 73.0006 151.181Z" fill="#A9DEDA"/>
<path d="M139.984 198.208V196.946C139.826 193.158 138.876 180.376 129.849 173.59C124.465 169.487 117.656 168.54 109.422 170.434C87.5692 175.799 73.4757 194.105 70.7837 209.571C69.5169 217.303 71.5755 224.247 76.8011 229.612C83.1353 235.925 93.2699 238.923 98.8122 237.976C99.4456 237.818 100.079 237.818 100.712 237.661C95.1701 241.764 88.6776 246.34 81.7101 251.074C70.6254 258.649 65.3997 269.538 68.2501 278.849C70.6254 286.424 77.7513 290.842 87.2524 291C87.2524 291 87.2524 291 87.4108 291C94.8534 291 98.0205 287.055 99.2873 284.845C101.504 280.9 101.188 276.166 99.604 273.641C95.0118 266.224 92.4781 258.018 106.413 248.707C140.934 225.825 140.301 207.835 139.984 198.208ZM114.806 218.723C109.897 220.144 105.621 220.775 101.821 220.775C92.003 220.775 85.3522 216.672 82.1851 212.253C80.4433 209.886 79.8098 207.046 80.4433 204.521C81.3934 200.575 84.7188 196.788 90.1028 193.947C97.8621 189.529 110.847 186.373 121.457 191.423C126.682 193.947 129.691 198.84 129.216 204.205C128.583 210.675 123.199 216.199 114.806 218.723Z" fill="#A9DEDA"/>
<path d="M121.298 191.265C110.689 186.215 97.7038 189.371 89.9445 193.79C84.5605 196.788 81.2351 200.576 80.285 204.363C79.6516 207.046 80.285 209.728 82.0269 212.096C85.1939 216.514 91.8448 220.617 101.663 220.617C105.463 220.617 109.897 219.986 114.648 218.566C123.199 216.041 128.424 210.518 129.058 203.89C129.533 198.682 126.524 193.79 121.298 191.265ZM114.331 217.145C98.0205 222.038 87.5692 217.303 83.452 211.307C79.3349 205.31 83.6104 199.313 90.8946 195.21C98.1789 191.107 110.53 187.793 120.823 192.685C130.8 197.735 130.483 212.253 114.331 217.145Z" fill="#A9DEDA"/>
<path d="M120.665 192.685C110.372 187.793 98.1786 191.107 90.736 195.21C83.4518 199.313 79.1763 205.468 83.2934 211.306C87.4106 217.303 98.0203 222.038 114.172 217.145C130.483 212.253 130.799 197.735 120.665 192.685ZM113.856 215.725C98.337 220.459 88.5191 215.883 84.7186 210.517C83.4518 208.782 83.1351 207.046 83.4518 205.31C84.0852 202.311 87.0939 199.155 91.5278 196.788C98.6537 192.843 110.372 189.844 119.873 194.421C123.832 196.315 126.207 199.944 125.89 204.047C125.574 209.097 120.982 213.516 113.856 215.725Z" fill="#A9DEDA"/>
<path fill-rule="evenodd" clip-rule="evenodd" d="M138.084 167.278C138.084 167.278 162.154 163.332 154.711 145.658C154.553 145.658 133.492 147.867 138.084 167.278Z" fill="#A9DEDA"/>
<path d="M138.084 168.856C137.292 168.856 136.658 168.382 136.5 167.593C135.075 161.597 135.867 156.547 138.717 152.444C143.943 145.184 153.919 143.922 154.394 143.922C155.027 143.922 155.819 144.238 155.978 144.869C158.036 149.919 158.036 154.337 155.978 158.283C151.385 166.489 138.717 168.698 138.242 168.698C138.242 168.856 138.084 168.856 138.084 168.856ZM153.602 147.394C150.91 147.867 144.734 149.603 141.409 154.337C139.35 157.336 138.559 160.965 139.35 165.384C142.676 164.595 150.277 162.228 153.286 156.862C154.711 154.18 154.869 151.023 153.602 147.394Z" fill="#A9DEDA"/>
<path d="M28.5035 88.0574C28.3451 87.584 23.9112 75.5905 14.8851 72.5921C10.6096 71.1718 6.17568 71.9609 1.7418 74.9593C1.10838 75.2749 0.950031 76.0639 1.10838 76.6952C1.26674 77.1686 4.27545 86.795 12.3515 90.4246C14.41 91.3714 16.627 91.8448 19.0023 91.8448C21.6943 91.8448 24.703 91.2136 27.7117 89.7933C28.3451 89.6355 28.8202 88.8465 28.5035 88.0574Z" fill="#A9DEDA"/>
<path d="M45.289 231.506C43.072 232.926 42.597 235.925 44.0221 238.134C44.8139 239.239 45.764 239.87 47.0308 240.028C48.2977 240.185 49.5645 240.028 50.673 239.239C52.8899 237.818 53.365 234.82 51.9398 232.611C50.3563 230.559 47.3475 230.086 45.289 231.506Z" fill="#A9DEDA"/>
<path d="M43.3889 228.981C39.7468 231.506 38.955 236.398 41.3303 240.028C42.5972 241.764 44.3391 242.868 46.3976 243.342C46.8727 243.5 47.3478 243.5 47.8228 243.5C49.4064 243.5 50.9899 243.026 52.4151 242.079C56.0572 239.554 56.849 234.662 54.4737 231.033C51.94 227.403 47.0311 226.456 43.3889 228.981ZM51.6233 240.659C48.7729 242.71 44.8141 241.921 42.7555 239.081C40.6969 236.24 41.4887 232.295 44.3391 230.244C47.1894 228.192 51.1482 228.981 53.2068 231.822C55.1071 234.662 54.4736 238.607 51.6233 240.659Z" fill="#A9DEDA"/>
<path d="M44.3391 230.244C41.4888 232.295 40.697 236.24 42.7556 239.081C44.8142 241.921 48.773 242.71 51.6233 240.659C54.4737 238.607 55.2655 234.662 53.2069 231.822C51.1483 228.981 47.1895 228.192 44.3391 230.244ZM50.6732 239.396C49.5648 240.186 48.2979 240.343 47.0311 240.186C45.7643 240.028 44.6558 239.239 44.0224 238.292C42.5972 236.082 43.0723 233.242 45.2892 231.664C47.5062 230.244 50.3565 230.717 51.9401 232.926C53.3652 234.978 52.8902 237.818 50.6732 239.396Z" fill="#A9DEDA"/>
<path d="M64.2915 242.553C63.9748 242.237 63.6581 241.922 63.183 241.922C62.7079 241.922 62.2329 241.922 61.7578 242.237C60.9661 242.868 60.6493 243.815 61.2828 244.604C61.7578 245.393 62.8663 245.551 63.6581 244.92C64.6082 244.289 64.7665 243.184 64.2915 242.553Z" fill="#A9DEDA"/>
<path d="M65.5585 247.445C67.7754 245.867 68.4088 242.868 66.8253 240.659C66.0335 239.554 64.925 238.923 63.6582 238.608C62.3914 238.45 61.1246 238.765 60.0161 239.397C57.7992 240.975 57.1657 243.973 58.7493 246.182C59.6994 247.445 61.1246 248.234 62.7081 248.234C63.6582 248.392 64.7667 248.076 65.5585 247.445ZM60.0161 245.393C59.066 243.973 59.3827 241.922 60.9662 240.817C62.5497 239.712 64.6083 240.028 65.5585 241.606C66.5086 243.184 66.1919 245.078 64.6083 246.182C63.1832 247.287 61.1246 246.972 60.0161 245.393Z" fill="#A9DEDA"/>
<path d="M64.7668 246.182C66.3504 245.078 66.6671 243.026 65.7169 241.606C64.7668 240.186 62.5499 239.87 61.1247 240.817C59.5412 241.922 59.2245 243.973 60.1746 245.393C61.1247 246.971 63.1833 247.287 64.7668 246.182ZM61.4414 244.604C60.9663 243.815 61.1247 242.711 61.9165 242.237C62.3915 241.922 62.8666 241.922 63.3416 241.922C63.8167 241.922 64.1334 242.237 64.4501 242.553C64.9252 243.342 64.7668 244.446 63.9751 244.92C63.0249 245.393 61.9165 245.236 61.4414 244.604Z" fill="#A9DEDA"/>
<path d="M65.3999 256.913C65.2415 256.913 65.2415 256.913 65.0832 256.913C64.9248 257.071 64.9248 257.229 64.9248 257.229C64.9248 257.229 64.9248 257.387 64.9248 257.545C65.0832 257.702 65.2415 257.702 65.3999 257.545C65.5582 257.387 65.5582 257.387 65.5582 257.229C65.5582 257.229 65.5582 257.071 65.5582 256.913C65.5582 257.071 65.3999 256.913 65.3999 256.913Z" fill="#A9DEDA"/>
<path d="M68.2501 255.335C67.7751 254.546 66.825 254.073 66.0332 253.915C65.0831 253.757 64.1329 253.915 63.3412 254.546C62.5494 255.02 62.0744 255.966 61.916 256.755C61.7576 257.702 61.916 258.649 62.5494 259.438C63.1828 260.385 64.2913 261.016 65.3998 261.016C66.1915 261.016 66.8249 260.858 67.4584 260.385C68.2501 259.754 68.7252 258.965 69.0419 258.018C69.0419 256.913 68.7252 255.966 68.2501 255.335ZM66.3499 258.965C65.3998 259.596 64.1329 259.438 63.6579 258.491C63.0245 257.544 63.3412 256.44 64.1329 255.809C65.0831 255.177 66.3499 255.335 66.825 256.282C67.6167 257.071 67.3 258.334 66.3499 258.965Z" fill="#A9DEDA"/>
<path d="M64.1334 255.651C63.1833 256.282 63.025 257.544 63.6584 258.333C64.2918 259.28 65.5586 259.438 66.3504 258.807C67.1421 258.176 67.4588 256.913 66.8254 256.124C66.3504 255.335 65.0835 255.02 64.1334 255.651ZM65.717 257.387C65.717 257.387 65.717 257.544 65.5586 257.702C65.4003 257.86 65.0835 257.86 65.0835 257.702C65.0835 257.544 65.0835 257.544 65.0835 257.387C65.0835 257.387 65.0835 257.229 65.2419 257.071C65.4003 257.071 65.4003 256.913 65.5586 256.913C65.5586 256.913 65.717 256.913 65.717 257.071C65.717 257.229 65.717 257.229 65.717 257.387Z" fill="#A9DEDA"/>
<path d="M134.6 105.732C135.234 102.576 134.6 99.262 132.858 96.5793C131.116 93.8965 128.108 92.1606 124.941 91.6872C121.774 91.2138 118.448 92.0028 115.756 93.8965C113.064 95.7902 111.164 98.6308 110.531 101.787C109.897 104.943 110.531 108.257 112.272 110.94C114.173 113.623 117.023 115.359 120.19 115.832C120.824 115.99 121.457 115.99 121.932 115.99C124.466 115.99 127.158 115.201 129.375 113.623C132.067 111.729 133.967 108.888 134.6 105.732ZM128.424 104.47C128.108 106.048 127.158 107.468 125.732 108.415C124.307 109.362 122.724 109.835 121.14 109.52C119.557 109.362 118.29 108.573 117.498 107.31C116.706 106.048 116.39 104.628 116.706 103.049C117.023 101.471 117.973 100.051 119.398 99.1042C120.507 98.3152 121.774 97.8417 123.199 97.8417C123.516 97.8417 123.832 97.8417 124.149 97.8417C125.732 97.9996 126.999 98.7886 127.791 100.051C128.583 101.314 128.741 102.892 128.424 104.47Z" fill="#A9DEDA"/>
<path d="M141.41 116.463C140.618 115.043 139.193 114.096 137.451 113.781C135.867 113.465 134.125 113.781 132.542 114.727C129.375 116.621 128.266 120.566 130.008 123.407C131.117 125.301 133.175 126.248 135.234 126.248C136.501 126.248 137.767 125.932 138.876 125.301C142.043 123.249 143.151 119.304 141.41 116.463Z" fill="#A9DEDA"/>
<path d="M133.809 131.928C132.7 132.244 131.592 132.875 130.958 133.822C130.325 134.769 130.008 136.031 130.325 137.136C130.8 139.188 132.542 140.45 134.6 140.45C134.917 140.45 135.234 140.45 135.709 140.292C136.817 139.977 137.926 139.345 138.559 138.399C139.193 137.452 139.509 136.189 139.193 135.085C138.718 132.875 136.342 131.455 133.809 131.928Z" fill="#A9DEDA"/>
<path d="M199.366 119.304C198.575 116.305 194.933 113.78 188.757 115.358C186.382 115.99 182.581 118.199 178.622 122.144C178.147 117.41 176.722 114.096 175.297 112.676C171.021 108.888 165.954 109.677 163.262 112.36C161.362 114.412 160.57 117.726 162.945 120.882C162.787 120.882 162.787 121.039 162.629 121.039C161.203 121.986 158.353 124.196 159.937 127.51C160.887 129.246 162.154 130.508 163.104 131.455C164.212 132.402 164.687 133.033 164.846 133.664C164.529 133.822 164.212 133.98 164.054 133.98C162.787 134.453 160.887 135.085 160.412 136.978C160.095 138.241 160.57 139.503 161.837 141.081C166.271 146.605 163.579 153.864 163.579 154.022C163.262 154.811 163.579 155.6 164.212 155.915C164.37 156.073 164.687 156.073 164.846 156.073C165.004 156.073 165.004 156.231 165.162 156.231C165.321 156.231 165.479 156.231 165.479 156.231C166.112 156.231 166.746 155.915 166.904 155.284C166.904 155.284 170.23 147.709 178.781 144.711C180.364 144.237 182.423 143.291 182.898 141.397C183.373 139.819 182.264 138.556 181.631 137.609C181.631 137.452 181.473 137.452 181.473 137.294C182.423 136.505 183.69 136.189 185.273 135.874C186.857 135.4 188.757 135.085 190.815 133.98C194.616 131.928 193.666 128.772 193.191 127.51V127.352C198.416 125.774 200.158 121.986 199.366 119.304Z" fill="#A9DEDA"/>
<path d="M83.1352 111.256C82.8185 111.256 82.3434 111.256 82.0267 111.098C81.3933 110.94 66.5081 105.259 59.8573 91.845C57.3236 86.7951 57.1653 81.2718 59.2239 76.5375C61.1241 72.2767 64.6079 68.8049 68.5667 67.7002C72.5255 66.4377 76.4844 67.069 79.9681 69.1205C83.6102 71.3298 85.9855 75.1172 86.619 79.3781C87.2524 83.4811 86.4606 87.2685 84.2437 89.9513C82.5018 92.1606 79.9681 93.4231 77.1178 93.5809C71.4171 93.8965 68.5667 89.4778 67.9333 87.1107C67.4582 85.3748 68.4083 83.4811 70.3086 83.0077C72.0505 82.5342 73.9507 83.4811 74.4258 85.3748C74.5841 86.006 75.2175 87.1107 76.8011 86.9529C77.5928 86.9529 78.3846 86.4795 79.018 85.8482C79.9681 84.7436 80.2848 82.8499 79.9681 80.6405C79.6514 78.2734 78.2262 76.2219 76.326 75.1172C74.5841 74.0126 72.5255 73.8547 70.4669 74.3282C68.8834 74.8016 66.6665 76.6953 65.3996 79.3781C64.4495 81.4296 63.8161 84.9014 65.8747 89.0044C71.417 100.051 84.0853 104.943 84.2437 104.943C85.9855 105.574 86.9357 107.468 86.1439 109.204C85.8272 110.466 84.5604 111.256 83.1352 111.256Z" fill="#A9DEDA"/>
<path d="M52.0984 17.3591C50.6732 16.0966 48.9313 17.3591 47.5062 18.4637C44.3391 20.9887 41.4887 22.5668 37.6883 18.4637C36.1047 16.7278 34.5212 15.9388 32.9377 15.9388C31.8292 15.9388 30.7207 16.4122 29.929 17.2013C28.3454 18.7793 27.8704 22.0933 30.404 25.4073L30.8791 26.0386C33.4127 29.3526 35.788 32.3509 39.5885 32.6665C39.7469 32.6665 40.0636 32.6665 40.2219 32.6665C42.9139 32.6665 45.7643 31.2463 49.2481 28.0901C52.5735 25.0917 54.157 22.8824 54.157 20.8309C54.157 19.2528 52.8902 18.1481 52.0984 17.3591Z" fill="#A9DEDA"/>
<path d="M36.1046 6.62796C37.6881 7.57481 38.6383 8.52167 39.43 9.31071C40.8552 10.5732 41.8053 11.3622 43.2305 11.3622C44.4973 11.3622 45.9225 10.731 47.9811 9.46852C50.9898 7.417 52.89 5.83891 52.5733 3.9452C52.0983 1.89369 49.4063 1.26245 46.5559 0.631213C44.1806 0.157786 35.1545 -0.631259 33.7293 2.68273C33.2543 3.9452 34.046 5.20768 36.1046 6.62796Z" fill="#A9DEDA"/>
<path d="M142.043 223.142C141.568 223.142 141.251 222.984 140.934 222.827C139.826 222.195 139.351 220.775 140.143 219.67C146.477 208.782 144.577 198.051 144.577 197.893C144.418 196.63 145.21 195.368 146.477 195.21C147.744 195.052 149.01 195.841 149.169 197.104C149.327 197.577 151.386 209.571 144.102 222.038C143.785 222.827 142.993 223.142 142.043 223.142Z" fill="#A9DEDA"/>
<path d="M150.435 220.144C149.96 220.144 149.644 219.986 149.327 219.828C148.219 219.197 147.743 217.777 148.535 216.672C151.069 212.253 151.544 207.835 151.544 207.835C151.702 206.572 152.811 205.625 154.078 205.783C155.344 205.941 156.295 207.046 156.136 208.308C156.136 208.466 155.661 213.674 152.494 219.039C152.177 219.67 151.386 220.144 150.435 220.144Z" fill="#A9DEDA"/>
<path d="M64.9247 109.204C63.8162 107.941 62.7077 106.837 61.5993 105.732C51.148 94.8433 45.9223 89.4778 26.6032 98.3151C-9.56845e-05 110.624 -5.54246 116.779 5.0672 143.291C10.9263 158.125 22.1693 156.231 30.2454 154.811C33.8875 154.18 37.5296 153.548 39.1131 154.811C43.072 157.809 45.764 159.229 47.9809 159.229C48.456 159.229 48.931 159.072 49.4061 158.914C51.7814 157.967 52.2564 155.284 52.8899 152.601C53.5233 149.287 54.1567 146.92 56.2153 146.289C63.3412 144.08 69.3586 137.61 71.2588 130.035C73.0007 122.776 70.7838 115.359 64.9247 109.204ZM41.3301 142.028C32.3039 144.553 23.4362 144.238 18.0522 141.397C15.8352 140.135 14.5684 138.714 14.0933 136.821C12.3514 130.35 21.6943 121.829 34.6792 118.041C43.7054 115.516 52.5731 115.832 57.9571 118.672C60.1741 119.935 61.4409 121.355 61.916 123.249C63.6579 129.719 54.315 138.241 41.3301 142.028Z" fill="#A9DEDA"/>
<path fill-rule="evenodd" clip-rule="evenodd" d="M13.7767 50.0256C11.8764 45.1335 18.5273 38.8211 27.0783 37.243C35.6294 35.8227 41.0134 65.6487 41.6468 65.333C42.4386 65.1752 42.4386 56.3379 48.7727 41.3461C53.84 29.3526 60.4908 20.8309 70.1504 27.6167C77.4346 32.6666 82.3436 35.8227 80.1266 41.8195C78.3848 46.5538 53.6817 56.4957 47.3475 84.1123C46.5558 87.2685 35.3127 87.7419 34.8376 83.7967C31.3539 58.7051 15.8353 55.2333 13.7767 50.0256Z" fill="#A9DEDA"/>
<path d="M165.954 198.997C160.887 198.997 156.453 198.051 153.444 195.21C149.168 191.423 148.377 184.952 151.227 176.273C153.444 169.014 157.403 164.911 162.629 163.806C169.121 162.543 177.355 166.173 187.173 174.537C194.141 180.534 199.366 186.688 199.525 187.004C200 187.635 200.158 188.424 200 189.055C199.842 189.687 199.366 190.476 198.575 190.634C192.874 193.158 177.83 198.997 165.954 198.997ZM165.321 168.382C164.687 168.382 164.212 168.382 163.579 168.54C160.095 169.171 157.561 172.17 155.819 177.693C153.761 184.479 153.919 189.213 156.769 191.58C162.312 196.63 178.781 193.316 193.666 187.477C187.173 180.534 174.347 168.382 165.321 168.382Z" fill="#A9DEDA"/>
<path d="M168.488 190.949C167.854 190.949 167.221 190.949 166.587 190.791C164.212 190.318 161.995 188.897 160.728 187.004C159.303 184.952 158.828 182.585 159.303 180.218C160.253 175.326 165.162 172.17 170.23 173.274C175.297 174.221 178.622 179.113 177.514 184.005C176.564 187.951 172.763 190.949 168.488 190.949ZM168.329 177.693C166.271 177.693 164.37 179.113 164.054 181.007C163.895 182.112 164.054 183.216 164.687 184.163C165.321 185.11 166.429 185.741 167.538 186.057C169.913 186.53 172.288 185.11 172.763 182.743C173.238 180.534 171.655 178.166 169.279 177.693C168.804 177.693 168.646 177.693 168.329 177.693Z" fill="#A9DEDA"/>
</g>
<defs>
<clipPath id="clip0">
<rect width="200" height="291" fill="white"/>
</clipPath>
</defs>
</svg>
