<svg width="23" height="23" viewBox="0 0 23 23" fill="none" xmlns="http://www.w3.org/2000/svg">
<path d="M0.469214 22.2742C-0.116572 21.6884 -0.159743 20.7819 0.372791 20.2493L19.6575 0.964588C20.1901 0.432054 21.0966 0.475225 21.6824 1.06101C22.2682 1.6468 22.3114 2.55337 21.7788 3.08591L2.49411 22.3706C1.96158 22.9032 1.055 22.86 0.469214 22.2742Z" fill="#EDFDFB"/>
<path d="M0.469232 1.27421C1.05502 0.688428 1.9616 0.645258 2.49413 1.17779L21.7789 20.4625C22.3114 20.9951 22.2682 21.9016 21.6824 22.4874C21.0966 23.0732 20.1901 23.1164 19.6575 22.5838L0.372808 3.29911C-0.159725 2.76658 -0.116555 1.86 0.469232 1.27421Z" fill="#EDFDFB"/>
</svg>
