<svg width="24" height="80" viewBox="0 0 24 80" fill="none" xmlns="http://www.w3.org/2000/svg">
<path fill-rule="evenodd" clip-rule="evenodd" d="M8.28095 0.494255C2.18594 2.00438 0.387396 7.67392 0.424978 14.6361C0.543093 37.1771 2.9859 69.7001 4.15363 74.7783C4.95359 78.2526 7.97226 80.3846 10.7158 79.9422C13.1062 79.5568 15.9558 77.0344 16.3115 70.3265C16.4886 66.9934 15.7961 62.7578 15.329 57.8983C14.674 51.0606 14.4995 42.8987 18.4563 34.2945C22.7111 25.0401 24.1312 15.9546 22.7715 9.64241C22.0065 6.096 20.3703 3.36512 17.9839 1.73071C15.5773 0.0827294 12.3559 -0.515093 8.28095 0.494255ZM9.2017 4.21005C11.9734 3.52337 14.1841 3.76833 15.8216 4.88935C17.4779 6.02393 18.4979 7.98732 19.0294 10.4489C20.2589 16.1522 18.8214 24.3338 14.9773 32.6954C10.6916 42.0193 10.8084 50.8541 11.5184 58.2635C11.964 62.9018 12.6579 66.942 12.4888 70.1234C12.3694 72.3753 11.968 73.985 11.3506 75.0535C10.9842 75.6877 10.5829 76.0862 10.1064 76.163C9.69432 76.2296 9.29029 76.0355 8.944 75.7447C8.44067 75.3228 8.05953 74.678 7.88504 73.9199C6.73341 68.9129 4.36842 36.8418 4.25299 14.6161C4.24091 12.4357 4.39656 10.39 4.91197 8.64689C5.55758 6.46216 6.80986 4.80277 9.2017 4.21005Z" fill="#FDA700"/>
</svg>
