<svg width="34" height="93" viewBox="0 0 34 93" fill="none" xmlns="http://www.w3.org/2000/svg"><path fill-rule="evenodd" clip-rule="evenodd" d="M8.42784 46.6906l-.01756.0074c-2.583.9749-4.83546 2.5528-5.84765 4.9646l-.00194.0032c-.87006 2.0793-1.17215 5.3593 1.87388 10.3417 7.05813 11.5351 3.11926 24.9292 3.11926 24.9292l.00066.0026c-.67481 2.2977.43833 4.7188 2.63491 5.673 0 0 .0007.0026.0033.0019 2.1119.9166 4.6103.1526 5.8713-1.7901 17.5688-27.061 19.4734-52.9602 17.1239-68.5105-1.1315-7.4836-3.369-12.76805-5.3066-15.18612l-.0007-.00256c-7.2919-9.08959-15.863-8.33035-20.79086-4.09858C2.74337 6.75434.50023 14.0387 4.64226 21.7854l-.37573.3318C2.43776 23.7218.817918 25.7707.23408 28.4429c-.39969 1.8343-.355797 4.0096.672702 6.6198 1.576238 4.0129 3.907988 6.7741 5.888958 9.3171 0 0 .00001 0 .00327.0019.61089.7853 1.22871 1.5005 1.62883 2.3089zm5.41386 37.0431c.7356-5.7485.8698-15.7167-4.6453-24.7263-1.54557-2.5248-1.91934-4.061-1.47688-5.1149.42631-1.0195 1.55399-1.4526 2.64528-1.865.7163-.272 1.4366-.5068 2.0461-.7832.2268-.1012.5393-.2797.7335-.3994.8475-.528 1.3554-1.4682 1.3379-2.4738-.0502-2.9762-1.4659-5.1806-3.2888-7.5199-1.68889-2.1646-3.73877-4.4792-5.08084-7.8963-.51227-1.2974-.60546-2.3702-.40657-3.2803.00261-.0006.00195-.0032.00195-.0032.30732-1.4057 1.26533-2.4108 2.22839-3.2561l2.17857-1.9186c1.0851-.9541 1.2843-2.5851.4626-3.7786-3.74568-5.4329-2.89423-10.75346.1321-13.3503 3.0801-2.64663 8.2649-2.33524 12.8222 3.3465 1.5815 1.9747 3.1947 6.3573 4.115 12.4608 2.0997 13.8912.4797 36.5178-13.8052 60.5586z" fill="#FDA700"/></svg>