<svg width="49" height="43" viewBox="0 0 49 43" fill="none" xmlns="http://www.w3.org/2000/svg">
<path fill-rule="evenodd" clip-rule="evenodd" d="M48.7126 36.641C49.7101 32.7862 48.0116 28.7854 45.1567 26.3176C42.3176 23.8618 38.4545 23.0332 35.4177 25.0426C30.2322 28.4731 24.4728 27.4964 21.6055 24.4562C20.0589 22.813 19.5416 20.4873 20.9046 18.1216C21.5296 17.0348 22.5713 16.7767 23.6148 16.8887C24.9796 17.0368 26.3814 17.7894 27.3666 18.7541C29.0457 20.3973 31.537 22.3587 33.8287 22.9972C35.8786 23.5696 37.7995 23.1973 39.2614 21.4481C40.4478 20.027 40.748 17.277 39.2702 14.2909C36.8302 9.35329 29.2823 3.09873 16.134 5.70862C6.8311 7.55596 3.61245 1.15732 3.61245 1.15732C3.17105 0.210638 2.18587 -0.229669 1.29249 0.118583C0.399099 0.468837 -0.135899 1.50157 0.0300661 2.55634C0.0300661 2.55634 3.55771 24.7504 18.7877 35.6403C32.2291 45.2513 40.8522 43.5841 45.026 40.9842C47.3125 39.5611 48.4407 37.6918 48.7126 36.641Z" fill="#007C7C"/>
</svg>
