<svg width="39" height="54" viewBox="0 0 39 54" fill="none" xmlns="http://www.w3.org/2000/svg">
<path fill-rule="evenodd" clip-rule="evenodd" d="M23.3741 52.5681C24.1186 53.2954 25.1677 53.6236 26.1975 53.4563C27.223 53.2932 28.1112 52.6497 28.5939 51.725C28.5939 51.725 35.3155 38.7773 37.8042 26.2523C39.4691 17.8551 39.0099 9.68102 34.614 4.84738C31.5374 1.46619 26.5107 -0.621329 18.5533 0.166042C7.93771 1.21301 2.84018 5.19062 0.917882 9.97492C-0.982966 14.7034 0.197067 20.7536 3.27361 26.8981C8.64576 37.608 19.5231 48.8243 23.3741 52.5681ZM18.8043 13.6158C21.8658 12.9914 24.8266 15.124 25.4766 18.297C26.1245 21.468 24.2365 24.596 21.1793 25.2203C18.122 25.8447 15.1571 23.7078 14.5113 20.539C13.8634 17.3681 15.7471 14.2401 18.8043 13.6158Z" fill="#004E4C"/>
</svg>
