<svg width="49" height="42" viewBox="0 0 49 42" fill="none" xmlns="http://www.w3.org/2000/svg">
<path fill-rule="evenodd" clip-rule="evenodd" d="M35.3709 28.9725C31.9404 30.0158 26.8607 29.7834 21.4878 28.1828C16.1183 26.5831 11.6331 23.9667 9.16076 21.1623C7.88924 19.7216 7.14614 18.2696 7.47415 16.9504C7.80327 15.6272 9.11906 14.786 10.8873 14.2476C14.3182 13.2035 19.3989 13.4364 24.7713 15.0378C30.1408 16.6376 34.626 19.254 37.0989 22.0575C38.3704 23.4982 39.112 24.9505 38.7845 26.2689C38.4569 27.5918 37.1411 28.433 35.3709 28.9725ZM47.6767 20.7125C46.6027 17.2329 45.852 14.3586 44.9174 11.9732C43.9118 9.41145 42.685 7.38845 40.7258 5.76619C38.1893 3.66485 34.3718 2.21668 27.9662 1.26276C17.7514 -0.257989 11.4395 -0.647275 7.38402 1.46058C3.27066 3.60046 1.30613 8.30746 0.145943 17.3109C-0.324297 20.9558 0.380984 23.6506 1.69902 25.7216C3.65745 28.7966 7.03386 30.5207 10.2853 31.8669C11.9291 32.5478 13.5309 33.1332 14.8321 33.7947C15.8766 34.3255 16.729 34.8674 17.0944 35.6491C18.1827 37.9791 19.126 39.4408 19.9466 40.2956C20.6874 41.067 21.3906 41.4276 22.0293 41.5564C23.0725 41.7662 24.073 41.3524 25.0153 40.5226C25.832 39.8046 26.652 38.7603 27.6266 37.9951C28.3549 37.4244 29.1723 36.9986 30.2385 37.288C39.4966 39.8022 51.6107 33.4444 47.6767 20.7125Z" fill="#FDA700"/>
</svg>
