<svg width="74" height="107" viewBox="0 0 74 107" fill="none" xmlns="http://www.w3.org/2000/svg">
<path fill-rule="evenodd" clip-rule="evenodd" d="M11.9469 97.1856C12.0402 91.8777 16.254 87.7278 21.7316 87.8215C27.2119 87.9153 31.3991 92.2104 31.3071 97.5183C31.2138 102.824 26.876 107.092 21.3957 106.998C15.9181 106.905 11.8536 102.491 11.9469 97.1856ZM37.6059 0.0174569C74.5133 0.651231 74.2827 17.3617 73.9361 37.1632C73.5895 56.9647 73.1416 82.5493 40.0374 81.9803C37.9511 81.9446 36.2021 80.3971 36.2408 78.3295L36.3488 72.508C36.3621 70.6067 34.8611 69.0183 32.9441 68.9298C-1.50382 67.3282 -0.245401 55.6971 0.101197 35.8957C0.447796 16.0942 0.69841 -0.616317 37.6059 0.0174569Z" fill="#FFA722"/>
</svg>
