<svg width="426" height="232" viewBox="0 0 426 232" fill="none" xmlns="http://www.w3.org/2000/svg">
<path d="M302.902 64.9635C298.223 59.0235 293.758 50.1803 298.515 35.0344C302.344 22.8281 286.56 18.6998 280.271 33.9325C276.662 42.676 278.626 46.7678 278.352 51.5614C278.075 56.3562 270.521 51.9029 268.046 50.8949C265.573 49.8834 253.06 44.1182 247.343 50.7682C242.396 56.5263 248.644 61.0911 244.339 64.8039C240.032 68.5179 238.269 73.8959 240.904 77.9455C244.182 82.9844 237.374 86.141 237.86 92.6056C238.392 99.6862 247.986 107.474 262.97 106.47C262.97 106.47 286.496 115.617 299.718 98.7838C307.253 89.1931 308.34 71.8658 302.902 64.9635Z" fill="#CBA152"/>
<path d="M270.09 108.626C272.319 109.092 274.652 109.378 276.725 109.047C280.328 108.473 282.791 105.568 285.369 103.223C288.911 100.005 292.381 96.7552 295.87 93.4977C298.896 90.6732 302.409 88.4354 304.85 85.0453C305.148 84.6334 304.825 83.2909 304.203 83.8378C303.888 84.1112 303.574 84.3834 303.256 84.651C303.167 84.6416 303.065 84.6604 302.948 84.7202C299.969 86.2093 282.084 101.49 276.605 97.8724C276.304 96.7212 276.011 95.6017 276.132 94.5432C276.393 92.2456 279.337 90.5758 280.342 88.5175C281.342 86.4757 281.556 84.2285 281.259 81.9966C280.815 78.6781 278.677 76.1657 278.955 72.86C279.148 70.546 280.084 68.7248 280.063 66.3872C280.053 65.3569 278.959 64.9932 278.727 66.1467C278.025 69.6295 274.648 70.3066 274.771 74.4372C274.807 75.6306 275.287 76.7747 275.537 77.9259C276.54 80.0803 276.712 82.3592 276.055 84.7683C275.253 85.4501 274.438 86.1143 273.611 86.7644C271.659 88.8461 270.853 91.301 271.036 94.1384C271.137 95.7202 272.513 98.1692 272.234 99.6173C271.34 104.268 265.842 102.623 263.011 101.597C260.845 100.812 260.725 105.188 262.32 106.035C264.616 107.251 267.442 108.58 270.09 108.626ZM277.099 101.615C277.095 101.638 277.093 101.66 277.089 101.684C277.081 101.739 277.073 101.793 277.065 101.848L277.099 101.86L277.448 102.638C277.458 103.045 277.468 103.455 277.48 103.862C277.848 103.697 278.216 103.508 278.578 103.289C278.995 103.041 279.405 102.78 279.813 102.504C278.879 102.404 277.931 102.091 277.099 101.615ZM283.071 72.2886C281.778 73.7824 282.609 76.7454 283.083 78.4082C283.695 80.5509 284.59 83.4106 286.61 84.5993C287.557 85.1591 287.615 83.1795 287.482 82.7605C286.794 80.5767 285.329 78.7567 284.714 76.5048C284.349 75.1718 284.349 73.313 283.36 72.2815C283.287 72.2064 283.142 72.2099 283.071 72.2886Z" fill="#9D844E"/>
<path d="M329.829 148.989C318.164 162.048 280.447 191.815 300.16 215.943C323.497 244.502 357.344 223.287 383.044 195.47C418.344 157.265 431.683 114.145 423.09 98.6955C414.498 83.2457 397.844 79.9225 372.604 104.152C351.346 124.563 351.583 124.638 329.829 148.989Z" fill="white"/>
<path d="M335.174 142.943L351.518 189.02C351.518 189.02 359.349 164.322 343.817 133.285L335.174 142.943Z" fill="#E4DBDD"/>
<path d="M342.675 161.398C326.804 121.679 319.897 106.576 307.809 82.1777L277.57 108.101C275.975 109.467 275.08 111.464 275.107 113.563C275.542 147.565 269.199 220.593 314.431 228.227C345.775 233.517 367.418 223.317 342.675 161.398Z" fill="white"/>
<path d="M276.072 125.089C275.606 125.089 275.147 124.852 274.885 124.423C274.485 123.766 274.693 122.913 275.348 122.513C275.565 122.378 297.347 108.994 312.287 93.2598C312.813 92.6989 313.694 92.6801 314.25 93.2082C314.805 93.7374 314.83 94.6175 314.3 95.1749C299.106 111.18 277.018 124.75 276.794 124.885C276.57 125.023 276.319 125.089 276.072 125.089Z" fill="#E8D0CD"/>
<path d="M307.758 82.1764C310.095 90.3519 315.119 97.7271 318.264 105.63C321.413 113.545 324.25 121.282 327.954 128.983C331.867 137.123 335.466 145.418 338.846 153.793C342.29 162.333 346.45 170.671 349.111 179.475C350.06 182.62 350.805 179.692 350.545 178.644C348.422 170.089 344.83 161.661 341.556 153.489C337.981 144.57 334.156 135.754 329.945 127.118C326.123 119.281 323.003 111.376 319.573 103.381C316.561 96.3612 313.168 87.6741 307.828 82.0931C307.783 82.0473 307.749 82.1447 307.758 82.1764Z" fill="#E8D0CD"/>
<path d="M300.354 203.499C299.395 201.468 297.121 200.15 295.175 199.216C293.46 198.39 290.119 196.62 288.236 197.703C286.635 198.625 286.452 200.989 287.004 202.56C287.927 205.181 292.632 208.705 296.034 208.444C297.145 208.89 298.301 209.016 299.402 208.265C300.917 207.232 301.094 205.063 300.354 203.499Z" fill="#E4D4D3"/>
<path d="M291.266 195.508C291.276 195.509 291.284 195.507 291.292 195.508C292.443 195.921 293.608 195.893 294.418 194.859C295.199 193.859 295.161 192.377 294.697 191.247C294.158 189.942 293.073 189.139 291.96 188.341C290.932 187.605 289.777 186.904 288.464 187.153C287.042 187.421 286.269 188.691 286.088 190.056C285.892 191.509 286.383 193.162 287.466 194.175C288.498 195.139 289.918 195.361 291.266 195.508Z" fill="#E4DBDD"/>
<path d="M296.383 108.919C294.159 109.557 292.314 108.994 291.447 108.726C290.443 108.414 289.522 107.846 288.714 107.189C287.616 106.303 286.966 105.505 286.991 103.999C287.015 102.685 287.713 101.737 288.016 100.531C288.098 100.21 288.103 99.2375 287.525 99.3149C286.158 99.4992 285.25 101.56 284.948 102.754C284.448 104.73 284.88 106.867 285.9 108.6C287.208 110.824 292.521 115.08 294.487 111.28C294.818 110.64 295.405 110.348 294.689 109.97L296.383 108.919Z" fill="#E8D0CD"/>
<path d="M399.78 90.0201C399.669 89.5906 399.321 88.9628 398.781 89.1975C398.247 89.4263 398.172 90.2172 398.262 90.7007C398.454 91.7415 398.974 92.57 399.907 93.0722C400.356 93.3128 400.721 92.7014 400.803 92.367C400.919 91.8964 400.858 91.2369 400.45 90.9072C400.165 90.676 399.848 90.2817 399.78 90.0201Z" fill="#E4D4D3"/>
<path d="M403.604 97.7157C403.242 97.5267 402.877 97.9069 402.741 98.1909C402.537 98.6192 402.531 99.159 402.711 99.5991C402.943 100.165 403.31 100.65 403.536 101.225C403.749 101.761 403.902 102.283 404.166 102.794C404.609 103.66 405.368 103.328 405.546 102.483C405.751 101.52 405.581 100.586 405.174 99.6941C404.839 98.9619 404.332 98.0924 403.604 97.7157Z" fill="#E4D4D3"/>
<path d="M408.616 116.215C408.764 113.704 408.138 110.611 406.716 108.364C406.239 107.609 405.719 108.559 405.828 109.082C406.303 111.393 406.833 113.626 407.181 115.958C407.351 117.117 408.537 117.55 408.616 116.215Z" fill="#E4D4D3"/>
<path d="M407.644 123.184C407.89 124.416 408.015 125.656 408.013 126.911C408.013 128.095 407.797 129.271 407.956 130.449C408.024 130.956 408.774 132.215 409.357 131.387C411.008 129.046 410.198 125.106 409.266 122.626C408.764 121.297 407.378 121.847 407.644 123.184Z" fill="#E4D4D3"/>
<path d="M407.808 137.716C408.019 140.335 407.559 142.729 407.139 145.265C407.004 146.079 407.973 147.902 408.65 146.614C410.098 143.857 410.081 140.426 409.435 137.345C409.123 135.86 407.699 136.355 407.808 137.716Z" fill="#E4D4D3"/>
<path d="M260.162 49.704C263.329 51.4818 265.483 52.4628 269.486 54.0834C275.079 56.3493 280.548 59.9261 280.067 65.1503C279.809 67.9267 278.664 69.5872 277.333 70.5764C275.602 71.8613 275.302 74.3338 276.468 76.1456C277.835 78.2743 278.821 81.1974 277.984 84.8586C277.506 86.952 276.32 88.2804 274.949 89.1218C273.034 90.2999 272.38 92.7865 273.646 94.6499C273.775 94.8412 273.886 95.0313 273.973 95.2191C276.47 100.624 272.636 104.658 269.717 105.853C264.947 107.804 248.378 107.59 240.882 99.3121C237.664 95.7589 237.351 93.2981 237.621 90.3926C238.046 85.8384 239.886 84.3939 240.3 83.2932C241.595 79.8221 238.392 77.0292 239.25 72.6781C240.749 65.0869 248.163 64.8511 245.585 58.4064C243.595 53.4274 249.512 43.7229 260.162 49.704Z" fill="#E6BF76"/>
<path d="M293.456 102.142C293.96 102.117 294.388 102.504 294.414 103.004C294.442 103.506 294.056 103.936 293.552 103.964C293.053 103.99 292.623 103.603 292.598 103.1C292.57 102.601 292.956 102.168 293.456 102.142ZM290.643 103.204C290.725 104.786 292.077 106.002 293.657 105.92C295.238 105.835 296.454 104.482 296.37 102.901C296.286 101.321 294.935 100.103 293.353 100.186C291.774 100.269 290.558 101.625 290.643 103.204Z" fill="#FAA834"/>
<path d="M295.902 227.069C279.529 221.154 272.911 201.044 272.699 185.132C272.69 184.462 274.286 183.188 274.48 184.169C275.926 191.43 276.922 198.856 279.647 205.785C283.063 214.473 289.223 220.71 297.067 225.462C297.938 225.988 296.675 227.348 295.902 227.069Z" fill="#E4DBDD"/>
<path d="M227.746 1.62194C228.066 5.51614 228.096 9.40396 228.437 13.2899C228.562 14.735 229.996 15.4102 230.214 13.7074C230.728 9.67147 230.286 5.31075 229.608 1.2179C229.308 -0.5952 227.617 0.0269716 227.746 1.62194Z" fill="#FAA834"/>
<path d="M228.993 121.292C229.381 125.376 229.973 129.544 230.811 133.595C231.151 135.237 232.652 134.718 232.499 133.247C232.075 129.172 231.388 125.018 230.512 120.978C230.193 119.495 228.867 119.968 228.993 121.292Z" fill="#FAA834"/>
<path d="M185.227 14.5863C185.836 16.276 186.869 17.8051 187.779 19.3493C188.734 20.9722 189.686 22.5517 190.833 24.0479C191.84 25.3586 192.717 23.1983 192.266 22.2806C191.414 20.5521 190.452 18.9421 189.411 17.3216C188.442 15.8149 187.568 14.1544 186.275 12.9C185.354 12.0105 185.041 14.0676 185.227 14.5863Z" fill="#FAA834"/>
<path d="M269.401 7.28433C268.275 9.37896 266.894 11.7071 266.473 14.0575C266.365 14.6537 267.004 16.4749 267.817 15.5608C268.604 14.6748 268.985 13.6445 269.453 12.5684C269.967 11.3785 270.466 10.1945 270.918 8.97998C271.126 8.42376 271.072 7.58239 270.631 7.14352C270.253 6.76684 269.687 6.75393 269.401 7.28433Z" fill="#FAA834"/>
<path d="M209.883 113.508C208.503 114.262 207.442 115.752 206.814 117.151C206.594 117.638 206.688 118.383 206.995 118.815C207.242 119.163 207.756 119.367 208.094 119.005C208.568 118.492 209.016 117.944 209.452 117.399C209.891 116.853 210.403 116.364 210.824 115.798C211.146 115.361 211.126 114.6 210.924 114.12C210.768 113.75 210.332 113.264 209.883 113.508Z" fill="#FAA834"/>
<path d="M249.466 115.639C249.888 116.201 250.296 116.776 250.733 117.324C251.15 117.842 251.645 118.575 252.383 118.5C252.91 118.444 253.174 117.77 253.125 117.303C253.074 116.814 253.029 116.349 252.764 115.919C252.581 115.626 252.357 115.334 252.134 115.069C251.698 114.541 251.228 114.044 250.774 113.531C250.36 113.063 249.789 112.976 249.415 113.565C249.054 114.134 249.053 115.089 249.466 115.639Z" fill="#FAA834"/>
<path d="M213.582 51.1749C213.478 51.8367 213.774 52.3765 213.973 52.9856C214.153 53.5406 214.198 54.1743 214.544 54.6542C214.986 55.2633 215.467 54.7059 215.593 54.2024C215.775 53.4726 215.493 52.6265 215.21 51.9553C215.02 51.5117 214.653 50.5283 214.029 50.6304C213.759 50.675 213.622 50.9203 213.582 51.1749Z" fill="#E4DBDD"/>
<path d="M287.689 209.377C287.689 209.377 317.32 229.628 350.709 201.846C352.24 200.573 354.13 199.817 356.119 199.727C359.742 199.565 367.261 197.427 379.481 185.936C390.071 175.979 404.193 158.996 422.371 130.188C422.371 130.188 415.52 156.803 391.678 185.819C382.061 197.523 368.817 211.885 355.755 219.923C335.485 232.397 323.711 233.226 312.934 230.972C301.489 228.58 294.038 219.93 287.689 209.377Z" fill="#E4DBDD"/>
<path d="M423.121 98.6825C417.925 89.3394 409.775 84.4461 398.568 87.3833C401.624 88.6541 406.155 96.6266 407.563 101.181C409.363 106.999 411.504 119.631 411.934 127.172C412.639 139.456 410.59 156.288 410.962 156.563C410.981 156.656 411.011 156.744 411.039 156.831C424.816 131.586 428.852 108.982 423.121 98.6825Z" fill="#004E4C"/>
<path d="M408.266 86.7961C407.575 86.6213 406.867 86.4901 406.143 86.4141C407.801 89.1696 417.933 107.671 416.853 146.357C417.462 144.732 418.037 143.128 418.571 141.542C418.71 109.207 411.145 92.113 408.266 86.7961Z" fill="#FAA834"/>
<path d="M160.248 67.0696C163.975 59.8249 168.767 53.2505 163.95 39.2792C161.425 31.9443 169.007 28.7794 175.127 38.8709C179.174 45.547 179.297 49.3765 179.789 53.8203C180.28 58.264 188.029 54.4556 190.277 53.3944C192.526 52.3344 203.876 46.3602 209.516 52.2595C214.399 57.3678 208.815 61.9204 213 65.1613C217.186 68.4011 218.117 76.2087 217.189 80.6092C216.385 84.4199 220.27 84.0853 219.606 90.8059C218.956 97.3838 211.706 105.005 197.726 104.81C197.726 104.81 176.307 114.472 163.189 99.4735C158.54 94.1616 156.709 85.4659 156.72 78.3393C156.727 74.0044 159.169 69.1698 160.248 67.0696Z" fill="#F8CB79"/>
<path d="M184.05 93.2665C184.073 93.022 184.072 92.7775 184.036 92.5353C183.78 90.7241 181.935 89.1059 181.097 87.4761C179.405 84.1895 180.144 82.1688 180.908 78.8132C181.805 74.9006 178.894 72.0434 178.838 68.1484C178.816 66.7783 180.271 66.2062 180.6 67.7413C181.287 70.9284 184.438 72.7338 184.829 76.1374C185.24 79.6978 182.781 82.1057 184.882 85.7246C186.185 87.9675 188.209 89.3633 188.409 92.141C188.477 93.0875 188.133 94.0107 188.069 94.9256C187.923 96.9474 188.253 98.369 188.801 99.9486C192.82 102.146 196.355 103.954 198.75 104.929C198.75 104.929 189.224 108.391 186.32 107.718C184.947 107.398 162.176 91.7315 162.176 91.7315L157.524 85.5093C157.524 85.5093 157.194 84.0912 157.059 81.1966C157.059 81.1966 167.459 87.6656 178.248 93.9604C179.407 94.2891 180.684 94.6121 181.804 94.5465C182.766 94.4869 183.701 94.2365 184.05 93.2665Z" fill="#C89A55"/>
<path d="M174.11 198.29C180.099 177.819 183.801 149.069 186.055 116.872C186.249 114.101 189.895 111.23 190.067 108.411C190.186 106.51 188.602 106.175 187.093 105.012L156.939 82.4717C148.245 102.634 144.444 121.368 132.704 145.604C131.955 147.151 130.284 146.968 128.616 146.554C114.474 143.045 108.263 138.501 87.6324 120.089C77.8476 111.356 71.2941 104.789 65 100.948C54.5525 94.5721 44.3843 101.976 36.6102 110.638C23.7486 124.968 26.2515 134.329 37.0299 155.362C44.7209 170.369 66.5432 186.5 85.3014 197.194C107.146 209.642 131.81 222.862 151.559 219.809C152.509 219.668 167.906 215.684 174.11 198.29Z" fill="white"/>
<path d="M185.188 118.601C184.984 118.601 184.776 118.556 184.58 118.461C184.385 118.365 167.772 110.697 151.777 95.5426C151.219 95.0184 152.307 94.8979 152.833 94.3433C153.359 93.7864 153.126 93.0025 153.683 93.5302C169.372 108.395 185.602 115.875 185.797 115.969C186.481 116.304 186.771 117.133 186.433 117.822C186.193 118.315 185.7 118.601 185.188 118.601Z" fill="#E4D4D3"/>
<path d="M164.388 197.206C162.556 195.927 159.569 197.682 157.878 198.534C155.861 199.542 153.544 200.953 152.472 203.029C151.682 204.552 151.726 206.805 153.197 207.931C154.354 208.823 155.606 208.639 156.772 208.112C159.945 208.229 164.036 204.852 165.191 202.583C165.997 200.991 166.024 198.35 164.388 197.206Z" fill="#E0D6D8"/>
<path d="M171.97 189.301C171.799 187.849 170.972 186.446 169.421 186.236C168.146 186.064 167.073 186.757 166.111 187.514C165.062 188.339 163.974 189.204 163.478 190.491C163.025 191.671 163.023 193.224 163.89 194.22C164.745 195.209 165.907 195.175 167.032 194.703C167.041 194.702 167.048 194.703 167.058 194.702C168.346 194.495 169.686 194.218 170.665 193.282C171.71 192.282 172.139 190.712 171.97 189.301Z" fill="#DFDCE0"/>
<path d="M175.836 112.843C177.833 116.536 182.268 113.271 183.292 110.454C183.986 108.546 184.174 106.286 183.537 104.33C183.183 103.246 182.098 101.146 180.867 101.178C180.407 101.19 180.294 101.943 180.378 102.292C180.905 104.472 182.282 105.687 181.051 108.531C180.687 109.373 180.048 110.157 179.076 110.516C177.688 111.023 176.104 110.674 174.591 110.125C173.823 109.846 175.487 112.199 175.836 112.843Z" fill="#E4D4D3"/>
<path d="M176.182 104.495C176.683 104.469 177.111 104.855 177.134 105.352C177.165 105.854 176.779 106.281 176.277 106.31C175.777 106.335 175.35 105.95 175.325 105.448C175.295 104.951 175.68 104.519 176.182 104.495ZM173.376 105.551C173.459 107.131 174.805 108.343 176.382 108.261C177.957 108.176 179.17 106.825 179.084 105.25C179.004 103.676 177.655 102.461 176.078 102.543C174.502 102.625 173.289 103.979 173.376 105.551Z" fill="#004E4C"/>
<path d="M200.192 49.9979C195.794 51.1258 178.692 59.3792 179.888 67.6162C180.259 70.168 181.402 71.6422 182.686 72.4905C184.354 73.588 184.753 75.859 183.754 77.5895C182.584 79.6241 181.808 82.3748 182.762 85.7129C183.305 87.6224 184.472 88.7901 185.785 89.498C187.624 90.4878 188.346 92.7541 187.259 94.5361C187.148 94.7221 187.055 94.9023 186.982 95.0801C184.919 100.198 188.852 103.154 191.683 103.907C199.058 105.87 211.013 105.506 217.932 97.1932C221.069 93.4234 220.825 91.253 220.171 88.1232C219.668 85.7328 218.528 84.5406 217.754 83.4829C215.741 80.7134 219.461 77.4537 218.282 72.9199C216.19 64.8888 210.399 65.4984 211.46 61.2512C212.63 56.5711 211.204 47.1735 200.192 49.9979Z" fill="#FBD895"/>
<path d="M152.502 224.562C145.958 224.638 139.544 224.745 133.053 223.706C126.458 222.643 120.634 220.171 114.328 218.214C113.594 217.985 111.318 219.029 112.569 219.724C118.343 222.949 125.649 224.418 132.136 225.437C138.832 226.489 145.833 226.86 152.547 225.799C153.494 225.649 153.549 224.549 152.502 224.562Z" fill="#E4DBDD"/>
<path d="M201.73 50.5389C205.614 49.6486 208.426 50.6279 209.855 54.4655C210.789 56.9636 210.612 58.0236 210.649 60.5649C210.683 63.0606 210.969 64.598 212.975 66.1401C215.316 67.9407 216.845 69.5729 217.249 72.7296C217.529 74.8942 216.946 77.0786 217.072 79.2689C217.26 82.5309 218.767 85.5402 219.263 88.8269C219.345 89.3791 219.995 89.5979 220.197 88.9871C220.727 87.4064 220.94 85.8105 220.523 84.1467C220.365 83.5138 220.022 82.9393 219.802 82.3367C219.123 80.474 218.978 78.891 219.154 76.9148C219.553 72.5612 219.687 68.4871 216.681 64.8776C214.76 62.5703 212.529 61.4635 212.568 57.9007C212.588 55.9445 212.875 53.877 211.896 52.074C210.042 48.6587 204.878 47.6642 201.565 49.0869C201.081 49.2952 201.132 50.6758 201.73 50.5389Z" fill="#E2BC84"/>
<path d="M114.891 225.107C116.456 226.868 119.649 227.728 121.933 227.832C123.229 227.89 122.849 225.513 121.935 225.187C120.745 224.762 119.54 224.454 118.33 224.071C117.343 223.763 116.084 223.137 115.057 223.314C114.33 223.437 114.569 224.742 114.891 225.107Z" fill="#E4DBDD"/>
<path d="M130.727 146.865C125.115 145.923 118.675 143.354 118.675 143.354C113.366 151.544 116.21 163.269 123.53 170.524C123.947 170.937 124.139 170.06 124.107 169.814C124.016 169.074 123.872 168.35 123.711 167.629C124.027 167.447 124.319 167.134 124.535 166.664C125.819 163.875 125.542 160.663 126.415 157.718C129.102 155.074 131.418 149.262 132.112 147.499C132.669 146.079 136.072 147.762 130.727 146.865Z" fill="#E4DBDD"/>
<path d="M173.892 199.005C173.892 199.005 161.769 220.825 138.512 213.766C122.309 208.848 117.859 202.54 116.65 199.166C116.089 197.596 114.807 196.39 113.205 195.928C102.455 192.69 65.4786 180.28 45.3713 157.299L44.2339 166.619C44.2339 166.619 58.5475 185.423 97.0751 204.588C126.834 219.392 158.727 234.658 173.892 199.005Z" fill="#E4DBDD"/>
<path d="M64.6461 102.06C67.0052 100.736 69.328 102.158 70.5415 102.957C70.9074 103.198 71.5328 103.593 71.6474 103.845C71.9233 104.447 71.2405 105.12 70.4865 105.374C69.7337 105.629 68.899 105.629 68.1298 105.847C66.3458 106.354 65.2481 108.151 65.8665 109.552C66.3716 110.694 67.7697 111.951 66.7492 112.905C66.52 113.118 66.202 113.256 65.8829 113.367C64.2872 113.925 62.5196 113.96 60.8713 114.39C59.2241 114.82 57.5513 115.892 57.5244 117.28C57.4823 119.603 61.9281 120.76 61.4137 123.067C59.3399 124.288 56.2139 123.213 54.1471 124.445C52.9266 125.173 52.4824 126.537 52.7325 127.709C52.9827 128.883 53.8045 129.897 54.6907 130.822C55.3593 131.517 56.0912 132.209 56.3916 133.067C56.6955 133.926 56.4325 135.014 55.4716 135.512C54.7889 135.863 53.9366 135.843 53.1861 136.075C51.6465 136.551 50.8329 138.046 50.9743 139.352C51.1158 140.657 51.9996 141.8 52.95 142.826C54.1704 144.146 55.5499 146.01 54.1669 147.326C52.4929 148.921 48.6468 147.616 47.2101 149.35C46.5355 150.166 46.8336 151.251 47.4018 152.07C48.807 154.106 51.7459 155.662 51.5273 158.05C51.5004 158.328 51.4221 158.615 51.2163 158.847C50.8235 159.292 50.0941 159.411 49.4476 159.542C47.6742 159.905 45.7874 160.896 45.5898 162.362C45.3677 164.028 47.4193 165.294 47.5491 166.953C47.569 167.208 47.528 167.492 47.3059 167.684C47.0897 167.873 46.7565 167.925 46.4525 167.955C43.9006 168.199 41.9471 165.269 40.8938 162.558C40.8938 162.558 38.4751 116.76 64.6461 102.06Z" fill="#FDA700"/>
<path d="M28.5951 115.572C33.0452 107.622 49.7461 91.0483 66.7317 101.288C66.7317 101.288 56.4214 108.592 47.1522 132.179C41.6223 146.256 41.0641 158.19 40.4747 162.599C33.9758 154.879 18.8346 132.998 28.5951 115.572Z" fill="#F4D195"/>
<path d="M59.4976 98.4784C58.8067 98.3017 58.1556 99.2658 57.7476 99.7081C57.1116 100.397 56.3085 101.058 56.1437 102.024C56.0981 102.283 56.1367 102.763 56.5119 102.744C57.3676 102.704 57.9288 101.647 58.4092 101.05C58.9259 100.411 59.6613 99.6964 59.6729 98.8271C59.6753 98.7112 59.6344 98.5147 59.4976 98.4784Z" fill="#004E4C"/>
<path d="M53.8521 106.348C53.4487 106.104 53.0162 106.577 52.8268 106.867C52.2575 107.739 51.3866 108.55 51.3702 109.647C51.3655 109.921 51.5771 110.066 51.8238 110.043C52.3849 109.985 52.7754 109.468 53.0805 109.043C53.4219 108.566 53.6755 108.025 53.9234 107.497C54.0812 107.162 54.2601 106.59 53.8521 106.348Z" fill="#004E4C"/>
<path d="M48.5026 113.799C47.9403 113.976 47.5861 114.908 47.3558 115.406C47.0168 116.135 46.7409 116.866 46.6228 117.66C46.534 118.236 47.0495 118.942 47.613 118.417C48.2477 117.823 48.6277 117.02 48.893 116.195C49.1069 115.536 49.4249 114.573 49.0228 113.943C48.8942 113.739 48.7118 113.733 48.5026 113.799Z" fill="#004E4C"/>
<path d="M40.7862 136.43C41.2947 136.129 41.4256 135.142 41.5379 134.604C41.7004 133.817 41.8021 133.043 41.7378 132.242C41.691 131.662 41.0282 131.091 40.6003 131.731C40.1175 132.454 39.9304 133.324 39.8603 134.187C39.8018 134.876 39.7118 135.887 40.2461 136.409C40.4191 136.579 40.598 136.542 40.7862 136.43Z" fill="#004E4C"/>
<path d="M38.1888 151.6C37.997 151.455 37.8217 151.517 37.651 151.648C37.1845 152.014 37.1798 153.009 37.1366 153.558C37.0735 154.358 37.0723 155.137 37.2371 155.925C37.3575 156.497 38.0882 156.979 38.4319 156.288C38.8189 155.509 38.8949 154.622 38.854 153.756C38.8224 153.067 38.7873 152.052 38.1888 151.6Z" fill="#004E4C"/>
<path d="M43.8157 122.707C43.2332 123.94 42.6216 125.16 42.6333 126.548C42.6408 127.268 43.403 127.415 43.7847 126.866C44.5634 125.74 44.6975 124.33 44.8973 123.007C45.02 122.175 44.1567 121.986 43.8157 122.707Z" fill="#004E4C"/>
<path d="M38.5158 141.284C38.0366 142.819 37.9411 144.817 38.3495 146.401C38.5354 147.113 39.3608 146.964 39.5112 146.334C39.8701 144.841 39.9934 142.989 39.8041 141.45C39.7 140.59 38.7879 140.418 38.5158 141.284Z" fill="#004E4C"/>
<path d="M156.454 82.7735C150.545 97.9593 144.915 113.254 138.654 128.299C135.539 135.79 132.244 143.191 128.982 150.615C126.327 156.659 123.383 163.025 123.077 169.706C123.036 170.608 124.083 171.33 124.487 170.249C135.3 141.422 147.389 113.02 157.962 84.0512C158.373 82.928 157.077 81.1741 156.454 82.7735Z" fill="#E4D4D3"/>
<path fill-rule="evenodd" clip-rule="evenodd" d="M165.096 42.1844C165.096 42.1844 168.407 38.7305 167.598 35.5363C166.789 32.3433 163.615 33.3811 163.52 35.3362C163.424 37.2913 165.096 42.1844 165.096 42.1844Z" fill="#FB6A3F"/>
<path d="M164.891 56.1704C166.987 57.5688 175.45 58.5758 180.174 53.5503" stroke="#FBB040" stroke-width="0.00125975" stroke-miterlimit="10" stroke-linecap="round"/>
<path fill-rule="evenodd" clip-rule="evenodd" d="M165.308 56.0237C166.276 57.1268 168.301 58.3182 170.645 58.7299C174.052 59.3308 178.143 58.3431 180.544 53.4985C180.815 52.9515 180.714 51.9365 180.32 51.2333C179.927 50.5299 179.388 50.4033 179.117 50.9481C176.979 55.2646 173.308 56.0519 170.274 55.5164C168.325 55.1735 166.645 54.3148 165.839 53.3972C165.384 52.8799 164.896 53.0484 164.75 53.7734C164.604 54.4984 164.854 55.5063 165.308 56.0237Z" fill="#FFF066"/>
<path d="M245.513 62.7772C242.69 65.6615 239.59 67.934 239.1 72.1809C238.61 76.4395 239.808 80.0582 238.35 84.3852C237.588 86.6459 236.304 87.7409 236.359 90.3565C236.44 94.2957 238.646 98.4919 241.372 101.239C246.03 105.931 252.202 106.102 256.729 106.48C257.484 106.48 258.403 106.21 257.892 106.133C252.539 105.335 246.265 102.891 242.611 98.7241C239.139 94.7636 238.53 92.167 240.188 87.0431C240.658 85.5898 241.358 84.8684 241.679 83.2442C242.168 80.7795 241.5 78.4681 241.4 76.0317C241.084 68.2829 245.204 68.7143 246.06 63.3889C246.102 63.1355 245.861 62.4212 245.513 62.7772Z" fill="#CBA152"/>
</svg>
