<svg width="64" height="64" viewBox="0 0 64 64" fill="none" xmlns="http://www.w3.org/2000/svg"><path d="M29.4538 39.661c2.3692-.9428 7.4845-3.3461 8.4893-6.8488l.2-.6792c.2589-.8621.4093-1.4017.5132-2.4514.0357-.3473-.0713-.6869-.2992-.9567-.2295-.2682-.5474-.428-.8963-.4512l-1.0171-.0605c-.0264-.0031-.0543-.0031-.0807-.0031-.6527 0-1.2032.4977-1.2714 1.1629-.0744.7226-.169 1.0374-.3784 1.732l-.2108.7164c-.5102 1.7831-4.4982 3.8841-7.1652 4.8098-.5473.1892-.966.6249-1.121 1.166-.7365 2.5615-.5536 5.2409-.2047 7.2396-1.3257-.6916-2.9073-2.1305-3.9632-5.1169-.3179-.8962-1.2792-1.4048-2.1816-1.1381-3.402.9753-9.0382 1.5986-10.33917-.1628-2.28087-3.0856-3.20035-19.6502-1.75213-22.1342.70551-1.2172 8.5002-3.1135 17.3135-2.5042 6.3449.4404 8.6134 1.9584 8.953 2.7864.3798.9257.6558 1.7444.8636 2.9678.1132.6791.7241 1.1412 1.4219 1.0543l1.0125-.1302c.3458-.0434.6512-.2217.8621-.5039.2093-.2807.2962-.6404.2388-.9877-.2248-1.3428-.5287-2.3972-1.0869-3.757-1.4545-3.5493-7.3388-4.6765-12.02-4.999-7.0426-.48846-18.47488.5318-20.65341 4.2718-2.42197 4.1601-1.07764 21.9419 1.96766 26.0633 2.65455 3.5895 9.49405 2.5708 12.63395 1.87 2.9181 6.3061 8.0536 6.6301 9.0677 6.6301.1194 0 .1953-.0046.2232-.0062.5582-.0356 1.0761-.3364 1.3847-.8063.3085-.4698.3783-1.0636.1876-1.5893-.0139-.0387-1.3133-3.7368-.6915-7.1837z" fill="#007C7C"/><path d="M57.3608 20.6795c-3.1213-3.4841-15.6901-.1256-16.2219.0201-3.8749 1.0482-10.4927 3.3988-11.2974 7.3357-.2527 1.2358-.3535 2.3491-.3272 3.6066.0078.3427.1535.6605.4094.8947.2574.2372.6031.3783.952.3364l1.0203-.0651c.6853-.0434 1.2094-.6062 1.197-1.2807-.0186-.9784.0574-1.808.2543-2.774.1442-.6993 1.8297-2.4654 7.176-4.1462 7.1357-2.2421 13.5224-2.1522 14.1736-1.5366 1.5552 1.732 3.2779 15.4761 1.8731 18.4765-.8001 1.7133-5.0672 2.3909-7.7419 2.3211-.9769.0063-1.7739.7567-1.8173 1.7088-.093 2.0545-2.0839 3.6019-4.1927 4.3353.3814-1.9614.5613-4.3431.2016-5.5711-.2186-.7505-.8916-1.2684-1.6731-1.287-2.4654-.0605-5.5758-.8419-6.1309-1.9211-.1101-.1458-.3489-.5164-.3923-.7288-.0728-.3582-.2868-.6636-.6031-.8621-.3303-.2047-.7366-.2667-1.1133-.169l-.8265.214c-.3349.0883-.6156.3039-.7877.6078-.1705.3023-.2139.6698-.1147 1.0016.1845.6311.3148.9102.5473 1.3521l.1334.2605c1.3319 2.6189 5.1665 3.4485 7.5698 3.7105-.0698 1.6126-.4636 3.9245-.9334 4.8067-.2962.5489-.2791 1.225.0418 1.763.3272.5458.8901.8621 1.5475.8699 3.9958 0 8.7638-2.4406 10.012-6.5418 2.991-.1582 7.9233-.9536 9.5173-4.3524 1.9196-4.1044.2465-19.3774-2.453-22.3854z" fill="#007C7C"/></svg>