<svg width="64" height="64" viewBox="0 0 64 64" fill="none" xmlns="http://www.w3.org/2000/svg"><path d="M12.1389 19.1291l38.518-.6031c.6031-.0095 1.0831-.5052 1.0752-1.1067l-.0126-.7736c-.0095-.6031-.5053-1.0847-1.1084-1.0752l-3.7796.06-3.7607-9.1997 1.7951-.04262c.3789-.02369.7594.2005.9473.55258l6.301 7.54514c.2068.2447.341.5336.3805.8541.3757 3.0044.4089 7.5151-.9663 9.1334-.3315.3915-.8746.5699-1.3846.5194-2.013-.1942-2.5245-2.9855-2.6524-4.6085-.0442-.5637-.521-.9915-1.0862-.9915h-.8904c-.5605 0-1.0263.4231-1.0847.9804-.1657 1.6088-.7594 4.6322-2.8544 4.6322-1.9041 0-2.5893-3.0802-2.8182-4.6906-.0758-.5479-.5463-.9473-1.1004-.9347l-.9599.019c-.5526.011-1.0057.4247-1.0642.9741-.1689 1.5978-.7641 4.6322-2.8544 4.6322-.7152 0-1.2489-.2115-1.683-.6631-.7042-.7373-1.0294-2.6145-1.1605-3.7117-.0568-.4768-.4594-.8337-.9393-.8447l-1.2126-.0268c-.4862-.0095-.9046.3362-.9772.8178-.2258 1.4762-.9173 4.3922-2.8498 4.4285-.6536 0-1.1383-.1721-1.533-.5731-.6473-.6568-.971-2.4408-1.1099-3.5034-.0631-.4815-.4736-.8351-.9567-.8367l-1.2362-.0032c-.4768-.0016-.8826.3395-.9568.8115-.161 1.0184-.5242 2.7108-1.2109 3.3834-.5558.5415-1.2978.7926-2.2672.7373-.6615-.0316-1.1478-.2652-1.5314-.7294-.9726-1.1873-1.0894-3.5665-1.0152-5.1627zM25.2714 6.86182l2.6792-.06473-.8841 9.14121-5.2211.0837 3.426-9.16018zm5.6552-.13578l3.055-.0742 1.732 9.15236-5.6727.0884.8857-9.16656zm8.9803-.21787l3.7496 9.17123-4.9432.0774-1.7383-9.17759 2.9319-.07104zM14.5418 27.9751c.1232.0048.2447.0079.3647.0079 1.6404 0 3.0613-.5494 4.1286-1.5993.2258-.2258.4294-.461.611-.7089.1926.2905.4121.5684.6599.8226.9647.9836 2.2782 1.473 3.7039 1.4635 2.0161-.0379 3.3865-1.0483 4.2896-2.4108.1895.2905.4073.5699.6521.8273.9883 1.0357 2.3113 1.5835 3.827 1.5835 2.1471 0 3.5649-1.1493 4.468-2.6981.9141 1.5472 2.2987 2.6981 4.3291 2.6981 2.0587 0 3.4481-1.0625 4.3559-2.5229.933 1.5109 2.3666 2.5229 4.4396 2.5229 1.3577 0 2.5371-.5447 3.4118-1.574 2.0287-2.3919 2.0192-7.111 1.784-10.0128-.0695-.8604-.2131-1.893-.2921-2.4282-.0363-.24-.1358-.4563-.2921-.641l-6.6451-7.90347c-.7389-1.25515-2.0919-1.97509-3.5429-1.96877l-25.2624.61099c-1.4256.03316-2.7203.82256-3.407 2.06508l-5.1043 7.28937c-.3458.4941-.2258 1.1746.2684 1.5203l.6331.4421c.4942.3458 1.1746.2258 1.5204-.2684l5.1548-7.35878.101-.16894c.1768-.33944.521-.55573.9047-.56521l2.4834-.05999-3.4165 9.13182-9.15232.1436-.18946 1.2347c-.08999.5889-.81466 5.8352 1.53458 8.7086.9126 1.1162 2.1851 1.7446 3.6786 1.8172zM51.83 35.5147v-6.3516c0-.4499-.3631-.8115-.8115-.8115h-1.3341c-.4484 0-.8115.3616-.8115.8115v6.2079c-3.1339-.0868-8.1514-.0947-16.2901-.0126-7.2941.0773-12.0747.1799-15.2338.2905V29.621c0-.4484-.3632-.8115-.8116-.8115h-1.334c-.4484 0-.8115.3631-.8115.8115v6.1589c-2.9461.1674-3.2129.3426-3.4039.4705-.7531.4989-1.4036.9346-.8115 15.7627.0205.5258.4657.9505.993.9284l1.0499-.0442c.5242-.0221.9315-.461.911-.9868-.2053-5.3379-.2858-11.0295-.1137-13.1119 5.559-.4579 33.6017-.6979 38.9159-.3379.3126 3.0755.54 12.943.2731 15.9317-4.6195.2589-25.3745.4736-39.8742.562-.5257.0032-.9378.4342-.9346.96l.0063 1.0499c.0031.5257.4436.9504.9709.9488.439-.0031.8463-.0063 1.2789-.0095v2.0856c0 .4374.3536.7926.791.7926h2.8513c.4373 0 .791-.3552.791-.7926v-2.1156c14.2534-.1026 24.2851-.2383 30.0477-.4041v1.9924c0 .4358.3552.791.7926.791h2.8513c.4373 0 .791-.3552.791-.791v-2.174c.7373-.0489 1.2109-.0995 1.3498-.1531.3379-.1295.7879-.4374 1.0089-1.1652.9378-3.0818-.0126-18.9267-.5194-19.645-.2526-.36-.4547-.6363-2.5782-.8099z" fill="#007C7C"/><path d="M18.8513 43.7836l26.3439-1.4604c.5352-.0284.9883.3978.9883.9346v5.5763c0 .5179-.42.9379-.9378.9379H19.3328c-.48 0-.881-.3632-.9315-.8384l-.431-4.1175c-.0553-.5336.3457-1.0025.881-1.0325zm-2.1804 8.9439h31.5319c.5162 0 .9362-.42.9362-.9363V40.1334c0-.5352-.4515-.9631-.9883-.9331l-32.5628 1.803c-.5352.03-.9363.5005-.881 1.0325l1.031 9.8533c.0505.4768.4531.8384.933.8384z" fill="#007C7C"/></svg>