<svg width="64" height="64" viewBox="0 0 64 64" fill="none" xmlns="http://www.w3.org/2000/svg"><path d="M23.1025 46.76c-1.2793-.3948-2.6052-.8026-3.9487-1.3419-1.8781-.7496-3.3564-2.0065-3.7689-3.1975-.1911-.549-.1397-1.045.1589-1.5602.6613-1.1397 1.4847-1.6951 2.5474-1.7095.2841-.0032.5859.0305.9037.1043 3.037.6902 6.5828 4.4287 8.2778 9.1719-1.313-.5842-2.7239-1.0224-4.1702-1.4671zm34.1339-17.9474c-1.3467-1.9551-4.4062-3.8732-11.3212-2.3532-.7625.167-1.2167.9567-1.0161 1.7096l.2392.9005c.191.7207.9197 1.1364 1.6485.9791 3.7882-.8267 6.456-.5265 7.4094.8588.8717 1.2681.3147 3.313-.1139 3.9086-1.0113 1.4029-2.305 2.236-3.7353 2.4093-1.5217.1766-3.1268-.3692-4.5137-1.5522-3.2344-2.7577-7.212-3.2103-10.5347-2.3002 2.1766-7.5764 5.8107-12.2089 10.7177-13.3293 1.1076-.2504 2.3227.0465 3.0996.7657.5313.4911.8379 1.1637.9085 1.9775.0578.6646.5201 1.2248 1.1798 1.3227l.9214.1348c.8443.1252 1.634-.5409 1.6019-1.3949-.0706-1.8893-.7945-3.5394-2.1043-4.7513-1.6694-1.5441-4.135-2.175-6.4287-1.6533-5.8653 1.3355-10.1897 6.1751-12.851 14.0533-1.366-15.8045-6.1526-24.47406-14.3197-25.80635-1.5506-.24238-6.8108-.63404-9.39029 5.07715-1.42539 3.1622.55057 6.2361 3.00809 8.5925-2.07067.0497-4.11566.4382-5.45597 1.5281-1.09312.8893-1.64851 2.1349-1.60678 3.594.1236 4.3291 5.3725 5.7336 7.38535 5.9118l1.0209.0787c3.4511.2648 7.6888.5907 10.1945 4.1911.3499.5024 1.0481.6212 1.5859.3306l1.0562-.5714c.6581-.3548.8459-1.2071.4237-1.8235-3.4703-5.0771-9.1382-5.5121-12.9778-5.8091l-.9823-.0754c-1.1269-.098-3.97443-.9375-4.01456-2.3388-.01284-.3836.10594-.5088.2472-.6228 1.43341-1.1718 6.49776-.6725 9.46726.0273.9037.2151 1.8203-.2697 2.151-1.1365.3306-.8651-.0305-1.8395-.8428-2.2809-2.7528-1.4928-8.411-5.5988-7.2938-8.0772 1.4013-3.10601 4.0032-3.17824 5.4302-2.95031 5.6759.92618 12.0821 7.89901 11.6166 34.96861-2.4222-4.1558-5.9792-7.1109-9.2313-7.8509-3.0996-.7047-5.8187.5153-7.464 3.3532-.8427 1.4495-.9984 3.0466-.4559 4.6181.7689 2.2312 2.9712 4.2553 5.8878 5.4223 1.4815.5923 2.8796 1.0224 4.2312 1.4398 2.8765.8892 5.1494 1.5891 6.6342 3.3644.1717.2039.3836.3548.6115.4655.0032.8283-.0048 1.6405.0145 2.4944.0048.236-.0578 1.846.3355 2.2569.4526.4751 2.3564.809 3.2055-.0513.3018-.3066.1493-2.3404.1445-2.5924-.1301-7.082.3274-13.2426 1.3098-18.4081 2.488-1.5506 6.342-1.7416 9.1687.6662 1.9214 1.6372 4.1734 2.496 6.4303 2.4687.3066-.0048.6132-.0257.9198-.0626 2.4816-.2985 4.6582-1.6533 6.2906-3.915 1.1927-1.6533 2.0675-5.3885.1573-8.1623z" fill="#007C7C"/></svg>