<svg width="64" height="64" viewBox="0 0 64 64" fill="none" xmlns="http://www.w3.org/2000/svg"><path d="M15.9451 58.2539c-1.6522-.6887-3.092-1.8341-4.1072-3.3061-1.4184-2.0553-1.88581-4.5603-1.2828-6.8832L15.1654 30.33c.2587-.9973 1.2989-1.5896 2.3604-1.3452l9.4436 2.1677c.5531.1285 1.033.4639 1.3292.9332.2979.4674.3853 1.0241.2408 1.5361-.1748.6263-.4728 1.1704-.8849 1.6165-.2552.2747-.5442.7511-.4924 1.4737.0499.6976.5423 1.4005 1.2007 1.7074.8635.389 1.5968.1998 1.9429.0357.5906-.2765.992-.794 1.1026-1.4184.0643-.3622-.0892-1.0223.9528-1.4059.5602-.2052 1.2578-.4032 1.8073-.6138.6994-.2712 1.1116.273 1.1811.5727.1713.744.1927 1.5112.0607 2.257-.3229 1.8127-1.4826 3.3114-3.1865 4.1143-1.7574.8296-3.8056.7886-5.6861-.1428-1.7039-.8421-2.976-2.4514-3.3239-4.2409-.223-1.1437-.1231-2.2641.2694-3.2632l-4.8404-1.1116-4.1464 15.954c-.3336 1.281-.0856 2.6084.6976 3.7431.7833 1.133 1.9715 1.8859 3.3489 2.1196l1.5058.2569c-.016-.3746.0036-.7458.0589-1.1115.2783-1.8537 1.422-3.4113 3.1365-4.2731 1.7182-.8671 3.836-.8474 5.6237-.0749 2.091.9206 3.5808 2.926 3.7967 5.1098.0838.8511-.0107 1.6843-.2748 2.4568l5.7718.9813 1.6414-8.1982c.1356-.678.6423-1.2204 1.3328-1.4202 1.5807-.537 3.281-.2105 4.5317.8368.3015.2498.8189.5441 1.5612.5192.7297-.025 1.438-.4764 1.7234-1.0955.3854-.8332.1232-1.5272-.066-1.8644-.3229-.5728-.8867-.9742-1.5433-1.1027-.38-.0749-.7475-.0481-1.1008.075-1.4915.5138-3.215.1748-4.455-.8796-.562-.4746-.7815-1.2257-.6138-1.9037l2.0928-8.5372c-.3604-.0268-.7136-.0821-1.0651-.1677-1.9305-.4532-3.5344-1.7199-4.3997-3.4506-.8671-1.7324-.8564-3.6967.0303-5.3917 1.0027-1.9108 3.1223-3.1258 5.4006-3.0991.8886.0054 1.7521.1856 2.5532.5174l1.1347-5.422-8.5176-2.43c-.7154-.2052-1.2596-.744-1.4558-1.4256-.5299-1.5718-.157-3.1615.9527-4.24805.273-.26405.5888-.72436.5727-1.44159-.0107-.69939-.4692-1.42554-1.1079-1.76275-.8636-.44961-1.5879-.28011-1.943-.13203-.6048.24622-1.033.74221-1.1775 1.35953-.0857.35505-.066.71366.0571 1.06871.5049 1.46478.1284 3.06698-.9849 4.15178-.4906.4763-1.2453.6262-1.9376.4281l-7.1027-2.025-3.1829 13.2385c-.1945.8046-1.0384 1.2792-1.8877 1.058l-.8849-.2284c-.8493-.2212-1.381-1.0526-1.1865-1.8573l3.6468-15.16176c.1231-.50492.455-.93312.9242-1.19004.4657-.25335 1.0277-.31044 1.5576-.15879l6.9671 1.98755c-.1427-.77254-.1284-1.56292.0518-2.3194.4157-1.78416 1.6592-3.2204 3.4077-3.93763 1.7503-.71902 3.7663-.60305 5.5166.33007 1.9786 1.04551 3.2846 3.10264 3.3275 5.2472.0267 1.42733-.4568 2.7601-1.3631 3.7985l8.6174 2.4568c1.0456.2997 1.6985 1.3202 1.4898 2.3247l-2.0678 9.8735c-.1142.546-.471 1.0081-.9795 1.2668-.5085.2587-1.1169.289-1.6718.0838-.6173-.223-1.1365-.5423-1.57-.9366-.3087-.2837-.8332-.6174-1.6236-.6245-.7904-.0107-1.5487.4228-1.8894 1.0741-.4497.8599-.2106 1.6039-.0268 1.9697.3104.6209.8885 1.0722 1.5772 1.2382.3996.0945.7939.0856 1.174-.0268.5905-.1748 1.231-.2123 1.909-.1177.5745.0802 1.1044.3978 1.4416.8653.339.4674.4585 1.0437.3247 1.5807l-2.2177 9.0475c.7565-.1338 1.5451-.1267 2.323.0232 1.893.364 3.5308 1.5237 4.4639 3.1883.9314 1.661 1.0152 3.5879.232 5.2882-.8832 1.9162-2.8939 3.2044-5.1223 3.2846-1.4809.0518-2.9207-.3818-4.1054-1.2328l-1.6592 8.2945c-.2016 1.0081-1.1972 1.6522-2.2659 1.4702L29.014 60.7285c-.5798-.1035-1.1008-.4335-1.422-.9153-.3229-.4817-.4175-1.0669-.2622-1.6004.1748-.5976.4424-1.0954.8135-1.5183.2587-.2979.5549-.81.48-1.57-.0732-.7405-.6156-1.4755-1.3167-1.7842-.91-.4014-1.6932-.1713-2.0572.0107-.6137.3105-1.0241.8671-1.124 1.5344-.0606.3818-.0071.76.1499 1.1294.2426.5638.3497 1.1739.3194 1.818-.0232.5442-.2873 1.0473-.7244 1.3774-.4371.3336-1.0081.4674-1.5736.3711l-4.2981-.7315c-.7083-.1231-1.3987-.3229-2.0535-.5959z" fill="#007C7C"/></svg>