<svg width="34" height="17" viewBox="0 0 34 17" fill="none" xmlns="http://www.w3.org/2000/svg"><path fill-rule="evenodd" clip-rule="evenodd" d="M21.1317 15.9786c4.3414.5641 3.9296-7.31817 7.013-5.1324 1.1632.8248-1.0031 4.5281-.364 5.4158 1.6565 2.3004 7.2362-1.1336 6.0571-5.39-.5949-2.14848-7.316-6.87303-12.7569-8.72902C12.6498-.732415 5.16869-1.22478 1.58201 3.87456-2.31666 9.42168 1.3263 15.2884 8.83149 14.9824c6.43131-.2619 7.37221-6.91428 9.65671-6.75023 4.6855.33707-4.6084 6.80403 2.6435 7.74643zM5.67767 8.56557c1.84551 3.09123 9.25983.03188 6.02373-3.38274C9.52353 2.88498 4.26161 6.1921 5.67767 8.56557z" fill="#007C7C"/></svg>