<svg width="215" height="425" viewBox="0 0 215 425" fill="none" xmlns="http://www.w3.org/2000/svg"><path fill-rule="evenodd" clip-rule="evenodd" d="M39.057 1.996A2 2 0 0141.062 0c3.4.008 6.737.08 10.01.213a2 2 0 01-.161 3.996c-3.222-.13-6.508-.2-9.858-.209a2 2 0 01-1.996-2.004zm-8.012.157a2 2 0 01-1.918 2.079 302.03 302.03 0 00-10.038.576A2 2 0 1118.794.82C22.243.564 25.633.37 28.965.235a2 2 0 012.08 1.918zm29.952.661a2 2 0 012.173-1.81c3.438.312 6.801.695 10.091 1.145a2 2 0 01-.542 3.963 220.103 220.103 0 00-9.911-1.125 2 2 0 01-1.811-2.173zm-51.931.877a2 2 0 01-1.768 2.207c-1.67.185-3.353.383-5.05.596a2 2 0 01-.497-3.97c1.716-.214 3.418-.415 5.107-.602a2 2 0 012.208 1.769zM82.88 5.715A2 2 0 0185.23 4.14c3.371.664 6.658 1.4 9.863 2.207a2 2 0 01-.976 3.88 189.884 189.884 0 00-9.66-2.162 2 2 0 01-1.576-2.349zm21.365 5.268a2.001 2.001 0 012.52-1.287 171.578 171.578 0 019.526 3.398 2 2 0 01-1.456 3.726 167.214 167.214 0 00-9.303-3.319 2 2 0 01-1.287-2.518zm20.541 7.894a2 2 0 012.668-.94 156.235 156.235 0 018.993 4.674 2 2 0 11-1.958 3.487 152.893 152.893 0 00-8.764-4.553 2 2 0 01-.939-2.668zm19.26 10.661a2 2 0 012.775-.544 149.712 149.712 0 018.225 5.941 2 2 0 11-2.451 3.161 145.576 145.576 0 00-8.005-5.782 2 2 0 01-.544-2.776zm17.477 13.365a2 2 0 012.826-.125 150.275 150.275 0 017.244 7.096 2 2 0 11-2.894 2.761 145.785 145.785 0 00-7.051-6.906 2.001 2.001 0 01-.125-2.826zm15.303 15.818a2 2 0 012.814.292 156.056 156.056 0 016.141 8.085 2 2 0 11-3.262 2.316 152.247 152.247 0 00-5.984-7.88 2 2 0 01.291-2.813zm12.864 17.866a2 2 0 012.745.682 165.954 165.954 0 014.957 8.84 2 2 0 01-3.547 1.85 161.809 161.809 0 00-4.838-8.627 2 2 0 01.683-2.745zm10.306 19.47a2 2 0 012.63 1.04 171.538 171.538 0 013.752 9.417 2 2 0 11-3.758 1.37 167.063 167.063 0 00-3.665-9.196 2 2 0 011.041-2.63zm7.661 20.646a2 2 0 012.47 1.378 151.912 151.912 0 012.447 9.824 2 2 0 11-3.912.834 147.688 147.688 0 00-2.383-9.565 2 2 0 011.378-2.471zm4.671 21.478a2 2 0 012.181 1.801c.207 2.159.278 3.943.231 5.26a299.898 299.898 0 01-.229 5.218 2.001 2.001 0 01-3.995-.211c.09-1.712.166-3.428.227-5.149.038-1.08-.018-2.676-.216-4.737a2.001 2.001 0 011.801-2.182zm-.533 22.553a2 2 0 011.805 2.177 315.008 315.008 0 01-1.137 10.339 2 2 0 01-3.969-.502c.429-3.385.804-6.788 1.124-10.208a2 2 0 012.177-1.806zm-2.786 22.577a2 2 0 011.646 2.3 337.34 337.34 0 01-1.861 10.241 1.999 1.999 0 11-3.924-.776 336.09 336.09 0 001.839-10.119 2 2 0 012.3-1.646zm-4.345 22.335a2 2 0 011.49 2.404 361.94 361.94 0 01-2.525 10.08 2.001 2.001 0 01-3.866-1.028c.877-3.298 1.71-6.621 2.497-9.967a2 2 0 012.404-1.489zm-5.777 21.987a2 2 0 011.337 2.492 386.353 386.353 0 01-3.142 9.923 2 2 0 11-3.797-1.258 386.06 386.06 0 003.11-9.82 2 2 0 012.492-1.337zm-7.104 21.63a2 2 0 011.19 2.566 414.56 414.56 0 01-3.696 9.716 2 2 0 01-3.72-1.469 412.703 412.703 0 003.66-9.622 2 2 0 012.566-1.191zm-8.301 21.186a2 2 0 011.051 2.626 449.72 449.72 0 01-4.197 9.491 2 2 0 11-3.639-1.659c1.413-3.1 2.801-6.236 4.159-9.407a2 2 0 012.626-1.051zm-9.387 20.709a2 2 0 01.919 2.675 474.89 474.89 0 01-4.661 9.279 2 2 0 01-3.555-1.833 472.742 472.742 0 004.622-9.203 2 2 0 012.675-.918zM163.708 311.4a2 2 0 01.793 2.715 519.488 519.488 0 01-5.09 9.068 2 2 0 11-3.468-1.993c1.695-2.95 3.38-5.95 5.05-8.997a2 2 0 012.715-.793zm-11.305 19.761a2.001 2.001 0 01.673 2.747 541.995 541.995 0 01-5.476 8.833 2 2 0 01-3.379-2.14 542.534 542.534 0 005.435-8.767 2 2 0 012.747-.673zm-38.737 56.191a2 2 0 01.332 2.809 554.908 554.908 0 01-6.508 8.096 2.001 2.001 0 01-3.094-2.536 546.649 546.649 0 006.462-8.037 2 2 0 012.808-.332zm-14.394 17.622c.837.721.932 1.983.212 2.821a482.45 482.45 0 01-6.817 7.761 2 2 0 01-2.976-2.673 478.525 478.525 0 006.76-7.696 2 2 0 012.82-.213z" fill="#004E4C"/><path fill-rule="evenodd" clip-rule="evenodd" d="M133.367 339.744c-2.358-2.459-5.855-3.168-8.622-2.504-2.102.505-3.766 1.787-4.49 3.531-.74 1.785-.619 4.235 1.592 7.068 1.583 2.029 1.782 4.811.498 6.824-.862 1.353-2.398 2.305-4.552 2.507-3.697.346-5.923-3.143-6.423-7.241-.856-6.988 3.436-16.02 15.49-16.719 1.775-.103 2.881-.495 3.467-.894.638-.431.966-.964 1.12-1.483.179-.608.148-1.267-.192-1.942-.313-.624-1.075-1.411-2.334-2.05-5.621-2.857-23.496-4.633-29.278 12.45-3.039 8.982-.404 17.51 3.953 24.495 6.298 10.096 16.146 16.874 16.146 16.874.796.55 1.868.421 2.518-.301 4.654-5.153 12.287-13.578 15.007-22.262 1.972-6.291 1.501-12.718-3.9-18.353z" fill="#005650"/></svg>