<svg width="215" height="417" viewBox="0 0 215 417" fill="none" xmlns="http://www.w3.org/2000/svg">
<path fill-rule="evenodd" clip-rule="evenodd" d="M41.0617 1.04252e-05C39.9571 -0.00251538 39.0596 0.890865 39.0571 1.99543C39.0546 3.1 39.9479 3.99747 41.0525 4C44.4032 4.00766 47.6889 4.07823 50.9106 4.209C52.0143 4.2538 52.9453 3.39542 52.9901 2.29176C53.0349 1.1881 52.1765 0.257092 51.0729 0.212295C47.7992 0.0794182 44.4625 0.00778679 41.0617 1.04252e-05ZM29.1274 4.23151C30.2311 4.1868 31.0895 3.25586 31.0448 2.15219C31.0001 1.04853 30.0692 0.190079 28.9655 0.234791C25.633 0.369802 22.2427 0.563705 18.7937 0.818656C17.6921 0.900084 16.8651 1.85909 16.9466 2.96065C17.028 4.06222 17.987 4.8892 19.0886 4.80777C22.4941 4.55604 25.84 4.3647 29.1274 4.23151ZM63.1699 1.00292C62.0698 0.902907 61.097 1.71358 60.997 2.81362C60.897 3.91365 61.7077 4.88648 62.8077 4.98649C66.1866 5.29369 69.4897 5.67002 72.7187 6.11184C73.8131 6.26159 74.8216 5.49582 74.9714 4.40145C75.1211 3.30708 74.3553 2.29852 73.261 2.14877C69.9712 1.69863 66.6081 1.31551 63.1699 1.00292ZM7.29755 5.8976C8.39544 5.7763 9.18712 4.78795 9.06582 3.69007C8.94452 2.59218 7.95617 1.80049 6.85829 1.92179C5.16934 2.1084 3.4671 2.30911 1.75147 2.52415C0.655478 2.66153 -0.121636 3.66137 0.0157397 4.75736C0.153115 5.85336 1.15296 6.63047 2.24895 6.49309C3.94537 6.28046 5.6282 6.08204 7.29755 5.8976ZM85.2287 4.13871C84.145 3.92542 83.0935 4.6311 82.8802 5.71488C82.6669 6.79866 83.3726 7.85014 84.4564 8.06343C87.7603 8.71364 90.9796 9.43561 94.1164 10.2247C95.1875 10.4942 96.2744 9.84427 96.5439 8.77308C96.8133 7.70188 96.1634 6.61505 95.0922 6.34557C91.8873 5.53932 88.6001 4.8022 85.2287 4.13871ZM106.765 9.69579C105.714 9.35534 104.586 9.93119 104.245 10.982C103.905 12.0328 104.481 13.1606 105.532 13.5011C108.727 14.5362 111.827 15.6442 114.835 16.8193C115.864 17.2211 117.024 16.7128 117.426 15.6839C117.828 14.6551 117.319 13.4952 116.291 13.0934C113.208 11.8895 110.034 10.755 106.765 9.69579ZM127.454 17.9374C126.458 17.4599 125.264 17.8802 124.786 18.8763C124.309 19.8723 124.729 21.0668 125.725 21.5443C128.749 22.9941 131.669 24.5144 134.489 26.0978C135.452 26.6387 136.671 26.2965 137.212 25.3335C137.753 24.3704 137.41 23.1512 136.447 22.6103C133.553 20.9847 130.557 19.4245 127.454 17.9374ZM146.821 28.9935C145.905 28.3773 144.662 28.621 144.046 29.5377C143.43 30.4544 143.673 31.6971 144.59 32.3133C147.369 34.181 150.036 36.1117 152.595 38.096C153.468 38.7728 154.724 38.6139 155.401 37.741C156.078 36.8681 155.919 35.6118 155.046 34.9349C152.416 32.896 149.676 30.9123 146.821 28.9935ZM164.349 42.7775C163.534 42.0318 162.269 42.0877 161.523 42.9025C160.778 43.7172 160.834 44.9823 161.648 45.7281C164.115 47.9856 166.463 50.2917 168.699 52.6348C169.462 53.434 170.728 53.4636 171.527 52.701C172.326 51.9385 172.356 50.6725 171.593 49.8734C169.296 47.4665 166.883 45.0972 164.349 42.7775ZM179.64 59.0122C178.943 58.1548 177.684 58.0244 176.826 58.7208C175.969 59.4172 175.839 60.6768 176.535 61.5342C178.651 64.1389 180.643 66.77 182.519 69.413C183.159 70.3137 184.407 70.5257 185.308 69.8863C186.209 69.247 186.421 67.9985 185.781 67.0978C183.857 64.3863 181.812 61.6861 179.64 59.0122ZM192.435 77.2686C191.865 76.3222 190.636 76.0167 189.69 76.5863C188.743 77.1558 188.438 78.3847 189.007 79.3311C190.746 82.2207 192.356 85.1027 193.845 87.9585C194.355 88.938 195.563 89.3181 196.543 88.8075C197.522 88.2968 197.902 87.0889 197.392 86.1094C195.867 83.1839 194.217 80.2305 192.435 77.2686ZM202.626 97.0971C202.187 96.0836 201.009 95.6178 199.996 96.0569C198.982 96.496 198.516 97.6736 198.955 98.6871C200.316 101.828 201.533 104.903 202.62 107.884C202.998 108.922 204.146 109.456 205.184 109.078C206.222 108.7 206.756 107.552 206.378 106.514C205.265 103.461 204.019 100.313 202.626 97.0971ZM210.127 118.081C209.825 117.018 208.719 116.401 207.657 116.703C206.594 117.005 205.977 118.111 206.279 119.173C207.251 122.596 208.037 125.804 208.662 128.738C208.892 129.819 209.954 130.508 211.035 130.278C212.115 130.048 212.804 128.985 212.574 127.905C211.93 124.884 211.124 121.589 210.127 118.081ZM214.509 139.981C214.404 138.882 213.427 138.076 212.328 138.181C211.228 138.286 210.422 139.263 210.527 140.362C210.725 142.423 210.781 144.02 210.743 145.1C210.682 146.82 210.606 148.537 210.516 150.249C210.458 151.352 211.305 152.293 212.408 152.351C213.511 152.41 214.452 151.562 214.511 150.459C214.602 148.724 214.679 146.985 214.74 145.241C214.787 143.925 214.716 142.141 214.509 139.981ZM213.6 162.911C213.703 161.811 212.895 160.836 211.795 160.734C210.695 160.631 209.72 161.439 209.618 162.539C209.298 165.959 208.923 169.362 208.494 172.747C208.355 173.843 209.131 174.844 210.227 174.983C211.323 175.121 212.324 174.346 212.463 173.25C212.897 169.822 213.277 166.376 213.6 162.911ZM210.655 185.611C210.836 184.521 210.099 183.491 209.009 183.311C207.919 183.13 206.889 183.867 206.709 184.957C206.146 188.35 205.532 191.724 204.87 195.076C204.656 196.16 205.36 197.212 206.444 197.426C207.528 197.64 208.58 196.935 208.794 195.852C209.464 192.46 210.086 189.046 210.655 185.611ZM206.154 208.05C206.406 206.975 205.74 205.898 204.664 205.645C203.589 205.392 202.513 206.059 202.26 207.134C201.473 210.48 200.64 213.803 199.763 217.102C199.479 218.169 200.115 219.265 201.182 219.548C202.25 219.832 203.345 219.197 203.629 218.129C204.515 214.794 205.358 211.434 206.154 208.05ZM200.224 230.125C200.543 229.067 199.945 227.951 198.887 227.632C197.83 227.313 196.714 227.912 196.395 228.969C195.398 232.27 194.361 235.544 193.285 238.79C192.938 239.838 193.506 240.97 194.555 241.317C195.603 241.665 196.735 241.096 197.082 240.048C198.169 236.769 199.217 233.46 200.224 230.125ZM192.973 251.828C193.353 250.791 192.82 249.642 191.783 249.263C190.746 248.883 189.597 249.416 189.217 250.453C188.032 253.692 186.81 256.9 185.557 260.076C185.151 261.103 185.655 262.265 186.683 262.671C187.71 263.076 188.872 262.572 189.277 261.544C190.543 258.338 191.776 255.099 192.973 251.828ZM184.533 273.074C184.968 272.059 184.497 270.883 183.482 270.448C182.466 270.014 181.291 270.484 180.856 271.499C179.498 274.67 178.11 277.807 176.697 280.906C176.238 281.911 176.681 283.098 177.686 283.556C178.692 284.014 179.878 283.571 180.336 282.566C181.762 279.439 183.162 276.274 184.533 273.074ZM153.076 333.908C153.648 332.964 153.347 331.734 152.403 331.161C151.459 330.588 150.229 330.889 149.656 331.833C147.848 334.814 146.034 337.737 144.221 340.6C143.63 341.533 143.907 342.769 144.84 343.36C145.774 343.951 147.009 343.673 147.6 342.74C149.427 339.856 151.254 336.911 153.076 333.908ZM140.821 353.182C141.433 352.262 141.183 351.021 140.264 350.409C139.344 349.797 138.102 350.046 137.491 350.966C135.55 353.882 133.617 356.727 131.699 359.498C131.07 360.406 131.296 361.652 132.205 362.281C133.113 362.91 134.359 362.683 134.987 361.775C136.919 358.985 138.866 356.119 140.821 353.182ZM127.802 371.912C128.451 371.018 128.252 369.768 127.358 369.119C126.464 368.471 125.213 368.67 124.564 369.564C122.494 372.418 120.452 375.178 118.446 377.84C117.781 378.722 117.958 379.976 118.84 380.641C119.722 381.305 120.976 381.129 121.641 380.247C123.66 377.566 125.717 374.787 127.802 371.912ZM113.998 390.161C114.682 389.294 114.534 388.036 113.666 387.352C112.799 386.668 111.542 386.816 110.858 387.684C108.631 390.506 106.473 393.187 104.396 395.721C103.696 396.575 103.821 397.835 104.675 398.535C105.529 399.236 106.789 399.111 107.49 398.256C109.582 395.704 111.756 393.004 113.998 390.161ZM99.4842 407.794C100.204 406.957 100.109 405.694 99.2717 404.974C98.4342 404.254 97.1715 404.349 96.4513 405.186C94.0028 408.034 91.7376 410.604 89.691 412.883C88.9529 413.704 89.0209 414.969 89.8427 415.707C90.6645 416.445 91.929 416.377 92.667 415.555C94.7321 413.256 97.0163 410.664 99.4842 407.794ZM160.771 283.928C163.261 283.335 166.408 283.968 168.531 286.164C173.391 291.195 173.815 296.933 172.04 302.55C169.603 310.268 162.787 317.755 158.593 322.362L158.534 322.427C157.949 323.072 156.985 323.186 156.268 322.696C156.268 322.696 147.404 316.644 141.736 307.629C137.815 301.393 135.444 293.779 138.179 285.759C143.383 270.506 159.47 272.092 164.529 274.643C165.662 275.214 166.348 275.916 166.63 276.473C166.935 277.076 166.964 277.664 166.802 278.208C166.663 278.671 166.369 279.147 165.795 279.531C165.267 279.888 164.272 280.238 162.674 280.33C151.826 280.954 147.963 289.018 148.733 295.257C149.183 298.917 151.187 302.031 154.514 301.722C156.452 301.542 157.834 300.692 158.61 299.484C159.766 297.687 159.587 295.203 158.162 293.391C156.173 290.862 156.063 288.674 156.73 287.08C157.381 285.524 158.879 284.379 160.771 283.928Z" fill="#005650"/>
</svg>
