<svg width="223" height="413" viewBox="0 0 223 413" fill="none" xmlns="http://www.w3.org/2000/svg"><path fill-rule="evenodd" clip-rule="evenodd" d="M38.734 1.995A2 2 0 0140.74 0c3.373.008 6.682.079 9.929.21a2 2 0 11-.162 3.997c-3.195-.13-6.453-.2-9.776-.207a2 2 0 01-1.996-2.005zm-7.913.155a2 2 0 01-1.917 2.08c-3.26.132-6.578.321-9.955.571a2 2 0 11-.295-3.99C22.074.56 25.437.368 28.742.234a2 2 0 012.08 1.917zm29.672.655a2 2 0 012.173-1.81c3.41.31 6.746.69 10.008 1.136a2 2 0 01-.542 3.963 218.241 218.241 0 00-9.828-1.116 2 2 0 01-1.811-2.173zm-51.47.87a2 2 0 01-1.767 2.207c-1.656.183-3.325.38-5.007.59a2 2 0 01-.498-3.969c1.702-.213 3.39-.412 5.065-.597a2 2 0 012.208 1.768zM82.197 5.68a2 2 0 012.348-1.576c3.344.658 6.604 1.389 9.783 2.189a2 2 0 11-.976 3.879 188.218 188.218 0 00-9.58-2.143 2 2 0 01-1.575-2.349zm21.189 5.222a2 2 0 012.519-1.287 169.826 169.826 0 019.448 3.37 2.001 2.001 0 01-1.455 3.726 165.914 165.914 0 00-9.226-3.29 2 2 0 01-1.286-2.52zm20.372 7.827a2 2 0 012.668-.94 155.38 155.38 0 018.92 4.636 2 2 0 01-1.959 3.487 151.347 151.347 0 00-8.69-4.515 2 2 0 01-.939-2.668zm19.101 10.57a2 2 0 012.776-.543 148.539 148.539 0 018.157 5.893 2 2 0 11-2.451 3.16 144.454 144.454 0 00-7.937-5.733 2 2 0 01-.545-2.776zm17.335 13.253a2 2 0 012.826-.125 149.03 149.03 0 017.185 7.038 2 2 0 01-2.894 2.762 144.587 144.587 0 00-6.992-6.849 2 2 0 01-.125-2.826zm15.178 15.686a2 2 0 012.814.292 155.336 155.336 0 016.091 8.02 2 2 0 11-3.262 2.314c-1.86-2.62-3.836-5.23-5.934-7.812a2 2 0 01.291-2.814zm12.759 17.717a2 2 0 012.745.682 164.502 164.502 0 014.917 8.769 2 2 0 01-3.547 1.849 160.37 160.37 0 00-4.797-8.555 2 2 0 01.682-2.745zm21.933 83.45a1.999 1.999 0 011.805 2.177 315.94 315.94 0 01-1.128 10.254 2.001 2.001 0 01-3.968-.503c.425-3.357.797-6.731 1.114-10.123a1.999 1.999 0 012.177-1.805zm-2.762 22.39a2 2 0 011.646 2.3 331.83 331.83 0 01-1.846 10.157 1.999 1.999 0 11-3.924-.776 330.534 330.534 0 001.824-10.035 2 2 0 012.3-1.646zm-4.307 22.15a2 2 0 011.489 2.405 360.329 360.329 0 01-2.504 9.996 2.001 2.001 0 01-3.866-1.027 353.243 353.243 0 002.476-9.885 2 2 0 012.405-1.489zm-5.729 21.806a2 2 0 011.337 2.493 385.166 385.166 0 01-3.116 9.841 2 2 0 01-3.797-1.258 379.701 379.701 0 003.083-9.739 2 2 0 012.493-1.337zm-7.044 21.452a2 2 0 011.19 2.566 416.732 416.732 0 01-3.666 9.636 2 2 0 01-3.72-1.469 410.436 410.436 0 003.63-9.543 2 2 0 012.566-1.19zm-8.232 21.011a2 2 0 011.051 2.626 442.365 442.365 0 01-4.163 9.413 1.999 1.999 0 11-3.639-1.659 438.942 438.942 0 004.125-9.329 2 2 0 012.626-1.051zm-9.308 20.538a2 2 0 01.918 2.675 475.57 475.57 0 01-4.622 9.203 2.001 2.001 0 01-3.555-1.833 476.28 476.28 0 004.584-9.126 2 2 0 012.675-.919zm-10.301 20.075a2 2 0 01.793 2.715 508.244 508.244 0 01-5.049 8.994 2 2 0 01-3.468-1.993 501.02 501.02 0 005.009-8.923 2 2 0 012.715-.793zm-11.211 19.599a2 2 0 01.672 2.747 526.22 526.22 0 01-5.43 8.759 2 2 0 11-3.379-2.14 529.278 529.278 0 005.389-8.694 2 2 0 012.748-.672zm-12.039 19.089a2 2 0 01.557 2.773 559.338 559.338 0 01-5.785 8.523 2 2 0 01-3.289-2.278 539.348 539.348 0 005.744-8.461 2 2 0 012.773-.557zm-12.798 18.556a2 2 0 01.444 2.793 558.465 558.465 0 01-6.111 8.266 1.999 1.999 0 11-3.194-2.407 553.929 553.929 0 006.067-8.207 2.001 2.001 0 012.794-.445zm-13.578 18.083a2 2 0 01.332 2.809 555.069 555.069 0 01-6.455 8.029 2 2 0 01-3.094-2.536 545.57 545.57 0 006.408-7.97 2 2 0 012.809-.332zm-14.275 17.477a2 2 0 01.212 2.82 471.29 471.29 0 01-6.76 7.697 2 2 0 11-2.977-2.673c2.03-2.26 4.276-4.808 6.704-7.632a2 2 0 012.82-.212z" fill="#004E4C"/><path fill-rule="evenodd" clip-rule="evenodd" d="M218.531 110.164c-2.123-2.195-5.27-2.828-7.76-2.235-1.892.45-3.39 1.595-4.041 3.152-.667 1.594-.557 3.782 1.432 6.311 1.425 1.811 1.604 4.296.448 6.093-.776 1.208-2.158 2.058-4.096 2.238-3.327.309-5.331-2.806-5.781-6.465-.77-6.24 3.093-14.303 13.941-14.928 1.598-.091 2.593-.441 3.121-.798.574-.385.868-.86 1.007-1.324.162-.543.133-1.131-.172-1.734-.282-.557-.968-1.26-2.101-1.83-5.059-2.551-21.146-4.137-26.35 11.116-2.735 8.02-.364 15.634 3.557 21.87 5.668 9.015 14.532 15.067 14.532 15.067.717.49 1.681.375 2.266-.269 4.189-4.602 11.058-12.123 13.506-19.877 1.775-5.617 1.351-11.355-3.509-16.387z" fill="#005650"/></svg>