<svg width="223" height="426" viewBox="0 0 223 426" fill="none" xmlns="http://www.w3.org/2000/svg"><path fill-rule="evenodd" clip-rule="evenodd" d="M38.7343 1.99616c.0026-1.104567.9-1.99794808 2.0046-1.9954224 3.373.00771247 6.6823.0787563 9.9291.2105434 1.1037.044798 1.9621.975809 1.9173 2.079469-.0448 1.10366-.9758 1.96204-2.0795 1.91724-3.1949-.12968-6.4532-.19967-9.776-.20726-1.1046-.00253-1.998-.9-1.9955-2.00457zm-7.913.15483c.0448 1.10367-.8137 2.03461-1.9174 2.07932-3.26.13208-6.5781.32183-9.9553.57147-1.1016.08143-2.0606-.74556-2.142-1.84712-.0814-1.10156.7455-2.060568 1.8471-2.141997C22.0744.559806 25.4368.367495 28.742.233592c1.1037-.044712 2.0346.813738 2.0793 1.917398zm29.6717.65513c.1001-1.10003 1.0729-1.910705 2.1729-1.810694 3.41.310024 6.7457.690014 10.0085 1.136474 1.0944.14974 1.8601 1.1583 1.7104 2.25267-.1498 1.09437-1.1583 1.86014-2.2527 1.7104-3.202-.43815-6.4776-.81134-9.8284-1.11597-1.1-.10002-1.9107-1.07284-1.8107-2.17288zm-51.46914.86889c.1213 1.09789-.67038 2.08624-1.76827 2.20754-1.65548.1829-3.32432.37967-5.00664.59054C1.15296 6.61047.153115 5.83335.0157396 4.73736-.121636 3.64137.655478 2.64152 1.75147 2.50415c1.70153-.21328 3.38978-.41234 5.06486-.59741 1.09789-.1213 2.08623.67038 2.20753 1.76827zm73.17174 2.0067c.2133-1.08378 1.2648-1.78945 2.3486-1.57617 3.3438.65806 6.6041 1.38916 9.7828 2.18882 1.0712.26948 1.7211 1.35631 1.4516 2.4275-.2694 1.0712-1.3563 1.72114-2.4275 1.45164-3.1105-.78251-6.3029-1.49845-9.5793-2.14324-1.0838-.21328-1.7895-1.26477-1.5762-2.34855zm21.1894 5.22169c.34-1.0508 1.468-1.62665 2.519-1.2862 3.243 1.0506 6.391 2.1758 9.448 3.3698 1.029.4019 1.537 1.5617 1.136 2.5906-.402 1.0289-1.562 1.5372-2.591 1.1353-2.983-1.1652-6.058-2.264-9.226-3.2904-1.051-.3405-1.627-1.4683-1.286-2.5191zm20.372 7.827c.477-.9961 1.672-1.4164 2.668-.9389 3.077 1.475 6.049 3.0224 8.92 4.6348.963.5409 1.305 1.7601.764 2.7232-.541.963-1.76 1.3052-2.723.7643-2.796-1.5701-5.691-3.0778-8.69-4.5154-.996-.4775-1.417-1.672-.939-2.668zm19.101 10.5712c.617-.9167 1.859-1.1603 2.776-.5442 2.831 1.9032 5.549 3.8707 8.157 5.893.873.6769 1.032 1.9332.355 2.8061-.677.8729-1.933 1.0318-2.806.355-2.537-1.9677-5.182-3.8822-7.937-5.7343-.917-.6162-1.161-1.8588-.545-2.7756zm17.335 13.2524c.746-.8148 2.011-.8707 2.826-.1249 2.513 2.3008 4.907 4.6507 7.185 7.038.762.7991.732 2.0651-.067 2.8276-.799.7626-2.065.733-2.827-.0662-2.217-2.3234-4.546-4.6102-6.992-6.8488-.815-.7458-.871-2.0109-.125-2.8257zm15.178 15.686c.858-.6965 2.117-.566 2.814.2914 2.154 2.6521 4.182 5.3302 6.091 8.0196.639.9007.428 2.1492-.473 2.7885-.901.6394-2.149.4274-2.789-.4733-1.86-2.6209-3.836-5.23-5.934-7.8129-.696-.8573-.566-2.1169.291-2.8133zm12.759 17.7164c.947-.5695 2.176-.264 2.745.6824 1.768 2.9377 3.404 5.867 4.917 8.7686.51.9795.13 2.1874-.849 2.6981-.98.5106-2.187.1305-2.698-.8489-1.476-2.832-3.073-5.6899-4.797-8.5553-.57-.9464-.264-2.1753.682-2.7449zm21.933 83.4496c1.1.103 1.908 1.078 1.805 2.178-.321 3.436-.698 6.854-1.128 10.253-.139 1.096-1.14 1.872-2.236 1.733-1.095-.138-1.871-1.139-1.732-2.235.425-3.357.797-6.732 1.114-10.123.102-1.1 1.077-1.908 2.177-1.806zm-2.762 22.391c1.09.18 1.827 1.21 1.646 2.3-.564 3.407-1.181 6.793-1.846 10.157-.214 1.083-1.266 1.788-2.349 1.574-1.084-.214-1.789-1.266-1.575-2.35.657-3.324 1.266-6.67 1.824-10.035.181-1.09 1.21-1.827 2.3-1.646zm-4.307 22.15c1.075.253 1.742 1.33 1.489 2.405-.79 3.356-1.625 6.689-2.504 9.996-.284 1.068-1.379 1.703-2.447 1.419-1.068-.283-1.703-1.379-1.419-2.446.869-3.271 1.696-6.567 2.476-9.885.253-1.075 1.329-1.742 2.405-1.489zm-5.729 21.806c1.057.319 1.656 1.435 1.337 2.492-.999 3.309-2.038 6.589-3.116 9.842-.348 1.048-1.479 1.617-2.528 1.269-1.048-.347-1.617-1.479-1.269-2.527 1.067-3.219 2.095-6.466 3.083-9.739.32-1.058 1.436-1.656 2.493-1.337zm-7.044 21.452c1.037.379 1.57 1.528 1.19 2.565-1.188 3.244-2.411 6.456-3.666 9.636-.405 1.028-1.567 1.532-2.594 1.127-1.028-.406-1.532-1.567-1.126-2.595 1.243-3.15 2.454-6.331 3.63-9.543.38-1.037 1.528-1.57 2.566-1.19zm-8.232 21.011c1.015.435 1.486 1.61 1.051 2.626-1.36 3.173-2.748 6.312-4.163 9.413-.458 1.005-1.644 1.448-2.649.99-1.005-.458-1.448-1.644-.99-2.649 1.402-3.074 2.778-6.185 4.125-9.329.435-1.016 1.61-1.486 2.626-1.051zm-9.308 20.538c.992.485 1.403 1.683.918 2.675-1.519 3.109-3.062 6.177-4.622 9.203-.507.982-1.713 1.367-2.695.861-.981-.507-1.367-1.713-.86-2.695 1.548-3 3.077-6.043 4.584-9.126.485-.992 1.682-1.403 2.675-.918zm-10.301 20.075c.969.531 1.323 1.747.793 2.715-1.67 3.047-3.354 6.045-5.049 8.993-.55.958-1.773 1.288-2.73.738-.958-.55-1.288-1.773-.738-2.731 1.682-2.925 3.353-5.9 5.009-8.922.531-.969 1.746-1.324 2.715-.793zm-11.211 19.598c.944.573 1.245 1.803.672 2.748-1.806 2.978-3.618 5.898-5.43 8.759-.591.933-1.827 1.211-2.76.62-.933-.591-1.21-1.827-.619-2.76 1.798-2.84 3.596-5.738 5.389-8.694.573-.944 1.803-1.246 2.748-.673zm-12.039 19.09c.92.612 1.169 1.853.557 2.773-1.938 2.913-3.869 5.755-5.785 8.522-.629.908-1.875 1.135-2.783.506-.908-.629-1.134-1.875-.506-2.783 1.903-2.747 3.82-5.569 5.744-8.461.612-.92 1.854-1.169 2.773-.557zm-12.798 18.556c.894.648 1.093 1.899.444 2.793-2.068 2.851-4.108 5.608-6.111 8.266-.664.882-1.918 1.059-2.8.394-.883-.665-1.059-1.919-.394-2.801 1.989-2.64 4.014-5.376 6.067-8.207.649-.895 1.899-1.094 2.794-.445zm-13.578 18.083c.867.684 1.016 1.941.332 2.808-2.224 2.82-4.38 5.498-6.455 8.029-.7.855-1.961.979-2.815.279-.854-.7-.979-1.96-.279-2.814 2.06-2.513 4.2-5.172 6.408-7.971.684-.867 1.942-1.015 2.809-.331zm-14.2753 17.476c.8376.721.9327 1.983.2125 2.821-2.4476 2.846-4.713 5.416-6.7611 7.697-.738.822-2.0025.89-2.8243.151-.8218-.738-.8897-2.002-.1517-2.824 2.0296-2.26 4.2761-4.808 6.7042-7.632.7202-.838 1.9829-.933 2.8204-.213zm-15.0492 16.804c.7968.765.8227 2.031.0577 2.828-1.1483 1.196-2.0421 2.106-2.6507 2.719-.3043.307-.5373.539-.6951.696-.0534.053-.0983.097-.1344.132l-.0454.045-.0467.046-.0124.012-.0035.004-.001.001m3.5315-6.483c-.7969-.765-2.0629-.739-2.8279.058zm-2.8279.058c-1.1323 1.179-2.0105 2.074-2.6039 2.671zm-2.6039 2.671c-.2967.299-.5222.524-.6726.673zm-.6726.673c-.0752.075-.1316.13-.1688.167zm-.1688.167l-.0413.04zm-.0413.04l-.0097.01zm-.0097.01l-.002.002zm2.7927 2.864s-.0006 0-1.3978-1.431l1.3978 1.431c-.7903.771-2.0571.757-2.8288-.034zM218.531 110.164c-2.123-2.195-5.27-2.828-7.76-2.235-1.892.45-3.389 1.595-4.041 3.152-.666 1.594-.557 3.782 1.433 6.311 1.425 1.811 1.603 4.296.447 6.093-.775 1.208-2.157 2.058-4.096 2.238-3.327.309-5.331-2.806-5.781-6.465-.77-6.24 3.093-14.303 13.941-14.928 1.598-.091 2.594-.441 3.121-.798.574-.385.869-.86 1.007-1.324.162-.543.133-1.131-.172-1.734-.282-.5572-.967-1.2593-2.101-1.8302-5.059-2.5508-21.146-4.137-26.35 11.1162-2.735 8.02-.364 15.634 3.557 21.87 5.669 9.015 14.532 15.067 14.532 15.067.717.49 1.682.375 2.266-.269 4.189-4.602 11.058-12.123 13.506-19.877 1.775-5.617 1.351-11.355-3.509-16.387z" fill="#004E4C"/></svg>