<svg width="215" height="429" viewBox="0 0 215 429" fill="none" xmlns="http://www.w3.org/2000/svg"><path d="M2 4.50932C187.029-18.6828 213.419 126.025 212.741 145.171 207.196 301.967 79.1374 427 79.1374 427" stroke="#004E4C" stroke-width="4" stroke-linecap="round" stroke-linejoin="round" stroke-dasharray="10 12"/><path fill="#FFF8EF" d="M116 310h39v59h-39z"/><path fill-rule="evenodd" clip-rule="evenodd" d="M147.326 323.588c-2.378-2.433-5.904-3.134-8.694-2.477-2.12.499-3.797 1.768-4.527 3.493-.747 1.766-.624 4.191 1.605 6.994 1.596 2.007 1.796 4.76.501 6.751-.869 1.339-2.417 2.281-4.589 2.481-3.728.342-5.973-3.11-6.477-7.164-.862-6.915 3.465-15.851 15.619-16.543 1.791-.101 2.906-.489 3.497-.884.643-.427.973-.954 1.128-1.467.181-.603.149-1.254-.193-1.923-.316-.617-1.084-1.395-2.353-2.027-5.668-2.827-23.692-4.585-29.522 12.318-3.065 8.887-.408 17.325 3.985 24.236 6.351 9.989 16.281 16.696 16.281 16.696.803.543 1.884.416 2.539-.298 4.693-5.099 12.389-13.435 15.132-22.027 1.988-6.225 1.513-12.583-3.932-18.159z" fill="#004E4C"/></svg>