<svg width="214" height="413" viewBox="0 0 214 413" fill="none" xmlns="http://www.w3.org/2000/svg"><path fill-rule="evenodd" clip-rule="evenodd" d="M174.278 1.99616c-.002-1.104567-.9-1.99794808-2.004-1.9954224-3.373.00771247-6.683.0787563-9.929.2105434-1.104.044798-1.963.975809-1.918 2.079469.045 1.10366.976 1.96204 2.08 1.91724 3.195-.12968 6.453-.19967 9.776-.20726 1.104-.00253 1.998-.9 1.995-2.00457zm7.913.15483c-.044 1.10367.814 2.03461 1.918 2.07932 3.26.13208 6.578.32183 9.955.57147 1.102.08143 2.061-.74556 2.142-1.84712.081-1.10156-.746-2.060568-1.847-2.141997-3.421-.252857-6.783-.445168-10.088-.579071-1.104-.044712-2.035.813738-2.08 1.917398zm-29.671.65513c-.1-1.10003-1.073-1.910705-2.173-1.810694-3.41.310024-6.746.690014-10.009 1.136474-1.094.14974-1.86 1.1583-1.71 2.25267.15 1.09437 1.158 1.86014 2.252 1.7104 3.203-.43815 6.478-.81134 9.829-1.11597 1.1-.10002 1.911-1.07284 1.811-2.17288zm51.469.86889c-.122 1.09789.67 2.08624 1.768 2.20754 1.655.1829 3.324.37967 5.007.59054 1.096.13738 2.095-.63974 2.233-1.73573.137-1.09599-.64-2.09584-1.736-2.23321-1.701-.21328-3.39-.41234-5.065-.59741-1.098-.1213-2.086.67038-2.207 1.76827zm-73.172 2.0067c-.213-1.08378-1.265-1.78945-2.349-1.57617-3.343.65806-6.604 1.38916-9.782 2.18882-1.072.26948-1.722 1.35631-1.452 2.4275.269 1.0712 1.356 1.72114 2.427 1.45164 3.111-.78251 6.303-1.49845 9.58-2.14324 1.084-.21328 1.789-1.26477 1.576-2.34855zm-21.189 5.22169c-.341-1.0508-1.469-1.62665-2.519-1.2862-3.243 1.0506-6.392 2.1758-9.4486 3.3698-1.0289.4019-1.5372 1.5617-1.1354 2.5906.4019 1.0289 1.5617 1.5372 2.5906 1.1353 2.9834-1.1652 6.0574-2.264 9.2264-3.2904 1.05-.3405 1.626-1.4683 1.286-2.5191zm-20.3723 7.827c-.4774-.9961-1.672-1.4164-2.668-.9389-3.0768 1.475-6.0489 3.0224-8.9196 4.6348-.9631.5409-1.3053 1.7601-.7644 2.7232.5409.963 1.7601 1.3052 2.7232.7643 2.7956-1.5701 5.6911-3.0778 8.6899-4.5154.9961-.4775 1.4164-1.672.9389-2.668zM70.1542 29.3016c-.6162-.9167-1.8588-1.1603-2.7756-.5442-2.8314 1.9032-5.5491 3.8707-8.1572 5.893-.8729.6769-1.0318 1.9332-.355 2.8061.6769.8729 1.9332 1.0318 2.8061.355 2.5375-1.9677 5.1819-3.8822 7.9375-5.7343.9167-.6162 1.1604-1.8588.5442-2.7756zM52.8195 42.554c-.7458-.8148-2.0109-.8707-2.8257-.1249-2.5136 2.3008-4.9067 4.6507-7.1848 7.038-.7625.7991-.7329 2.0651.0662 2.8276.7991.7626 2.0651.733 2.8277-.0662 2.2171-2.3234 4.546-4.6102 6.9917-6.8488.8148-.7458.8707-2.0109.1249-2.8257zM37.6413 58.24c-.8574-.6965-2.117-.566-2.8134.2914-2.1543 2.6521-4.1826 5.3302-6.0915 8.0196-.6393.9007-.4274 2.1492.4734 2.7885.9007.6394 2.1492.4274 2.7885-.4733 1.8603-2.6209 3.8363-5.23 5.9343-7.8129.6965-.8573.566-2.1169-.2913-2.8133zM24.8822 75.9564c-.9464-.5695-2.1753-.264-2.7448.6824-1.7679 2.9377-3.4039 5.867-4.9167 8.7686-.5106.9795-.1305 2.1874.8489 2.6981.9795.5106 2.1874.1305 2.6981-.8489 1.4763-2.832 3.0726-5.6899 4.7969-8.5553.5696-.9464.2641-2.1753-.6824-2.7449zM14.6595 95.2652c-1.0135-.4391-2.1911.0267-2.6302 1.0402-1.3816 3.1894-2.61789 6.3126-3.72156 9.3396-.37827 1.038.15637 2.186 1.19415 2.564 1.03781.379 2.18571-.156 2.56401-1.194 1.0776-2.956 2.2847-6.005 3.6338-9.1196.4391-1.0135-.0266-2.1911-1.0402-2.6302zM7.05963 115.74c-1.06254-.302-2.16853.315-2.47027 1.377-.98832 3.481-1.78869 6.748-2.42711 9.745-.23018 1.08.45901 2.143 1.53933 2.373 1.08033.23 2.14269-.459 2.37285-1.54.62007-2.91 1.39903-6.091 2.36279-9.485.30173-1.062-.31503-2.168-1.37759-2.47zm-4.63539 21.3c-1.09955-.105-2.076203.701-2.181427 1.8-.204987 2.142-.2754216 3.912-.2292027 5.219.0611572 1.729.1372377 3.454.2278897 5.175.058106 1.103.99939 1.95 2.10243 1.892 1.10305-.058 1.95014-.999 1.89203-2.102-.08946-1.698-.16452-3.4-.22485-5.106-.03786-1.071.01796-2.653.21351-4.697.10523-1.099-.70083-2.076-1.80038-2.181zm.52534 22.366c-1.09977.103-1.90806 1.078-1.80535 2.178.3209 3.436.69799 6.854 1.12846 10.253.13876 1.096 1.13959 1.872 2.2354 1.733 1.09582-.138 1.87167-1.139 1.73291-2.235-.42505-3.357-.79734-6.732-1.11409-10.123-.10273-1.1-1.07753-1.908-2.17733-1.806zm2.76195 22.391c-1.08969.18-1.82667 1.21-1.64607 2.3.56461 3.407 1.18083 6.793 1.84576 10.157.21418 1.083 1.26624 1.788 2.34984 1.574 1.0836-.214 1.78844-1.266 1.57424-2.35-.65708-3.324-1.26593-6.67-1.82367-10.035-.18061-1.09-1.21039-1.827-2.3001-1.646zm4.30737 22.15c-1.07521.253-1.74188 1.33-1.48902 2.405.78927 3.356 1.62502 6.689 2.50402 9.996.2838 1.068 1.3792 1.703 2.4467 1.419 1.0675-.283 1.7029-1.379 1.4191-2.446-.8694-3.271-1.6957-6.567-2.476-9.885-.2529-1.075-1.3295-1.742-2.4048-1.489zm5.7287 21.806c-1.0575.319-1.656 1.435-1.3368 2.492.9985 3.309 2.0382 6.589 3.1159 9.842.3474 1.048 1.4791 1.617 2.5276 1.269 1.0485-.347 1.6168-1.479 1.2694-2.527-1.0667-3.219-2.0956-6.466-3.0835-9.739-.3192-1.058-1.4352-1.656-2.4926-1.337zm7.0445 21.452c-1.0373.379-1.5703 1.528-1.1905 2.565 1.1876 3.244 2.4107 6.456 3.6657 9.636.4055 1.028 1.5671 1.532 2.5946 1.127 1.0274-.406 1.5316-1.567 1.1262-2.595-1.2432-3.15-2.4544-6.331-3.6303-9.543-.3798-1.037-1.5285-1.57-2.5657-1.19zm8.2318 21.011c-1.0153.435-1.4859 1.61-1.051 2.626 1.3594 3.173 2.748 6.312 4.1622 9.413.4583 1.005 1.6445 1.448 2.6495.99 1.005-.458 1.4483-1.644.99-2.649-1.4017-3.074-2.7778-6.185-4.1248-9.329-.4349-1.016-1.6105-1.486-2.6259-1.051zm9.308 20.538c-.9924.485-1.4036 1.683-.9186 2.675 1.5197 3.109 3.0619 6.177 4.6226 9.203.5064.982 1.7127 1.367 2.6943.861.9817-.507 1.367-1.713.8607-2.695-1.5479-3-3.0772-6.043-4.5839-9.126-.485-.992-1.6827-1.403-2.6751-.918zm10.3008 20.075c-.9686.531-1.3236 1.747-.7927 2.715 1.6695 3.047 3.3538 6.045 5.0484 8.993.5503.958 1.7729 1.288 2.7306.738.9576-.55 1.2878-1.773.7374-2.731-1.6814-2.925-3.3524-5.9-5.0086-8.922-.5309-.969-1.7464-1.324-2.7151-.793zm36.0483 57.244c-.8942.648-1.0933 1.899-.4447 2.793 2.0679 2.851 4.1079 5.608 6.1109 8.266.6646.882 1.9186 1.059 2.8008.394.8822-.665 1.0586-1.919.3939-2.801-1.9888-2.64-4.0144-5.376-6.0677-8.207-.6485-.895-1.8991-1.094-2.7932-.445zm13.578 18.083c-.8677.684-1.0162 1.941-.3322 2.808 2.2232 2.82 4.3802 5.498 6.4552 8.029.7.855 1.96.979 2.814.279.855-.7.98-1.96.279-2.814-2.059-2.513-4.2-5.172-6.408-7.971-.684-.867-1.941-1.015-2.808-.331zm14.275 17.476c-.838.721-.933 1.983-.213 2.821 2.448 2.846 4.713 5.416 6.761 7.697.738.822 2.003.89 2.825.151.822-.738.89-2.002.151-2.824-2.029-2.26-4.276-4.808-6.704-7.632-.72-.838-1.983-.933-2.82-.213zM93.5305 325.164c-2.1227-2.195-5.2699-2.828-7.7597-2.235-1.892.45-3.3894 1.595-4.0409 3.152-.6666 1.594-.5571 3.782 1.4324 6.311 1.425 1.811 1.6036 4.296.4479 6.093-.7759 1.208-2.1578 2.058-4.0964 2.238-3.3273.309-5.3309-2.806-5.7811-6.465-.7697-6.24 3.093-14.303 13.9411-14.928 1.598-.091 2.5935-.441 3.1209-.798.5742-.385.8687-.86 1.0073-1.324.1617-.543.1331-1.131-.1725-1.734-.2819-.557-.9671-1.259-2.1005-1.83-5.0589-2.551-21.1464-4.137-26.3498 11.116-2.7355 8.02-.3643 15.634 3.5569 21.87 5.6682 9.015 14.5318 15.067 14.5318 15.067.7167.49 1.6814.375 2.2663-.269 4.1888-4.602 11.0578-12.123 13.5058-19.877 1.7748-5.617 1.3511-11.355-3.5095-16.387z" fill="#004E4C"/></svg>