<svg width="178" height="350" viewBox="0 0 178 350" fill="none" xmlns="http://www.w3.org/2000/svg"><path d="M2.00586 4.10848C152.69-14.7787 174.181 103.068 173.629 118.661 169.113 246.352 64.825 348.176 64.825 348.176" stroke="#004E4C" stroke-width="3.28466" stroke-linecap="round" stroke-linejoin="round" stroke-dasharray="8.21 9.85"/><path fill="#FFF8EF" d="M131 47h45v43h-45z"/><path fill-rule="evenodd" clip-rule="evenodd" d="M173.769 52.8804c-1.937-1.9816-4.809-2.5527-7.08-2.0175-1.727.4066-3.093 1.4398-3.687 2.8446-.609 1.4382-.509 3.413 1.307 5.6957 1.3 1.6346 1.463 3.8764.408 5.4981-.708 1.0904-1.969 1.8574-3.737 2.0202-3.036.2789-4.864-2.5322-5.275-5.8344-.702-5.6311 2.822-12.9082 12.72-13.4717 1.458-.0827 2.366-.3987 2.847-.7204.524-.3473.793-.7767.919-1.1948.148-.4904.122-1.021-.157-1.5653-.257-.5026-.882-1.1362-1.916-1.6514-4.616-2.3021-19.294-3.7335-24.042 10.0315-2.496 7.2377-.333 14.1096 3.245 19.7375 5.172 8.1351 13.259 13.5968 13.259 13.5968.654.4427 1.534.3391 2.068-.2424 3.822-4.1527 10.089-10.9409 12.323-17.9385 1.619-5.0692 1.232-10.2474-3.202-14.788z" fill="#004E4C"/></svg>