<svg width="215" height="417" viewBox="0 0 215 417" fill="none" xmlns="http://www.w3.org/2000/svg">
<path fill-rule="evenodd" clip-rule="evenodd" d="M39.0571 1.99543C39.0596 0.89086 39.9571 -0.00252062 41.0617 5.18075e-06C44.4625 0.00778155 47.7992 0.079413 51.0729 0.21229C52.1765 0.257087 53.0349 1.1881 52.9901 2.29176C52.9453 3.39542 52.0143 4.2538 50.9106 4.209C47.6889 4.07823 44.4032 4.00766 41.0525 3.99999C39.9479 3.99747 39.0546 3.09999 39.0571 1.99543ZM31.0448 2.15219C31.0895 3.25585 30.2311 4.1868 29.1274 4.23151C25.84 4.36469 22.4941 4.55603 19.0886 4.80777C17.987 4.88919 17.028 4.06221 16.9466 2.96065C16.8651 1.85908 17.6921 0.900079 18.7937 0.81865C22.2427 0.5637 25.633 0.369797 28.9655 0.234786C30.0692 0.190074 31.0001 1.04852 31.0448 2.15219ZM60.997 2.81361C61.097 1.71358 62.0698 0.902902 63.1699 1.00291C66.6081 1.3155 69.9712 1.69862 73.261 2.14877C74.3553 2.29851 75.1211 3.30707 74.9714 4.40144C74.8216 5.49582 73.8131 6.26159 72.7187 6.11184C69.4897 5.67001 66.1866 5.29368 62.8077 4.98648C61.7077 4.88647 60.897 3.91364 60.997 2.81361ZM9.06582 3.69006C9.18712 4.78795 8.39544 5.7763 7.29755 5.8976C5.6282 6.08204 3.94537 6.28045 2.24895 6.49309C1.15296 6.63046 0.153115 5.85335 0.0157396 4.75736C-0.121636 3.66136 0.655478 2.66152 1.75147 2.52414C3.4671 2.3091 5.16934 2.10839 6.85829 1.92179C7.95617 1.80049 8.94452 2.59217 9.06582 3.69006ZM82.8802 5.71487C83.0935 4.63109 84.145 3.92542 85.2287 4.1387C88.6001 4.80219 91.8873 5.53931 95.0922 6.34557C96.1634 6.61505 96.8133 7.70188 96.5439 8.77307C96.2744 9.84426 95.1875 10.4942 94.1164 10.2247C90.9796 9.4356 87.7603 8.71364 84.4564 8.06342C83.3726 7.85014 82.6669 6.79865 82.8802 5.71487ZM104.245 10.982C104.586 9.93118 105.714 9.35534 106.765 9.69579C110.034 10.755 113.208 11.8895 116.291 13.0934C117.319 13.4952 117.828 14.6551 117.426 15.6839C117.024 16.7128 115.864 17.2211 114.835 16.8193C111.827 15.6442 108.727 14.5362 105.532 13.501C104.481 13.1606 103.905 12.0328 104.245 10.982ZM124.786 18.8763C125.264 17.8802 126.458 17.4599 127.454 17.9374C130.557 19.4245 133.553 20.9847 136.447 22.6103C137.41 23.1512 137.753 24.3704 137.212 25.3335C136.671 26.2965 135.452 26.6387 134.489 26.0978C131.669 24.5144 128.749 22.9941 125.725 21.5443C124.729 21.0668 124.309 19.8723 124.786 18.8763ZM144.046 29.5377C144.662 28.621 145.905 28.3773 146.821 28.9935C149.676 30.9123 152.416 32.896 155.046 34.9349C155.919 35.6118 156.078 36.8681 155.401 37.741C154.724 38.6139 153.468 38.7728 152.595 38.096C150.036 36.1117 147.369 34.181 144.59 32.3133C143.673 31.6971 143.43 30.4544 144.046 29.5377ZM161.523 42.9025C162.269 42.0877 163.534 42.0318 164.349 42.7775C166.883 45.0972 169.296 47.4665 171.593 49.8734C172.356 50.6725 172.326 51.9385 171.527 52.701C170.728 53.4636 169.462 53.4339 168.699 52.6348C166.463 50.2917 164.115 47.9856 161.648 45.7281C160.834 44.9823 160.778 43.7172 161.523 42.9025ZM176.826 58.7208C177.684 58.0244 178.943 58.1548 179.64 59.0122C181.812 61.6861 183.857 64.3863 185.781 67.0978C186.421 67.9985 186.209 69.247 185.308 69.8863C184.407 70.5256 183.159 70.3137 182.519 69.413C180.643 66.77 178.651 64.1389 176.535 61.5342C175.839 60.6768 175.969 59.4172 176.826 58.7208ZM189.69 76.5863C190.636 76.0167 191.865 76.3222 192.435 77.2686C194.217 80.2305 195.867 83.1839 197.392 86.1094C197.902 87.0889 197.522 88.2968 196.543 88.8074C195.563 89.3181 194.355 88.938 193.845 87.9585C192.356 85.1027 190.746 82.2206 189.007 79.3311C188.438 78.3847 188.743 77.1558 189.69 76.5863ZM199.996 96.0569C201.009 95.6178 202.187 96.0836 202.626 97.0971C204.019 100.313 205.265 103.461 206.378 106.514C206.756 107.552 206.222 108.7 205.184 109.078C204.146 109.456 202.998 108.922 202.62 107.884C201.533 104.903 200.316 101.828 198.955 98.6871C198.516 97.6736 198.982 96.496 199.996 96.0569ZM207.657 116.703C208.719 116.401 209.825 117.018 210.127 118.081C211.124 121.589 211.93 124.884 212.574 127.905C212.804 128.985 212.115 130.048 211.035 130.278C209.954 130.508 208.892 129.819 208.662 128.738C208.037 125.803 207.251 122.596 206.279 119.173C205.977 118.111 206.594 117.005 207.657 116.703ZM212.328 138.181C213.427 138.076 214.404 138.882 214.509 139.981C214.716 142.141 214.787 143.925 214.74 145.241C214.679 146.985 214.602 148.724 214.511 150.459C214.452 151.562 213.511 152.41 212.408 152.351C211.305 152.293 210.458 151.352 210.516 150.249C210.606 148.537 210.682 146.82 210.743 145.1C210.781 144.02 210.725 142.423 210.527 140.362C210.422 139.263 211.228 138.286 212.328 138.181ZM211.795 160.734C212.895 160.836 213.703 161.811 213.6 162.911C213.277 166.376 212.897 169.822 212.463 173.25C212.324 174.346 211.323 175.121 210.227 174.983C209.131 174.844 208.355 173.843 208.494 172.747C208.923 169.362 209.298 165.959 209.618 162.539C209.72 161.439 210.695 160.631 211.795 160.734ZM209.009 183.311C210.099 183.491 210.836 184.521 210.655 185.611C210.086 189.046 209.464 192.46 208.794 195.852C208.58 196.935 207.528 197.64 206.444 197.426C205.36 197.212 204.656 196.16 204.87 195.076C205.532 191.724 206.146 188.35 206.709 184.957C206.889 183.867 207.919 183.13 209.009 183.311ZM204.664 205.645C205.74 205.898 206.406 206.975 206.154 208.05C205.358 211.434 204.515 214.794 203.629 218.129C203.345 219.197 202.25 219.832 201.182 219.548C200.115 219.265 199.479 218.169 199.763 217.102C200.64 213.803 201.473 210.48 202.26 207.134C202.513 206.059 203.589 205.392 204.664 205.645ZM198.887 227.632C199.945 227.951 200.543 229.067 200.224 230.125C199.217 233.46 198.169 236.769 197.082 240.048C196.735 241.096 195.603 241.665 194.555 241.317C193.506 240.97 192.938 239.838 193.285 238.79C194.361 235.544 195.398 232.27 196.395 228.969C196.714 227.912 197.83 227.313 198.887 227.632ZM191.783 249.263C192.82 249.642 193.353 250.791 192.973 251.828C191.776 255.099 190.543 258.338 189.277 261.544C188.872 262.572 187.71 263.076 186.683 262.671C185.655 262.265 185.151 261.103 185.557 260.076C186.81 256.9 188.032 253.692 189.217 250.453C189.597 249.416 190.746 248.883 191.783 249.263ZM183.482 270.448C184.497 270.883 184.968 272.059 184.533 273.074C183.162 276.274 181.762 279.439 180.336 282.566C179.878 283.571 178.692 284.014 177.686 283.556C176.681 283.098 176.238 281.911 176.697 280.906C178.11 277.807 179.498 274.67 180.856 271.499C181.291 270.484 182.466 270.014 183.482 270.448ZM152.403 331.161C153.347 331.734 153.648 332.964 153.076 333.908C151.254 336.911 149.427 339.856 147.6 342.74C147.009 343.673 145.774 343.951 144.84 343.36C143.907 342.769 143.63 341.533 144.221 340.6C146.034 337.737 147.848 334.814 149.656 331.833C150.229 330.889 151.459 330.588 152.403 331.161ZM140.264 350.409C141.183 351.021 141.433 352.262 140.821 353.182C138.866 356.119 136.919 358.985 134.987 361.775C134.359 362.683 133.113 362.91 132.205 362.281C131.296 361.652 131.07 360.406 131.699 359.498C133.617 356.727 135.55 353.882 137.491 350.966C138.102 350.046 139.344 349.797 140.264 350.409ZM127.358 369.119C128.252 369.768 128.451 371.018 127.802 371.912C125.717 374.787 123.66 377.566 121.641 380.247C120.976 381.129 119.722 381.305 118.84 380.641C117.958 379.976 117.781 378.722 118.446 377.84C120.452 375.178 122.494 372.418 124.564 369.564C125.213 368.67 126.464 368.471 127.358 369.119ZM113.666 387.352C114.534 388.036 114.682 389.294 113.998 390.161C111.756 393.004 109.582 395.704 107.49 398.256C106.789 399.111 105.529 399.236 104.675 398.535C103.821 397.835 103.696 396.575 104.396 395.721C106.473 393.187 108.631 390.506 110.858 387.684C111.542 386.816 112.799 386.668 113.666 387.352ZM99.2717 404.974C100.109 405.694 100.204 406.957 99.4842 407.794C97.0163 410.664 94.7321 413.256 92.667 415.555C91.929 416.377 90.6645 416.445 89.8427 415.707C89.0209 414.969 88.953 413.704 89.691 412.883C91.7376 410.604 94.0028 408.034 96.4513 405.186C97.1715 404.349 98.4342 404.254 99.2717 404.974Z" fill="#005650"/>
<path fill-rule="evenodd" clip-rule="evenodd" d="M168.531 286.164C166.408 283.968 163.261 283.335 160.771 283.928C158.879 284.379 157.381 285.524 156.73 287.08C156.063 288.674 156.173 290.862 158.162 293.391C159.587 295.203 159.766 297.687 158.61 299.484C157.834 300.692 156.452 301.542 154.514 301.722C151.187 302.031 149.183 298.917 148.733 295.257C147.963 289.018 151.826 280.954 162.674 280.33C164.272 280.238 165.267 279.888 165.795 279.531C166.369 279.147 166.663 278.671 166.802 278.208C166.964 277.664 166.935 277.076 166.63 276.473C166.348 275.916 165.662 275.214 164.529 274.643C159.47 272.092 143.383 270.506 138.179 285.759C135.444 293.779 137.815 301.393 141.736 307.629C147.404 316.644 156.268 322.696 156.268 322.696C156.985 323.186 157.949 323.072 158.534 322.427C162.723 317.826 169.592 310.304 172.04 302.55C173.815 296.933 173.391 291.195 168.531 286.164Z" fill="#005650"/>
</svg>
