<svg width="112" height="29" viewBox="0 0 112 29" fill="none" xmlns="http://www.w3.org/2000/svg">
<g clip-path="url(#clip0)">
<path d="M27.7239 8.0272C27.6467 7.48663 28.11 7.17773 28.3417 7.17773H30.8129C30.9673 7.17773 31.2762 7.25496 31.4307 7.64108L33.6702 14.3596L37.2997 8.49055C37.377 8.3361 37.6086 8.18165 37.8403 8.18165H38.072C38.3809 8.18165 38.5353 8.3361 38.6898 8.49055L42.3193 14.3596L44.5588 7.64108C44.7133 7.33218 44.945 7.17773 45.1766 7.17773H47.5706C47.9567 7.17773 48.3428 7.64108 48.1884 8.10443L43.8638 21.1554C43.7866 21.387 43.5549 21.6187 43.1688 21.6187H42.7055C42.4738 21.6187 42.2421 21.4643 42.0877 21.2326L37.8403 14.5141L33.593 21.2326C33.4385 21.4643 33.2068 21.6187 32.9752 21.6187C32.4346 21.6187 32.4346 21.6187 32.4346 21.6187C32.1257 21.6187 31.8168 21.387 31.8168 21.1554L27.7239 8.0272Z" fill="#EDFDFB"/>
<path d="M50.5049 7.87275C50.5049 7.48663 50.8138 7.17773 51.1999 7.17773H53.7483C54.0572 7.17773 54.4433 7.48663 54.4433 7.87275V20.9237C54.4433 21.3098 54.1344 21.6187 53.7483 21.6187H51.1999C50.891 21.6187 50.5049 21.3098 50.5049 20.9237V7.87275Z" fill="#EDFDFB"/>
<path d="M70.7379 20.4604C68.9617 18.2208 64.7916 13.2785 64.7916 13.2785C64.7916 13.2785 67.8033 10.1895 69.4251 8.49056C69.6567 8.25889 69.734 7.94999 69.5795 7.64109C69.5023 7.33219 69.1934 7.25497 68.8845 7.17774H66.1816C65.95 7.17774 65.7955 7.25497 65.6411 7.40942C64.7916 8.33611 61.5482 11.5023 61.5482 11.5023V0.999784C61.5482 0.768111 61.4709 0.613661 61.3165 0.459213C61.162 0.304764 61.0076 0.227539 60.7759 0.227539H58.3047C58.0731 0.227539 57.9186 0.304764 57.7642 0.459213C57.9186 0.613661 57.8414 0.845335 57.8414 0.999784V20.8465C57.8414 21.0782 57.9186 21.2326 58.0731 21.3871C58.2275 21.5415 58.382 21.6187 58.6136 21.6187H61.0076C61.2393 21.6187 61.3937 21.5415 61.5482 21.3871C61.7026 21.2326 61.7798 21.0782 61.7798 20.8465V16.2902L62.4749 15.6724C62.4749 15.6724 66.1816 20.1515 67.0311 21.3098C67.1855 21.4643 67.4172 21.6187 67.6489 21.6187H70.2745C70.5834 21.6187 70.8151 21.5415 70.9695 21.2326C71.0468 21.0009 70.9695 20.692 70.7379 20.4604Z" fill="#EDFDFB"/>
<path d="M49.9648 2.69872C49.9648 1.30868 51.046 0.227539 52.436 0.227539C53.8261 0.227539 54.9072 1.30868 54.9072 2.69872C54.9072 4.08876 53.8261 5.16991 52.436 5.16991C51.046 5.24713 49.9648 4.08876 49.9648 2.69872Z" fill="#EDFDFB"/>
<path d="M81.0088 12.5061C80.9315 11.1161 79.8504 10.0349 78.2287 10.0349C76.4525 10.0349 75.3714 11.1161 75.1397 12.5061H81.0088ZM84.0977 18.2207C84.4066 18.4524 84.4839 18.8385 84.2522 19.1474C83.171 20.6147 81.086 21.8503 78.3831 21.8503C74.0586 21.8503 71.124 18.4524 71.124 14.2823C71.124 10.2666 74.1358 6.7915 78.3831 6.7915C82.0899 6.7915 85.0244 9.57159 85.0244 13.4328C85.0244 13.6645 84.9472 14.1278 84.9472 14.3595C84.9472 14.7456 84.6383 14.9773 84.2522 14.9773H74.908C74.908 16.7535 76.3753 18.2207 78.4604 18.298C79.3098 18.298 80.4682 18.1435 81.5493 16.9851C81.781 16.7535 82.1671 16.6762 82.476 16.9079C83.0166 17.3713 83.6344 17.9118 84.0977 18.2207Z" fill="#EDFDFB"/>
<path d="M95.1409 21.2326C95.4498 21.0782 95.6042 20.7693 95.527 20.4604C95.4498 19.9198 95.2181 19.2248 95.1409 18.6842C95.0637 18.5298 94.9864 18.3753 94.832 18.2209C94.6775 18.1436 94.5231 18.0664 94.2914 18.1436C93.7508 18.2981 93.0558 18.4525 92.5153 18.4525C92.0519 18.4525 91.6658 18.1436 91.6658 17.6803V10.7301H94.9092C95.2953 10.7301 95.6042 10.4212 95.6042 10.0351V7.95C95.6042 7.56387 95.2953 7.25498 94.9092 7.25498H91.6658V3.39375C91.6658 3.00763 91.3569 2.69873 90.9708 2.69873H88.4224C88.1135 2.69873 87.7273 3.00763 87.7273 3.39375V7.17775H86.569C86.2601 7.17775 85.9512 7.48665 85.9512 7.87277V9.95783C85.9512 10.2667 86.2601 10.6529 86.569 10.6529H87.7273V17.2169C87.7273 19.6881 88.4996 21.8504 91.6658 21.8504C92.0519 21.8504 92.438 21.8504 92.7469 21.7732H92.8241C93.6736 21.696 94.5231 21.4643 95.1409 21.2326Z" fill="#EDFDFB"/>
<path fill-rule="evenodd" clip-rule="evenodd" d="M9.42099 1C18.8424 1 18.9196 5.32457 18.9196 10.4214C18.9196 15.5182 18.9196 22.1595 10.4249 22.1595C9.88434 22.1595 9.42099 21.7734 9.42099 21.2328V19.7656C9.42099 19.3022 9.03487 18.8389 8.57152 18.8389C-0.232071 18.6072 -0.000397383 15.5954 -0.000397383 10.4214C-0.000397383 5.32457 -0.000397697 1 9.42099 1Z" fill="#FDA700"/>
<path d="M3.3208 26.2524C3.3208 24.8624 4.40194 23.7812 5.79198 23.7812C7.18203 23.7812 8.26317 24.8624 8.26317 26.2524C8.26317 27.6425 7.18203 28.7236 5.79198 28.7236C4.40194 28.7236 3.3208 27.5653 3.3208 26.2524Z" fill="#FDA700"/>
</g>
<defs>
<clipPath id="clip0">
<rect width="112" height="29" fill="white"/>
</clipPath>
</defs>
</svg>
