<svg width="103" height="32" viewBox="0 0 103 32" fill="none" xmlns="http://www.w3.org/2000/svg">
<g clip-path="url(#clip0)">
<path d="M29.8442 8.51604C29.7611 7.93938 30.2599 7.60986 30.5092 7.60986H33.1695C33.3357 7.60986 33.6682 7.69224 33.8345 8.10414L36.2453 15.2712L40.1525 9.01032C40.2356 8.84556 40.485 8.6808 40.7344 8.6808H40.9838C41.3163 8.6808 41.4826 8.84556 41.6489 9.01032L45.5561 15.2712L47.9669 8.10414C48.1331 7.77462 48.3825 7.60986 48.6319 7.60986H51.209C51.6247 7.60986 52.0403 8.10414 51.8741 8.59842L47.2187 22.5206C47.1356 22.7677 46.8862 23.0148 46.4705 23.0148H45.9717C45.7223 23.0148 45.4729 22.8501 45.3067 22.6029L40.7344 15.4359L36.1622 22.6029C35.9959 22.8501 35.7465 23.0148 35.4971 23.0148C34.9152 23.0148 34.9152 23.0148 34.9152 23.0148C34.5827 23.0148 34.2502 22.7677 34.2502 22.5206L29.8442 8.51604Z" fill="#005650"/>
<path d="M54.3682 8.35128C54.3682 7.93938 54.7007 7.60986 55.1163 7.60986H57.8597C58.1922 7.60986 58.6079 7.93938 58.6079 8.35128V22.2734C58.6079 22.6853 58.2753 23.0148 57.8597 23.0148H55.1163C54.7838 23.0148 54.3682 22.6853 54.3682 22.2734V8.35128Z" fill="#005650"/>
<path d="M76.1482 21.7792C74.2362 19.3902 69.7471 14.1179 69.7471 14.1179C69.7471 14.1179 72.9892 10.8228 74.735 9.01041C74.9844 8.76327 75.0675 8.43376 74.9012 8.10424C74.8181 7.77472 74.4856 7.69234 74.1531 7.60996H71.2435C70.9941 7.60996 70.8278 7.69234 70.6615 7.8571C69.7471 8.84565 66.2556 12.2232 66.2556 12.2232V1.0196C66.2556 0.772458 66.1724 0.607699 66.0062 0.442939C65.8399 0.27818 65.6736 0.195801 65.4243 0.195801H62.764C62.5147 0.195801 62.3484 0.27818 62.1821 0.442939C62.3484 0.607699 62.2653 0.854837 62.2653 1.0196V22.1911C62.2653 22.4383 62.3484 22.603 62.5146 22.7678C62.6809 22.9326 62.8472 23.0149 63.0966 23.0149H65.6737C65.923 23.0149 66.0893 22.9326 66.2556 22.7678C66.4218 22.603 66.505 22.4383 66.505 22.1911V17.3307L67.2531 16.6717C67.2531 16.6717 71.2435 21.4497 72.1579 22.6854C72.3242 22.8502 72.5736 23.0149 72.823 23.0149H75.6494C75.982 23.0149 76.2314 22.9326 76.3976 22.603C76.4807 22.3559 76.3976 22.0264 76.1482 21.7792Z" fill="#005650"/>
<path d="M53.7861 2.83195C53.7861 1.34911 54.95 0.195801 56.4463 0.195801C57.9427 0.195801 59.1066 1.34911 59.1066 2.83195C59.1066 4.31478 57.9427 5.46809 56.4463 5.46809C54.95 5.55047 53.7861 4.31478 53.7861 2.83195Z" fill="#005650"/>
<path d="M87.2048 13.2943C87.1217 11.8115 85.9578 10.6582 84.2121 10.6582C82.3 10.6582 81.1362 11.8115 80.8868 13.2943H87.2048ZM90.5301 19.3904C90.8626 19.6376 90.9457 20.0495 90.6963 20.379C89.5325 21.9442 87.2879 23.2623 84.3783 23.2623C79.723 23.2623 76.564 19.6376 76.564 15.1891C76.564 10.9053 79.8061 7.19824 84.3783 7.19824C88.3686 7.19824 91.5276 10.1639 91.5276 14.2829C91.5276 14.53 91.4445 15.0243 91.4445 15.2714C91.4445 15.6833 91.112 15.9305 90.6963 15.9305H80.6374C80.6374 17.8252 82.2169 19.3904 84.4615 19.4728C85.3759 19.4728 86.6229 19.308 87.7867 18.0723C88.0361 17.8252 88.4518 17.7428 88.7843 17.99C89.3662 18.4842 90.0313 19.0609 90.5301 19.3904Z" fill="#005650"/>
<path d="M102.418 22.6031C102.751 22.4384 102.917 22.1088 102.834 21.7793C102.751 21.2027 102.501 20.4613 102.418 19.8846C102.335 19.7198 102.252 19.5551 102.086 19.3903C101.919 19.3079 101.753 19.2256 101.504 19.3079C100.922 19.4727 100.173 19.6375 99.5916 19.6375C99.0928 19.6375 98.6771 19.3079 98.6771 18.8137V11.3995H102.169C102.584 11.3995 102.917 11.07 102.917 10.6581V8.43384C102.917 8.02194 102.584 7.69243 102.169 7.69243H98.6771V3.57345C98.6771 3.16155 98.3446 2.83203 97.9289 2.83203H95.1856C94.8531 2.83203 94.4374 3.16155 94.4374 3.57345V7.61005H93.1904C92.8579 7.61005 92.5254 7.93956 92.5254 8.35146V10.5757C92.5254 10.9052 92.8579 11.3171 93.1904 11.3171H94.4374V18.3194C94.4374 20.9555 95.2687 23.2622 98.6771 23.2622C99.0928 23.2622 99.5084 23.2622 99.841 23.1798H99.9241C100.839 23.0974 101.753 22.8503 102.418 22.6031Z" fill="#005650"/>
<path fill-rule="evenodd" clip-rule="evenodd" d="M10.1417 1.02002C20.2837 1.02002 20.3669 5.63327 20.3669 11.0703C20.3669 16.5074 20.3669 23.592 11.2224 23.592C10.6405 23.592 10.1417 23.1801 10.1417 22.6035V21.0382C10.1417 20.544 9.72604 20.0497 9.22725 20.0497C-0.249747 19.8026 -0.00035308 16.5898 -0.00035308 11.0703C-0.00035308 5.63327 -0.000353418 1.02002 10.1417 1.02002Z" fill="#FDA700"/>
<path d="M3.57471 27.9579C3.57471 26.4751 4.73855 25.3218 6.23492 25.3218C7.73129 25.3218 8.89513 26.4751 8.89513 27.9579C8.89513 29.4408 7.73129 30.5941 6.23492 30.5941C4.73855 30.5941 3.57471 29.3584 3.57471 27.9579Z" fill="#FDA700"/>
</g>
<defs>
<clipPath id="clip0">
<rect width="103" height="31.6139" fill="white"/>
</clipPath>
</defs>
</svg>
