<svg width="33" height="21" viewBox="0 0 33 21" fill="none" xmlns="http://www.w3.org/2000/svg">
<path d="M6 1.5C6 0.671573 6.67157 0 7.5 0H31.5C32.3284 0 33 0.671573 33 1.5C33 2.32843 32.3284 3 31.5 3H7.5C6.67157 3 6 2.32843 6 1.5Z" fill="#005650"/>
<path d="M11 19.5C11 18.6716 11.6716 18 12.5 18H31.5C32.3284 18 33 18.6716 33 19.5C33 20.3284 32.3284 21 31.5 21H12.5C11.6716 21 11 20.3284 11 19.5Z" fill="#005650"/>
<path d="M0 10.5C0 9.67157 0.671573 9 1.5 9H31.5C32.3284 9 33 9.67157 33 10.5C33 11.3284 32.3284 12 31.5 12H1.5C0.671573 12 0 11.3284 0 10.5Z" fill="#005650"/>
</svg>
