<svg width="50" height="23" viewBox="0 0 50 23" fill="none" xmlns="http://www.w3.org/2000/svg"><path fill-rule="evenodd" clip-rule="evenodd" d="M49.12 5.88837c-.9318-2.91447-2.536-4.34233-5.7803-4.998857-3.4828-.705554-9.5569-.262358-20.4178-.49154C15.3115.238503 9.85559-.2631 6.48385.175908 3.09877.619445 1.31589 1.99946.690623 4.32613.182957 6.216.657626 9.22438 2.49714 13.8272c1.4902 3.7262 3.49137 6.045 5.78965 7.4324 2.34021 1.4134 5.03091 1.8816 7.99181 1.7048 5.073-.303 11.0497-2.614 17.2274-4.2933 5.7877-1.5744 10.6542-3.2014 13.2695-5.3742 2.3896-1.9844 3.3146-4.37855 2.3445-7.40853zm-4.3235 1.3445c.4866 1.52231-.5091 2.49571-2.0409 3.40393-2.4602 1.4584-6.1912 2.5639-10.4556 3.723-4.7479 1.2914-9.3652 3.0026-13.5188 3.7807-3.1487.5908-5.9944.6859-8.3011-.8041-1.52385-.9842-2.76295-2.6459-3.76505-5.1519-.73214-1.8309-1.2394-3.33393-1.50754-4.57085-.19485-.89731-.28064-1.59619-.13439-2.14328.0875-.32357.36721-.4627.72294-.58496.36758-.12678.79509-.21014 1.28228-.27354 3.22916-.42295 8.45616.10434 15.74686.25811 8.8006.1846 14.3704-.11435 17.9413.17962 2.331.19451 3.5004.52936 4.03 2.18327z" fill="#FDA700"/></svg>