<svg width="48" height="41" viewBox="0 0 48 41" fill="none" xmlns="http://www.w3.org/2000/svg"><path fill-rule="evenodd" clip-rule="evenodd" d="M35.0501 28.5475c-3.3993 1.028-8.433.799-13.7572-.7781-5.3208-1.5762-9.7652-4.1543-12.21521-6.9175-1.25999-1.4196-1.99635-2.8503-1.67131-4.1502.32614-1.3037 1.62999-2.1326 3.38212-2.6631 3.3999-1.0288 8.4345-.7993 13.7582.7786 5.3208 1.5763 9.7653 4.1543 12.2158 6.9168 1.2599 1.4195 1.9948 2.8505 1.6703 4.1496-.3247 1.3035-1.6285 2.1324-3.3827 2.6639zm12.1943-8.1388c-1.0643-3.4286-1.8081-6.2608-2.7343-8.6112-.9964-2.52411-2.2122-4.51744-4.1536-6.1159-2.5135-2.07051-6.2963-3.49743-12.6439-4.43736C17.5905-.254204 11.3358-.63778 7.31707 1.43916 3.241 3.54764 1.29429 8.18559.14462 17.0569c-.465977 3.5915.232909 6.2468 1.53899 8.2874 1.94067 3.0299 5.28647 4.7287 8.50839 6.0551 1.629.671 3.2162 1.2478 4.5056 1.8996 1.035.523 1.8797 1.057 2.2418 1.8271 1.0784 2.2959 2.0132 3.7361 2.8263 4.5784.7341.7601 1.4309 1.1153 2.0639 1.2423 1.0337.2067 2.0251-.201 2.9588-1.0187.8093-.7074 1.622-1.7364 2.5877-2.4904.7217-.5623 1.5317-.9819 2.5882-.6967 9.1742 2.4773 21.1784-3.7872 17.2801-16.3323z" fill="#FDA700"/></svg>