<svg width="48" height="65" viewBox="0 0 48 65" fill="none" xmlns="http://www.w3.org/2000/svg"><path fill-rule="evenodd" clip-rule="evenodd" d="M28.9952 63.8688c.9235.8837 2.2249 1.2824 3.5023 1.0791 1.2722-.1981 2.374-.98 2.9728-2.1034 0 0 8.3381-15.7311 11.4253-30.9487 2.0652-10.2023 1.4956-20.1336-3.9575-26.00636-3.8164-4.10806-10.052-6.644338-19.923-5.687703C9.8466 1.47377 3.5232 6.30647 1.13862 12.1193c-2.35797 5.745-.894162 13.0957 2.92224 20.5611C10.7249 45.6928 24.218 59.3202 28.9952 63.8688zm-5.6687-47.326c3.7977-.7585 7.4705 1.8324 8.2769 5.6876.8037 3.8526-1.5384 7.6531-5.3308 8.4116-3.7925.7586-7.4705-1.8377-8.2715-5.6877-.8038-3.8526 1.5329-7.653 5.3254-8.4115z" fill="#004E4C"/></svg>