<svg width="50" height="58" viewBox="0 0 50 58" fill="none" xmlns="http://www.w3.org/2000/svg"><path fill-rule="evenodd" clip-rule="evenodd" d="M10.2106 7.85588C3.12888 12.3236-2.5135 18.4276 2.28176 32.6613 6.85277 46.2351 14.1798 53.4478 29.4184 56.8547c15.3518 3.4338 10.4108-1.3792 4.5576-7.4736-5.8532-6.0963 6.8039-1.9356 13.1918-14.7133 6.386-12.7777 1.3857-51.0034-36.9572-26.81192zm17.8279 5.29062c-3.9424 2.7086-5.3568 7.5638-3.1566 10.8345 2.1983 3.2707 7.1853 3.7292 11.1276 1.0205 3.9405-2.7086 5.3549-7.5638 3.1566-10.8344-2.2002-3.2726-7.1852-3.7292-11.1276-1.0206z" fill="#007C7C"/></svg>