<svg width="48" height="48" viewBox="0 0 48 48" fill="none" xmlns="http://www.w3.org/2000/svg"><path fill-rule="evenodd" clip-rule="evenodd" d="M5.88335 7.29609S22.2054 30.1665 40.7507 43.417c2.0649 1.4758 4.9314.9887 6.4-1.0864 1.4686-2.075.984-4.956-1.0808-6.4319C28.6436 23.4482 13.3468 1.92684 13.3468 1.92684 11.8723-.142351 9.00274-.620498 6.94378.861291 4.88481 2.34308 4.40889 5.2269 5.88335 7.29609zM2.71981 29.3453S12.7486 41.2098 18.2478 46.389c1.8487 1.7395 4.7502 1.6423 6.4787-.2149 1.7288-1.8601 1.6321-4.7797-.2136-6.519-5.2481-4.9419-14.80832-16.2813-14.80832-16.2813-1.6377-1.9411-4.53205-2.1779-6.45815-.5298-1.92903 1.6479-2.16432 4.5603-.52662 6.5013z" fill="#FFA722"/></svg>