<svg width="63" height="46" viewBox="0 0 63 46" fill="none" xmlns="http://www.w3.org/2000/svg">
<path fill-rule="evenodd" clip-rule="evenodd" d="M57.3196 0.826165C60.1899 0.764849 62.5596 3.03469 62.6586 5.93732C62.9161 13.8915 62.8608 28.9846 59.3132 37.0991C58.0259 40.0411 50.7157 38.2979 45.8707 36.7652C43.3548 35.9659 41.8302 33.4002 42.2999 30.7615C43.4738 24.1732 45.6538 11.926 46.8172 5.39708C47.269 2.86579 49.4296 0.995003 51.9642 0.941361C53.6446 0.905971 55.579 0.863516 57.3196 0.826165Z" fill="#FDA700"/>
<path fill-rule="evenodd" clip-rule="evenodd" d="M7.57275 24.1629C10.3216 23.5665 13.0973 25.3048 13.858 28.1009C14.9399 32.1436 16.0631 37.8484 15.2361 42.0565C14.3329 46.6565 8.99207 46.109 5.18518 45.0827C2.87908 44.4569 1.23125 42.3471 1.15689 39.9285C1.06651 37.0377 0.945142 33.0557 0.851217 30.0318C0.773324 27.4799 2.46406 25.2706 4.89628 24.7431C5.76358 24.5541 6.68504 24.3551 7.57275 24.1629Z" fill="#FDA700"/>
<path fill-rule="evenodd" clip-rule="evenodd" d="M30.3691 44.5321C31.7887 44.7005 33.2203 44.2802 34.3369 43.3684C35.4535 42.4565 36.1587 41.1303 36.2948 39.6938C37.0504 31.6071 38.0041 16.7447 35.5695 10.542C33.3391 4.8579 25.986 7.21771 21.5608 9.27388C19.4832 10.2406 18.2429 12.4382 18.4855 14.7285C19.1235 20.7641 20.4026 32.8617 21.083 39.2744C21.345 41.7452 23.2601 43.6973 25.708 43.9855C27.167 44.1554 28.8257 44.3511 30.3691 44.5321Z" fill="#FDA700"/>
</svg>
