<svg width="124" height="38" viewBox="0 0 124 38" fill="none" xmlns="http://www.w3.org/2000/svg"><path d="M35.8998 11.0366c-.1-.7.5-1.10002.8-1.10002h3.2c.2 0 .6.10002.8.60002l2.9 8.7 4.7-7.6c.1-.2.4-.4.7-.4h.3c.4 0 .6.2.8.4l4.7 7.6 2.9-8.7c.2-.4.5-.60002.8-.60002h3.1c.5 0 1 .60002.8 1.20002l-5.6 16.9c-.1.3-.4.6-.9.6h-.6c-.3 0-.6-.2-.8-.5l-5.5-8.7-5.5 8.7c-.2.3-.5.5-.8.5h-.7c-.4 0-.8-.3-.8-.6l-5.3-17zM65.3999 10.8366c0-.5.4-.90002.9-.90002h3.3c.4 0 .9.40002.9.90002v16.9c0 .5-.4.9-.9.9h-3.3c-.4 0-.9-.4-.9-.9v-16.9zM91.5998 27.1366c-2.3-2.9-7.7-9.3-7.7-9.3s3.9-4 6-6.2c.3-.3.4-.7.2-1.1-.1-.4-.5-.5-.9-.60002h-3.5c-.3 0-.5.10002-.7.30002-1.1 1.2-5.3 5.3-5.3 5.3V1.93658c0-.3-.1-.5-.3-.7-.2-.2-.4-.299996-.7-.299996h-3.2c-.3 0-.5.099996-.7.299996.2.2.1.5.1.7V27.6366c0 .3.1.5.3.7.2.2.4.3.7.3h3.1c.3 0 .5-.1.7-.3.2-.2.3-.4.3-.7v-5.9l.9-.8s4.8 5.8 5.9 7.3c.2.2.5.4.8.4h3.4c.4 0 .7-.1.9-.5.1-.3 0-.7-.3-1zM64.6997 4.13658c0-1.8 1.4-3.199996 3.2-3.199996 1.8 0 3.2 1.399996 3.2 3.199996s-1.4 3.2-3.2 3.2c-1.8.1-3.2-1.4-3.2-3.2zM104.9 16.8366c-.1-1.8-1.5-3.2-3.6-3.2-2.3004 0-3.7004 1.4-4.0004 3.2H104.9zm4 7.4c.4.3.5.8.2 1.2-1.4 1.9-4.1 3.5-7.6 3.5-5.6004 0-9.4004-4.4-9.4004-9.8 0-5.2 3.9-9.70002 9.4004-9.70002 4.8 0 8.6 3.60002 8.6 8.60002 0 .3-.1.9-.1 1.2 0 .5-.4.8-.9.8H96.9996c0 2.3 1.9 4.2 4.6004 4.3 1.1 0 2.6-.2 4-1.7.3-.3.8-.4 1.2-.1.7.6 1.5 1.3 2.1 1.7zM123.2 28.1366c.4-.2.6-.6.5-1-.1-.7-.4-1.6-.5-2.3-.1-.2-.2-.4-.4-.6-.2-.1-.4-.2-.7-.1-.7.2-1.6.4-2.3.4-.6 0-1.1-.4-1.1-1v-9h4.2c.5 0 .9-.4.9-.9v-2.7c0-.5-.4-.9-.9-.9h-4.2v-5c0-.5-.4-.9-.9-.9h-3.3c-.4 0-.9.4-.9.9v4.9h-1.5c-.4 0-.8.4-.8.9v2.7c0 .4.4.9.8.9h1.5v8.5c0 3.2 1 6 5.1 6 .5 0 1 0 1.4-.1h.1c1.1-.1 2.2-.4 3-.7z" fill="#FFFAF4"/><path fill-rule="evenodd" clip-rule="evenodd" d="M12.1998 1.93658c12.2 0 12.3 5.6 12.3 12.20002 0 6.6 0 15.2-11 15.2-.7 0-1.3-.5-1.3-1.2v-1.9c0-.6-.5-1.2-1.1-1.2-11.400026-.3-11.100027-4.2-11.100027-10.9 0-6.60002 0-12.20002 12.200027-12.20002z" fill="#FFA722"/><path d="M4.2998 34.6366c0-1.8 1.4-3.2 3.2-3.2 1.8 0 3.2 1.4 3.2 3.2 0 1.8-1.4 3.2-3.2 3.2-1.8 0-3.2-1.5-3.2-3.2z" fill="#FFA722"/></svg>