<svg width="76" height="111" viewBox="0 0 76 111" fill="none" xmlns="http://www.w3.org/2000/svg"><path fill-rule="evenodd" clip-rule="evenodd" d="M12.2698 100.819c.0958-5.5066 4.4235-9.8117 10.0492-9.7144 5.6283.0972 9.9287 4.5529 9.8342 10.0594-.0958 5.503-4.5509 9.932-10.1792 9.834-5.6257-.097-9.8001-4.676-9.7042-10.179zM38.6222.0181095C76.5272.675576 76.2903 18.0108 75.9343 38.5525c-.3559 20.5417-.8159 47.0828-34.8148 46.4924-2.1427-.0369-3.9389-1.6423-3.8992-3.7872l.1109-6.0391c.0137-1.9724-1.5279-3.6202-3.4967-3.712C-1.54446 69.8451-.252034 57.7793.103933 37.2375.459899 16.6958.717286-.639357 38.6222.0181095z" fill="#FDA700"/></svg>