<svg width="84" height="123" viewBox="0 0 84 123" fill="none" xmlns="http://www.w3.org/2000/svg"><path fill-rule="evenodd" clip-rule="evenodd" d="M13.5613 111.718c.1059-6.102 4.8892-10.872 11.107-10.764 6.2209.108 10.9739 5.045 10.8695 11.146-.1059 6.099-5.03 11.006-11.2508 10.898-6.2178-.107-10.8316-5.182-10.7257-11.28zM42.6877.020067C84.5827.748611 84.3209 19.9579 83.9274 42.7203c-.3934 22.7625-.9018 52.1729-38.4796 51.5187-2.3681-.041-4.3535-1.8198-4.3096-4.1967l.1226-6.692c.0151-2.1856-1.6888-4.0115-3.8648-4.1132C-1.70704 77.396-.278564 64.0257.114873 41.2632.508309 18.5008.792789-.708476 42.6877.020067z" fill="#FFA722"/></svg>