<svg width="466" height="341" viewBox="0 0 466 341" fill="none" xmlns="http://www.w3.org/2000/svg"><path d="M275.35 247.14c-3.668-6.402-9.454-11.324-16.361-13.918-6.908-2.594-14.504-2.697-21.479-.292-44.25 15.18-140.09 49.44-173.15 27.47-53.91-34.34 38-73.82 5.37-102.38-.451-.395-.9251-.762-1.4199-1.1C44.1501 139.92 0 125.4 0 100.99 0-15.9 119.33 114.42 145 88.78c12.24-12.24-4.06-38.16 5.83-55.89 16.43-32.509999 51.56-20.14 74.42 2.72C256.93 67.3 371.58 0 412.25 0c36.34 0 67.93 52.67 47 90-.346.6113-.726 1.2023-1.14 1.77-54.1 74.55-107.66 16.73-69.73 140.36 7.13 23.52 21.13 86.52-9.81 101.09-64.61 30.43-77.98-41.52-103.22-86.08z" fill="#000"/></svg>