<svg width="468" height="424" viewBox="0 0 468 424" fill="none" xmlns="http://www.w3.org/2000/svg"><path d="M59.7095 65.8971c16.6-20.62 45.8305-49.6201 87.5205-59.63011C224.65-12.333 251.23 19.417 302.83 19.977c27.78.31 74.19-19.28995 140.13 46.2901 31.4 31.22 32.77 87.5899.35 124.4499-25.9 29.43-40.18 46.07-40.81 73.65-.31 13.45-4.161 47.71-11.851 64.38-18.27 39.65-76.929 73.72-95.939 83.7-32.48 17.06-72.71 16.71-119-16.22-72.27-51.42-123.1405-1.83-170.0005-71-21.65-32 26.2301-67.62 12.5601-152.44-5.87-36.42 16.3499-75.7299 41.4399-106.8899z" fill="#000"/></svg>